<svg xmlns="http://www.w3.org/2000/svg" xmlns:xlink="http://www.w3.org/1999/xlink" version="1.1" viewBox="0 0 2654 2754" style="background: #ffffff"><g id="v-3"  transform="matrix(1,0,0,1,0,0)"><g id="j_123"    transform="translate(20,2709)"><g id="v-2320"><text  id="v-2321" font-size="22px" y="0.8em" xml:space="preserve" font-weight="normal" text-anchor="start" fill="#aaaaaa" pointer-events="none" font-family="Open Sans" transform="matrix(1,0,0,1,0,0)" display="block"><tspan id="v-2322"  dy="0em" x="0">Tuesday, 22 February 2022, 15:51 South Africa Standard Time</tspan></text></g></g><g id="j_122"    transform="translate(20,2663)"><g id="v-2316"><text  id="v-2317" font-size="36px" y="0.8em" xml:space="preserve" font-weight="normal" text-anchor="start" fill="#000000" pointer-events="none" font-family="Open Sans" transform="matrix(1,0,0,1,0,0)" display="block"><tspan id="v-2318"  dy="0em" x="0">[System Landscape] Nautilus</tspan></text></g></g><g id="j_109"    transform="translate(1130,309)" style=""><g id="v-2048"><rect  id="v-2049" width="490" height="1029" rx="0" ry="0" fill="#ffffff" stroke="#444444" stroke-width="2" stroke-dasharray="20,20" pointer-events="none"></rect><text  id="v-2050" font-size="32px" y="982" xml:space="preserve" font-weight="normal" fill="#444444" x="10" text-anchor="start" pointer-events="visible" font-family="Open Sans" transform="matrix(1,0,0,1,15,0)"><tspan id="v-2052"  dy="0em" x="0">Nautilus</tspan></text><text  id="v-2051" font-size="27px" y="1014" xml:space="preserve" font-weight="normal" fill="#444444" x="10" text-anchor="start" pointer-events="visible" font-family="Open Sans" transform="matrix(1,0,0,1,15,0)"><tspan id="v-2053"  dy="0em" x="0">[Enterprise]</tspan></text></g></g><g id="j_112"    transform="translate(309,1509)" style=""><g id="v-2087"><rect  id="v-2088" width="1240" height="402" rx="0" ry="0" fill="#ffffff" stroke="#cccccc" stroke-width="2" stroke-dasharray="5,5" pointer-events="none"></rect><text  id="v-2089" font-size="32px" y="387" xml:space="preserve" font-weight="normal" fill="#cccccc" x="10" text-anchor="start" pointer-events="visible" font-family="Open Sans" transform="matrix(1,0,0,1,15,0)"><tspan id="v-2091"  dy="0em" x="0">External services</tspan></text><text  id="v-2090" font-size="27px" y="387" display="none" xml:space="preserve" font-weight="normal" fill="#cccccc" x="10" text-anchor="start" pointer-events="visible" font-family="Open Sans" transform="matrix(1,0,0,1,15,0)"><tspan id="v-2092"  dy="0em" x="0" style="fill-opacity: 0; stroke-opacity: 0;">-</tspan></text></g></g><g id="j_106"    transform="translate(1104,2129)" style=""><g  id="v-1998" style="opacity: 1;"><rect  x="0" y="160" width="400" height="240" rx="70" id="v-2000" stroke="#002f48" stroke-width="2" pointer-events="visiblePainted" fill="#003450"></rect><circle  cx="200" cy="88.88888888888889" r="88.88888888888889" id="v-1999" stroke="#002f48" stroke-width="2" pointer-events="visiblePainted" fill="#003450"></circle><line  x1="80" y1="266.6666666666667" x2="80" y2="400" style="stroke-width:2px" id="v-2006" stroke="#002f48"></line><line  x1="320" y1="266.6666666666667" x2="320" y2="400" style="stroke-width:2px" id="v-2007" stroke="#002f48"></line><text  id="v-2001" font-size="40px" y="0.8em" xml:space="preserve" font-weight="bold" text-anchor="middle" pointer-events="visible" font-family="Open Sans" fill="#ffffff" transform="matrix(1,0,0,1,200,186.3)"><tspan id="v-2008"  dy="0em" x="0">Account Owner</tspan></text><text  id="v-2002" font-size="25px" y="0.8em" xml:space="preserve" text-anchor="middle" font-family="Open Sans" fill="#ffffff" transform="matrix(1,0,0,1,200,236.3)"><tspan id="v-2009"  dy="0em" x="0">[Person]</tspan></text><text  id="v-2003" font-size="30px" y="0.8em" xml:space="preserve" text-anchor="middle" font-family="Open Sans" fill="#ffffff" transform="matrix(1,0,0,1,200,298.8)"><tspan id="v-2010"  dy="0em" x="0">Owns wallet, with ledger</tspan><tspan id="v-2011"  dy="1.2em" x="0">and CBDC accounts.</tspan></text><text  id="v-2004" font-weight="bold" text-anchor="middle" font-family="Open Sans" fill="#ffffff" font-size="30" transform="matrix(1,0,0,1,200,371.2)" display="none"></text><image  id="v-2005"></image></g></g><g id="j_107"    transform="translate(1829,1529)" style="" ><g  id="v-2015" style="opacity: 1;"><ellipse  id="bottom" cx="225" cy="270" rx="225" ry="30" stroke="#6b6b6b" stroke-width="2" pointer-events="visiblePainted" fill="#777777"></ellipse><rect  id="face" x="0" y="30" width="450" height="240" stroke="#6b6b6b" stroke-width="2" pointer-events="visiblePainted" fill="#777777"></rect><clipPath id="cylinderStructurizrClipPath1" clipPathUnits="userSpaceOnUse"><use xmlns:xlink="http://www.w3.org/1999/xlink" xlink:href="#bottom"></use><use xmlns:xlink="http://www.w3.org/1999/xlink" xlink:href="#face"></use></clipPath><rect  x="0" y="30" width="450" height="270" clip-path="url(#cylinderStructurizrClipPath1)" id="v-2016" stroke="none" stroke-width="2" pointer-events="visiblePainted" fill="#777777"></rect><ellipse cx="225" cy="30" rx="225" ry="30" id="lid"  stroke="#6b6b6b" stroke-width="2" pointer-events="visiblePainted" fill="#777777"></ellipse><text  id="v-2017" font-size="42px" y="0.8em" xml:space="preserve" font-weight="bold" text-anchor="middle" pointer-events="visible" font-family="Open Sans" fill="#ffffff" transform="matrix(1,0,0,1,225,65)"><tspan id="v-2022"  dy="0em" x="0">Ledger</tspan></text><text  id="v-2018" font-size="27px" y="0.8em" xml:space="preserve" text-anchor="middle" font-family="Open Sans" fill="#ffffff" transform="matrix(1,0,0,1,225,117.5)"><tspan id="v-2023"  dy="0em" x="0">[Software System]</tspan></text><text  id="v-2019" font-size="32px" y="0.8em" xml:space="preserve" text-anchor="middle" font-family="Open Sans" fill="#ffffff" transform="matrix(1,0,0,1,225,185)"><tspan id="v-2024"  dy="0em" x="0">Blockchain network</tspan><tspan id="v-2025"  dy="1.2em" x="0">providing a governed asset.</tspan></text><text  id="v-2020" font-weight="bold" text-anchor="middle" font-family="Open Sans" fill="#ffffff" font-size="32" transform="matrix(1,0,0,1,225,273)" y="0.8em" display="none" xml:space="preserve"><tspan id="v-2026"  dy="0em" x="0" style="fill-opacity: 0; stroke-opacity: 0;">-</tspan></text><image  id="v-2021"></image></g></g><g id="j_108"    transform="translate(1150,329)" style="" ><g  id="v-2030" style="opacity: 1;"><rect  id="v-2031" rx="10" ry="10" stroke="#002f48" stroke-width="2" pointer-events="visiblePainted" fill="#002f48" width="450" height="300"></rect><rect  id="v-2032" rx="10" ry="10" stroke="#002f48" stroke-width="0" pointer-events="visiblePainted" fill="#003450" width="430" height="250" x="10" y="40"></rect><ellipse  id="v-2039" fill="#003450" cx="20" cy="20" rx="10" ry="10"></ellipse><ellipse  id="v-2040" fill="#003450" cx="50" cy="20" rx="10" ry="10"></ellipse><ellipse  id="v-2041" fill="#003450" cx="80" cy="20" rx="10" ry="10"></ellipse><rect  id="v-2033" rx="10" ry="10" stroke="#444444" stroke-width="0" pointer-events="visiblePainted" fill="#003450" width="340" height="20" x="100" y="10"></rect><text  id="v-2034" font-size="42" y="0.8em" xml:space="preserve" font-weight="bold" text-anchor="middle" pointer-events="visible" font-family="Open Sans" fill="#ffffff" transform="matrix(1,0,0,1,225,50)"><tspan id="v-2042"  dy="0em" x="0">Wallet App</tspan></text><text  id="v-2035" font-size="27" y="0.8em" xml:space="preserve" text-anchor="middle" font-family="Open Sans" fill="#ffffff" transform="matrix(1,0,0,1,225,102.5)"><tspan id="v-2043"  dy="0em" x="0">[Software System]</tspan></text><text  id="v-2036" font-size="32" y="0.8em" xml:space="preserve" text-anchor="middle" font-family="Open Sans" fill="#ffffff" transform="matrix(1,0,0,1,225,170)"><tspan id="v-2044"  dy="0em" x="0">Allows account holders to</tspan><tspan id="v-2045"  dy="1.2em" x="0">access and transact using</tspan><tspan id="v-2046"  dy="1.2em" x="0">their wallets.</tspan></text><text  id="v-2037" font-weight="bold" text-anchor="middle" font-family="Open Sans" fill="#ffffff" font-size="32" transform="matrix(1,0,0,1,225,270)" y="0.8em" xml:space="preserve" display="none"><tspan id="v-2054"  dy="0em" x="0">+</tspan></text><image  id="v-2038"></image></g></g><g id="j_110"    transform="translate(1150,929)" style="" ><g  id="v-2058" style="opacity: 1;"><rect  id="v-2059" rx="20" ry="20" stroke="#002f48" stroke-width="2" pointer-events="visiblePainted" fill="#003450" width="450" height="300"></rect><text  id="v-2060" font-size="42" y="0.8em" xml:space="preserve" font-weight="bold" text-anchor="middle" pointer-events="visible" font-family="Open Sans" fill="#ffffff" transform="matrix(1,0,0,1,225,50)"><tspan id="v-2065"  dy="0em" x="0">CBDC Services</tspan></text><text  id="v-2061" font-size="27" y="0.8em" xml:space="preserve" text-anchor="middle" font-family="Open Sans" fill="#ffffff" transform="matrix(1,0,0,1,225,102.5)"><tspan id="v-2066"  dy="0em" x="0">[Software System]</tspan></text><text  id="v-2062" font-size="32" y="0.8em" xml:space="preserve" text-anchor="middle" font-family="Open Sans" fill="#ffffff" transform="matrix(1,0,0,1,225,170)"><tspan id="v-2067"  dy="0em" x="0">Provides CBDC-related</tspan><tspan id="v-2068"  dy="1.2em" x="0">operations.</tspan></text><text  id="v-2063" font-weight="bold" text-anchor="middle" font-family="Open Sans" fill="#ffffff" font-size="32" transform="matrix(1,0,0,1,225,270)" y="0.8em" xml:space="preserve" display="none"><tspan id="v-2069"  dy="0em" x="0">+</tspan></text><image  id="v-2064"></image></g></g><g id="j_111"    transform="translate(1079,1529)" style="" ><g  id="v-2075" style="opacity: 1;"><rect  id="v-2076" rx="20" ry="20" stroke="#6b6b6b" stroke-width="2" pointer-events="visiblePainted" fill="#777777" width="450" height="300"></rect><text  id="v-2077" font-size="42" y="0.8em" xml:space="preserve" font-weight="bold" text-anchor="middle" pointer-events="visible" font-family="Open Sans" fill="#ffffff" transform="matrix(1,0,0,1,225,50)"><tspan id="v-2082"  dy="0em" x="0">Messaging Service</tspan></text><text  id="v-2078" font-size="27" y="0.8em" xml:space="preserve" text-anchor="middle" font-family="Open Sans" fill="#ffffff" transform="matrix(1,0,0,1,225,102.5)"><tspan id="v-2083"  dy="0em" x="0">[Software System]</tspan></text><text  id="v-2079" font-size="32" y="0.8em" xml:space="preserve" text-anchor="middle" font-family="Open Sans" fill="#ffffff" transform="matrix(1,0,0,1,225,170)"><tspan id="v-2084"  dy="0em" x="0">Delivers messages to</tspan><tspan id="v-2085"  dy="1.2em" x="0">mobile devices. (Twilio)</tspan></text><text  id="v-2080" font-weight="bold" text-anchor="middle" font-family="Open Sans" fill="#ffffff" font-size="32" transform="matrix(1,0,0,1,225,270)" y="0.8em" display="none" xml:space="preserve"><tspan id="v-2093"  dy="0em" x="0" style="fill-opacity: 0; stroke-opacity: 0;">-</tspan></text><image  id="v-2081"></image></g></g><g id="j_113"    transform="translate(329,1529)" style="" ><g  id="v-2097" style="opacity: 1;"><rect  id="v-2098" rx="20" ry="20" stroke="#6b6b6b" stroke-width="2" pointer-events="visiblePainted" fill="#777777" width="450" height="300"></rect><text  id="v-2099" font-size="42" y="0.8em" xml:space="preserve" font-weight="bold" text-anchor="middle" pointer-events="visible" font-family="Open Sans" fill="#ffffff" transform="matrix(1,0,0,1,225,30)"><tspan id="v-2104"  dy="0em" x="0">KYC Service</tspan></text><text  id="v-2100" font-size="27" y="0.8em" xml:space="preserve" text-anchor="middle" font-family="Open Sans" fill="#ffffff" transform="matrix(1,0,0,1,225,82.5)"><tspan id="v-2105"  dy="0em" x="0">[Software System]</tspan></text><text  id="v-2101" font-size="32" y="0.8em" xml:space="preserve" text-anchor="middle" font-family="Open Sans" fill="#ffffff" transform="matrix(1,0,0,1,225,150)"><tspan id="v-2106"  dy="0em" x="0">Verifies identities of new</tspan><tspan id="v-2107"  dy="1.2em" x="0">account owners for KYC</tspan><tspan id="v-2108"  dy="1.2em" x="0">compliance. (Onfido)</tspan></text><text  id="v-2102" font-weight="bold" text-anchor="middle" font-family="Open Sans" fill="#ffffff" font-size="32" transform="matrix(1,0,0,1,225,270)" y="0.8em" display="none" xml:space="preserve"><tspan id="v-2109"  dy="0em" x="0" style="fill-opacity: 0; stroke-opacity: 0;">-</tspan></text><image  id="v-2103"></image></g></g><g id="j_114"   ><path  stroke="#444444" id="v-2129" stroke-width="2" stroke-dasharray="30 30" fill="none" d="M 1166 1235 779 1517" style="opacity: 1;"></path><path  fill="black" stroke="black" transform="translate(1166,1235) scale(1,1) rotate(-216.11181640625)"></path><path  fill="#444444" stroke="#444444" id="v-2131" d="M 20 0 L 0 10 L 20 20 z" transform="translate(757.1063609717723,1520.9212695130166) scale(1,1) rotate(-36.11181640624999)" style="opacity: 1;"></path><path  id="v-2130" fill="none" d="M 1166 1235 779 1517" style=""></path><title ></title><g ><g  id="v-2117" label-idx="0" cursor="move" transform="translate(972.5, 1376)" style="opacity: 1;"><rect id="v-2119" fill="#ffffff" rx="3" ry="3" stroke="#ffffff" stroke-width="20px" pointer-events="none" width="318.4419250488281" height="44.36431121826172" transform="matrix(1,0,0,1,-159.2,-22.2)"></rect><text id="v-2118" font-size="32px" y="0.8em" xml:space="preserve" text-anchor="middle" pointer-events="none" fill="#444444" font-family="Open Sans" font-weight="normal" transform="matrix(1,0,0,1,0,-13.7)"><tspan id="v-2120"  dy="0em" x="0">Verifies identity using</tspan></text></g><g  id="v-2121" label-idx="1" cursor="move" transform="translate(972.5, 1417.6)" style="opacity: 1;"><rect id="v-2123" fill="#ffffff" rx="3" ry="3" pointer-events="none" width="116.40299987792969" height="34.12639236450195" transform="matrix(1,0,0,1,-58.2,-17.1)"></rect><text id="v-2122" font-size="27px" y="0.8em" xml:space="preserve" text-anchor="middle" pointer-events="none" fill="#444444" font-family="Open Sans" font-weight="normal" transform="matrix(1,0,0,1,0,-11.4)"><tspan id="v-2124"  dy="0em" x="0">[SDK API]</tspan></text></g><g  id="v-2125" label-idx="2" cursor="move" transform="translate(972.5, 1449.6)" style="opacity: 1;"><rect id="v-2127" fill="#ffffff" rx="3" ry="3" pointer-events="none"  display="none" width="0" height="0" transform="matrix(1,0,0,1,0,0)"></rect><text id="v-2126" font-size="27px" y="0.8em" display="none" xml:space="preserve" text-anchor="middle" pointer-events="none" fill="#444444" font-family="Open Sans" font-weight="normal"  transform="matrix(1,0,0,1,0,0)"><tspan id="v-2128"  dy="0em" x="0" style="fill-opacity: 0; stroke-opacity: 0;">-</tspan></text></g></g><g  display="none"></g><g  id="v-2133" display="none"><g  id="v-2114"><path  end="source" d="M 26 0 L 0 13 L 26 26 z"></path></g><g  id="v-2115"><path  end="target" d="M 26 0 L 0 13 L 26 26 z"></path></g></g><g  id="v-2132" display="none"><g  id="v-2113" transform="translate(1133.6722412109375, 1258.556640625) "><g  event="remove"><circle r="11"></circle><path transform="scale(.8) translate(-16, -16)" d="M24.778,21.419 19.276,15.917 24.777,10.415 21.949,7.585 16.447,13.087 10.945,7.585 8.117,10.415 13.618,15.917 8.116,21.419 10.946,24.248 16.447,18.746 21.948,24.248z"></path><title>Remove link.</title></g><g  event="link:options"><circle r="11" transform="translate(25)"></circle><path fill="white" transform="scale(.55) translate(29, -16)" d="M31.229,17.736c0.064-0.571,0.104-1.148,0.104-1.736s-0.04-1.166-0.104-1.737l-4.377-1.557c-0.218-0.716-0.504-1.401-0.851-2.05l1.993-4.192c-0.725-0.91-1.549-1.734-2.458-2.459l-4.193,1.994c-0.647-0.347-1.334-0.632-2.049-0.849l-1.558-4.378C17.165,0.708,16.588,0.667,16,0.667s-1.166,0.041-1.737,0.105L12.707,5.15c-0.716,0.217-1.401,0.502-2.05,0.849L6.464,4.005C5.554,4.73,4.73,5.554,4.005,6.464l1.994,4.192c-0.347,0.648-0.632,1.334-0.849,2.05l-4.378,1.557C0.708,14.834,0.667,15.412,0.667,16s0.041,1.165,0.105,1.736l4.378,1.558c0.217,0.715,0.502,1.401,0.849,2.049l-1.994,4.193c0.725,0.909,1.549,1.733,2.459,2.458l4.192-1.993c0.648,0.347,1.334,0.633,2.05,0.851l1.557,4.377c0.571,0.064,1.148,0.104,1.737,0.104c0.588,0,1.165-0.04,1.736-0.104l1.558-4.377c0.715-0.218,1.399-0.504,2.049-0.851l4.193,1.993c0.909-0.725,1.733-1.549,2.458-2.458l-1.993-4.193c0.347-0.647,0.633-1.334,0.851-2.049L31.229,17.736zM16,20.871c-2.69,0-4.872-2.182-4.872-4.871c0-2.69,2.182-4.872,4.872-4.872c2.689,0,4.871,2.182,4.871,4.872C20.871,18.689,18.689,20.871,16,20.871z"></path><title>Link options.</title></g></g></g></g><g id="j_115"   ><path  stroke="#444444" id="v-2154" stroke-width="2" stroke-dasharray="30 30" fill="none" d="M 1375 635 1375 909" style="opacity: 1;"></path><path  fill="black" stroke="black" transform="translate(1375,635) scale(1,1) rotate(-270)"></path><path  fill="#444444" stroke="#444444" id="v-2156" d="M 20 0 L 0 10 L 20 20 z" transform="translate(1365,929) scale(1,1) rotate(-90)" style="opacity: 1;"></path><path  id="v-2155" fill="none" d="M 1375 635 1375 909" style=""></path><title ></title><g ><g  id="v-2141" label-idx="0" cursor="move" transform="translate(1375, 772)" style="opacity: 1;"><rect id="v-2143" fill="#ffffff" rx="3" ry="3" stroke="#ffffff" stroke-width="20px" pointer-events="none" width="298.60595703125" height="82.76430892944336" transform="matrix(1,0,0,1,-149.3,-41.4)"></rect><text id="v-2142" font-size="32px" y="0.8em" xml:space="preserve" text-anchor="middle" pointer-events="none" fill="#444444" font-family="Open Sans" font-weight="normal" transform="matrix(1,0,0,1,0,-32.9)"><tspan id="v-2144"  dy="0em" x="0">Creates &amp; recovers</tspan><tspan id="v-2145"  dy="1.2em" x="0">CBDC account using</tspan></text></g><g  id="v-2146" label-idx="1" cursor="move" transform="translate(1375, 829.6)" style="opacity: 1;"><rect id="v-2148" fill="#ffffff" rx="3" ry="3" pointer-events="none" width="122.10850524902344" height="34.12639236450195" transform="matrix(1,0,0,1,-61.1,-17.1)"></rect><text id="v-2147" font-size="27px" y="0.8em" xml:space="preserve" text-anchor="middle" pointer-events="none" fill="#444444" font-family="Open Sans" font-weight="normal" transform="matrix(1,0,0,1,0,-11.4)"><tspan id="v-2149"  dy="0em" x="0">[Web API]</tspan></text></g><g  id="v-2150" label-idx="2" cursor="move" transform="translate(1375, 861.6)" style="opacity: 1;"><rect id="v-2152" fill="#ffffff" rx="3" ry="3" pointer-events="none"  display="none" width="0" height="0" transform="matrix(1,0,0,1,0,0)"></rect><text id="v-2151" font-size="27px" y="0.8em" display="none" xml:space="preserve" text-anchor="middle" pointer-events="none" fill="#444444" font-family="Open Sans" font-weight="normal"  transform="matrix(1,0,0,1,0,0)"><tspan id="v-2153"  dy="0em" x="0" style="fill-opacity: 0; stroke-opacity: 0;">-</tspan></text></g></g><g  display="none"></g><g  id="v-2158" display="none"><g  id="v-2138"><path  end="source" d="M 26 0 L 0 13 L 26 26 z"></path></g><g  id="v-2139"><path  end="target" d="M 26 0 L 0 13 L 26 26 z"></path></g></g><g  id="v-2157" display="none"><g  id="v-2137" transform="translate(1375, 675) "><g  event="remove"><circle r="11"></circle><path transform="scale(.8) translate(-16, -16)" d="M24.778,21.419 19.276,15.917 24.777,10.415 21.949,7.585 16.447,13.087 10.945,7.585 8.117,10.415 13.618,15.917 8.116,21.419 10.946,24.248 16.447,18.746 21.948,24.248z"></path><title>Remove link.</title></g><g  event="link:options"><circle r="11" transform="translate(25)"></circle><path fill="white" transform="scale(.55) translate(29, -16)" d="M31.229,17.736c0.064-0.571,0.104-1.148,0.104-1.736s-0.04-1.166-0.104-1.737l-4.377-1.557c-0.218-0.716-0.504-1.401-0.851-2.05l1.993-4.192c-0.725-0.91-1.549-1.734-2.458-2.459l-4.193,1.994c-0.647-0.347-1.334-0.632-2.049-0.849l-1.558-4.378C17.165,0.708,16.588,0.667,16,0.667s-1.166,0.041-1.737,0.105L12.707,5.15c-0.716,0.217-1.401,0.502-2.05,0.849L6.464,4.005C5.554,4.73,4.73,5.554,4.005,6.464l1.994,4.192c-0.347,0.648-0.632,1.334-0.849,2.05l-4.378,1.557C0.708,14.834,0.667,15.412,0.667,16s0.041,1.165,0.105,1.736l4.378,1.558c0.217,0.715,0.502,1.401,0.849,2.049l-1.994,4.193c0.725,0.909,1.549,1.733,2.459,2.458l4.192-1.993c0.648,0.347,1.334,0.633,2.05,0.851l1.557,4.377c0.571,0.064,1.148,0.104,1.737,0.104c0.588,0,1.165-0.04,1.736-0.104l1.558-4.377c0.715-0.218,1.399-0.504,2.049-0.851l4.193,1.993c0.909-0.725,1.733-1.549,2.458-2.458l-1.993-4.193c0.347-0.647,0.633-1.334,0.851-2.049L31.229,17.736zM16,20.871c-2.69,0-4.872-2.182-4.872-4.871c0-2.69,2.182-4.872,4.872-4.872c2.689,0,4.871,2.182,4.871,4.872C20.871,18.689,18.689,20.871,16,20.871z"></path><title>Link options.</title></g></g></g></g><g id="j_116"   ><path  stroke="#444444" id="v-2179" stroke-width="2" stroke-dasharray="30 30" fill="none" d="M 1548 1235 1865 1516" style="opacity: 1;"></path><path  fill="black" stroke="black" transform="translate(1548,1235) scale(1,1) rotate(41.52624511718753)"></path><path  fill="#444444" stroke="#444444" id="v-2181" d="M 20 0 L 0 10 L 20 20 z" transform="translate(1873.3703184534565,1536.4865130096405) scale(1,1) rotate(-138.4737548828125)" style="opacity: 1;"></path><path  id="v-2180" fill="none" d="M 1548 1235 1865 1516" style=""></path><title ></title><g ><g  id="v-2166" label-idx="0" cursor="move" transform="translate(1706.5, 1375.5)" style="opacity: 1;"><rect id="v-2168" fill="#ffffff" rx="3" ry="3" stroke="#ffffff" stroke-width="20px" pointer-events="none" width="332.4256896972656" height="82.76430892944336" transform="matrix(1,0,0,1,-165.3,-41.4)"></rect><text id="v-2167" font-size="32px" y="0.8em" xml:space="preserve" text-anchor="middle" pointer-events="none" fill="#444444" font-family="Open Sans" font-weight="normal" transform="matrix(1,0,0,1,0,-32.9)"><tspan id="v-2169"  dy="0em" x="0">Reads state &amp; submits</tspan><tspan id="v-2170"  dy="1.2em" x="0">transactions to</tspan></text></g><g  id="v-2171" label-idx="1" cursor="move" transform="translate(1706.5, 1433.1)" style="opacity: 1;"><rect id="v-2173" fill="#ffffff" rx="3" ry="3" pointer-events="none" width="0" height="0" transform="matrix(1,0,0,1,0,0)"></rect><text id="v-2172" font-size="27px" y="0.8em" display="none" xml:space="preserve" text-anchor="middle" pointer-events="none" fill="#444444" font-family="Open Sans" font-weight="normal" transform="matrix(1,0,0,1,0,0)"><tspan id="v-2174"  dy="0em" x="0" style="fill-opacity: 0; stroke-opacity: 0;">-</tspan></text></g><g  id="v-2175" label-idx="2" cursor="move" transform="translate(1706.5, 1465.1)" style="opacity: 1;"><rect id="v-2177" fill="#ffffff" rx="3" ry="3" pointer-events="none"  display="none" width="0" height="0" transform="matrix(1,0,0,1,0,0)"></rect><text id="v-2176" font-size="27px" y="0.8em" display="none" xml:space="preserve" text-anchor="middle" pointer-events="none" fill="#444444" font-family="Open Sans" font-weight="normal"  transform="matrix(1,0,0,1,0,0)"><tspan id="v-2178"  dy="0em" x="0" style="fill-opacity: 0; stroke-opacity: 0;">-</tspan></text></g></g><g  display="none"></g><g  id="v-2183" display="none"><g  id="v-2163"><path  end="source" d="M 26 0 L 0 13 L 26 26 z"></path></g><g  id="v-2164"><path  end="target" d="M 26 0 L 0 13 L 26 26 z"></path></g></g><g  id="v-2182" display="none"><g  id="v-2162" transform="translate(1577.932861328125, 1261.5335693359375) "><g  event="remove"><circle r="11"></circle><path transform="scale(.8) translate(-16, -16)" d="M24.778,21.419 19.276,15.917 24.777,10.415 21.949,7.585 16.447,13.087 10.945,7.585 8.117,10.415 13.618,15.917 8.116,21.419 10.946,24.248 16.447,18.746 21.948,24.248z"></path><title>Remove link.</title></g><g  event="link:options"><circle r="11" transform="translate(25)"></circle><path fill="white" transform="scale(.55) translate(29, -16)" d="M31.229,17.736c0.064-0.571,0.104-1.148,0.104-1.736s-0.04-1.166-0.104-1.737l-4.377-1.557c-0.218-0.716-0.504-1.401-0.851-2.05l1.993-4.192c-0.725-0.91-1.549-1.734-2.458-2.459l-4.193,1.994c-0.647-0.347-1.334-0.632-2.049-0.849l-1.558-4.378C17.165,0.708,16.588,0.667,16,0.667s-1.166,0.041-1.737,0.105L12.707,5.15c-0.716,0.217-1.401,0.502-2.05,0.849L6.464,4.005C5.554,4.73,4.73,5.554,4.005,6.464l1.994,4.192c-0.347,0.648-0.632,1.334-0.849,2.05l-4.378,1.557C0.708,14.834,0.667,15.412,0.667,16s0.041,1.165,0.105,1.736l4.378,1.558c0.217,0.715,0.502,1.401,0.849,2.049l-1.994,4.193c0.725,0.909,1.549,1.733,2.459,2.458l4.192-1.993c0.648,0.347,1.334,0.633,2.05,0.851l1.557,4.377c0.571,0.064,1.148,0.104,1.737,0.104c0.588,0,1.165-0.04,1.736-0.104l1.558-4.377c0.715-0.218,1.399-0.504,2.049-0.851l4.193,1.993c0.909-0.725,1.733-1.549,2.458-2.458l-1.993-4.193c0.347-0.647,0.633-1.334,0.851-2.049L31.229,17.736zM16,20.871c-2.69,0-4.872-2.182-4.872-4.871c0-2.69,2.182-4.872,4.872-4.872c2.689,0,4.871,2.182,4.871,4.872C20.871,18.689,18.689,20.871,16,20.871z"></path><title>Link options.</title></g></g></g></g><g id="j_117"   ><path  stroke="#444444" id="v-2205" stroke-width="2" stroke-dasharray="30 30" fill="none" d="M 1503 635 1744 921 S 1750 929 1754 938 L 1985 1510" style="opacity: 1;"></path><path  fill="black" stroke="black" transform="translate(1503,635) scale(1,1) rotate(49.9651794433594)"></path><path  fill="#444444" stroke="#444444" id="v-2207" d="M 20 0 L 0 10 L 20 20 z" transform="translate(1982.7258723782636,1532.740562344063) scale(1,1) rotate(-111.96586608886719)" style="opacity: 1;"></path><path  id="v-2206" fill="none" d="M 1503 635 1744 921 S 1750 929 1754 938 L 1985 1510" style=""></path><title ></title><g ><g  id="v-2192" label-idx="0" cursor="move" transform="translate(1795.7760009765625, 1041.4451904296875)" style="opacity: 1;"><rect id="v-2194" fill="#ffffff" rx="3" ry="3" stroke="#ffffff" stroke-width="20px" pointer-events="none" width="332.4256896972656" height="82.76430892944336" transform="matrix(1,0,0,1,-165.3,-41.4)"></rect><text id="v-2193" font-size="32px" y="0.8em" xml:space="preserve" text-anchor="middle" pointer-events="none" fill="#444444" font-family="Open Sans" font-weight="normal" transform="matrix(1,0,0,1,0,-32.9)"><tspan id="v-2195"  dy="0em" x="0">Reads state &amp; submits</tspan><tspan id="v-2196"  dy="1.2em" x="0">transactions to</tspan></text></g><g  id="v-2197" label-idx="1" cursor="move" transform="translate(1795.7760009765625, 1099.0451904296874)" style="opacity: 1;"><rect id="v-2199" fill="#ffffff" rx="3" ry="3" pointer-events="none" width="350.7553405761719" height="34.12639236450195" transform="matrix(1,0,0,1,-175.4,-17.1)"></rect><text id="v-2198" font-size="27px" y="0.8em" xml:space="preserve" text-anchor="middle" pointer-events="none" fill="#444444" font-family="Open Sans" font-weight="normal" transform="matrix(1,0,0,1,0,-11.4)"><tspan id="v-2200"  dy="0em" x="0">[owner-signed transactions]</tspan></text></g><g  id="v-2201" label-idx="2" cursor="move" transform="translate(1795.7760009765625, 1131.0451904296874)" style="opacity: 1;"><rect id="v-2203" fill="#ffffff" rx="3" ry="3" pointer-events="none"  display="none" width="0" height="0" transform="matrix(1,0,0,1,0,0)"></rect><text id="v-2202" font-size="27px" y="0.8em" display="none" xml:space="preserve" text-anchor="middle" pointer-events="none" fill="#444444" font-family="Open Sans" font-weight="normal"  transform="matrix(1,0,0,1,0,0)"><tspan id="v-2204"  dy="0em" x="0" style="fill-opacity: 0; stroke-opacity: 0;">-</tspan></text></g></g><g  display="none"><g  transform="translate(1750, 929)" id="v-2188"><circle  idx="0" r="10"></circle><path  idx="0" d="M16,5.333c-7.732,0-14,4.701-14,10.5c0,1.982,0.741,3.833,2.016,5.414L2,25.667l5.613-1.441c2.339,1.317,5.237,2.107,8.387,2.107c7.732,0,14-4.701,14-10.5C30,10.034,23.732,5.333,16,5.333z" transform="translate(5, -33)"></path><path  idx="0" transform="scale(.8) translate(9.5, -37)" d="M24.778,21.419 19.276,15.917 24.777,10.415 21.949,7.585 16.447,13.087 10.945,7.585 8.117,10.415 13.618,15.917 8.116,21.419 10.946,24.248 16.447,18.746 21.948,24.248z"><title>Remove vertex.</title></path></g></g><g  id="v-2209" display="none"><g  id="v-2189"><path  end="source" d="M 26 0 L 0 13 L 26 26 z"></path></g><g  id="v-2190"><path  end="target" d="M 26 0 L 0 13 L 26 26 z"></path></g></g><g  id="v-2208" display="none"><g  id="v-2187" transform="translate(1528.7752685546875, 665.588134765625) "><g  event="remove"><circle r="11"></circle><path transform="scale(.8) translate(-16, -16)" d="M24.778,21.419 19.276,15.917 24.777,10.415 21.949,7.585 16.447,13.087 10.945,7.585 8.117,10.415 13.618,15.917 8.116,21.419 10.946,24.248 16.447,18.746 21.948,24.248z"></path><title>Remove link.</title></g><g  event="link:options"><circle r="11" transform="translate(25)"></circle><path fill="white" transform="scale(.55) translate(29, -16)" d="M31.229,17.736c0.064-0.571,0.104-1.148,0.104-1.736s-0.04-1.166-0.104-1.737l-4.377-1.557c-0.218-0.716-0.504-1.401-0.851-2.05l1.993-4.192c-0.725-0.91-1.549-1.734-2.458-2.459l-4.193,1.994c-0.647-0.347-1.334-0.632-2.049-0.849l-1.558-4.378C17.165,0.708,16.588,0.667,16,0.667s-1.166,0.041-1.737,0.105L12.707,5.15c-0.716,0.217-1.401,0.502-2.05,0.849L6.464,4.005C5.554,4.73,4.73,5.554,4.005,6.464l1.994,4.192c-0.347,0.648-0.632,1.334-0.849,2.05l-4.378,1.557C0.708,14.834,0.667,15.412,0.667,16s0.041,1.165,0.105,1.736l4.378,1.558c0.217,0.715,0.502,1.401,0.849,2.049l-1.994,4.193c0.725,0.909,1.549,1.733,2.459,2.458l4.192-1.993c0.648,0.347,1.334,0.633,2.05,0.851l1.557,4.377c0.571,0.064,1.148,0.104,1.737,0.104c0.588,0,1.165-0.04,1.736-0.104l1.558-4.377c0.715-0.218,1.399-0.504,2.049-0.851l4.193,1.993c0.909-0.725,1.733-1.549,2.458-2.458l-1.993-4.193c0.347-0.647,0.633-1.334,0.851-2.049L31.229,17.736zM16,20.871c-2.69,0-4.872-2.182-4.872-4.871c0-2.69,2.182-4.872,4.872-4.872c2.689,0,4.871,2.182,4.871,4.872C20.871,18.689,18.689,20.871,16,20.871z"></path><title>Link options.</title></g></g></g></g><g id="j_118"   ><path  stroke="#444444" id="v-2232" stroke-width="2" stroke-dasharray="30 30" fill="none" d="M 1504 2259 2420 1936 S 2429 1933 2429 1923 L 2429 1435 S 2429 1425 2423 1417 L 2064 937 S 2058 929 2050 924 L 1617 640" style="opacity: 1;"></path><path  fill="black" stroke="black" transform="translate(1504,2259) scale(1,1) rotate(-19.41411018371582)"></path><path  fill="#444444" stroke="#444444" id="v-2234" d="M 20 0 L 0 10 L 20 20 z" transform="translate(1605.479427722825,620.6348000636877) scale(1,1) rotate(33.22567749023436)" style="opacity: 1;"></path><path  id="v-2233" fill="none" d="M 1504 2259 2420 1936 S 2429 1933 2429 1923 L 2429 1435 S 2429 1425 2423 1417 L 2064 937 S 2058 929 2050 924 L 1617 640" style=""></path><title ></title><g ><g  id="v-2220" label-idx="0" cursor="move" transform="translate(2429, 1595.2288818359375)" style="opacity: 1;"><rect id="v-2222" fill="#ffffff" rx="3" ry="3" stroke="#ffffff" stroke-width="20px" pointer-events="none" width="230.99302673339844" height="44.36431121826172" transform="matrix(1,0,0,1,-115.5,-22.2)"></rect><text id="v-2221" font-size="32px" y="0.8em" xml:space="preserve" text-anchor="middle" pointer-events="none" fill="#444444" font-family="Open Sans" font-weight="normal" transform="matrix(1,0,0,1,0,-13.7)"><tspan id="v-2223"  dy="0em" x="0">Transacts using</tspan></text></g><g  id="v-2224" label-idx="1" cursor="move" transform="translate(2429, 1636.8288818359374)" style="opacity: 1;"><rect id="v-2226" fill="#ffffff" rx="3" ry="3" pointer-events="none" width="180.65660095214844" height="34.12639236450195" transform="matrix(1,0,0,1,-90.3,-17.1)"></rect><text id="v-2225" font-size="27px" y="0.8em" xml:space="preserve" text-anchor="middle" pointer-events="none" fill="#444444" font-family="Open Sans" font-weight="normal" transform="matrix(1,0,0,1,0,-11.4)"><tspan id="v-2227"  dy="0em" x="0">[web / mobile]</tspan></text></g><g  id="v-2228" label-idx="2" cursor="move" transform="translate(2429, 1668.8288818359374)" style="opacity: 1;"><rect id="v-2230" fill="#ffffff" rx="3" ry="3" pointer-events="none"  display="none" width="0" height="0" transform="matrix(1,0,0,1,0,0)"></rect><text id="v-2229" font-size="27px" y="0.8em" display="none" xml:space="preserve" text-anchor="middle" pointer-events="none" fill="#444444" font-family="Open Sans" font-weight="normal"  transform="matrix(1,0,0,1,0,0)"><tspan id="v-2231"  dy="0em" x="0" style="fill-opacity: 0; stroke-opacity: 0;">-</tspan></text></g></g><g  display="none"><g  transform="translate(2429, 1933)" id="v-2214"><circle  idx="0" r="10"></circle><path  idx="0" d="M16,5.333c-7.732,0-14,4.701-14,10.5c0,1.982,0.741,3.833,2.016,5.414L2,25.667l5.613-1.441c2.339,1.317,5.237,2.107,8.387,2.107c7.732,0,14-4.701,14-10.5C30,10.034,23.732,5.333,16,5.333z" transform="translate(5, -33)"></path><path  idx="0" transform="scale(.8) translate(9.5, -37)" d="M24.778,21.419 19.276,15.917 24.777,10.415 21.949,7.585 16.447,13.087 10.945,7.585 8.117,10.415 13.618,15.917 8.116,21.419 10.946,24.248 16.447,18.746 21.948,24.248z"><title>Remove vertex.</title></path></g><g  transform="translate(2429, 1425)" id="v-2215"><circle  idx="1" r="10"></circle><path  idx="1" d="M16,5.333c-7.732,0-14,4.701-14,10.5c0,1.982,0.741,3.833,2.016,5.414L2,25.667l5.613-1.441c2.339,1.317,5.237,2.107,8.387,2.107c7.732,0,14-4.701,14-10.5C30,10.034,23.732,5.333,16,5.333z" transform="translate(5, -33)"></path><path  idx="1" transform="scale(.8) translate(9.5, -37)" d="M24.778,21.419 19.276,15.917 24.777,10.415 21.949,7.585 16.447,13.087 10.945,7.585 8.117,10.415 13.618,15.917 8.116,21.419 10.946,24.248 16.447,18.746 21.948,24.248z"><title>Remove vertex.</title></path></g><g  transform="translate(2058, 929)" id="v-2216"><circle  idx="2" r="10"></circle><path  idx="2" d="M16,5.333c-7.732,0-14,4.701-14,10.5c0,1.982,0.741,3.833,2.016,5.414L2,25.667l5.613-1.441c2.339,1.317,5.237,2.107,8.387,2.107c7.732,0,14-4.701,14-10.5C30,10.034,23.732,5.333,16,5.333z" transform="translate(5, -33)"></path><path  idx="2" transform="scale(.8) translate(9.5, -37)" d="M24.778,21.419 19.276,15.917 24.777,10.415 21.949,7.585 16.447,13.087 10.945,7.585 8.117,10.415 13.618,15.917 8.116,21.419 10.946,24.248 16.447,18.746 21.948,24.248z"><title>Remove vertex.</title></path></g></g><g  id="v-2236" display="none"><g  id="v-2217"><path  end="source" d="M 26 0 L 0 13 L 26 26 z"></path></g><g  id="v-2218"><path  end="target" d="M 26 0 L 0 13 L 26 26 z"></path></g></g><g  id="v-2235" display="none"><g  id="v-2213" transform="translate(1541.723388671875, 2245.697998046875) "><g  event="remove"><circle r="11"></circle><path transform="scale(.8) translate(-16, -16)" d="M24.778,21.419 19.276,15.917 24.777,10.415 21.949,7.585 16.447,13.087 10.945,7.585 8.117,10.415 13.618,15.917 8.116,21.419 10.946,24.248 16.447,18.746 21.948,24.248z"></path><title>Remove link.</title></g><g  event="link:options"><circle r="11" transform="translate(25)"></circle><path fill="white" transform="scale(.55) translate(29, -16)" d="M31.229,17.736c0.064-0.571,0.104-1.148,0.104-1.736s-0.04-1.166-0.104-1.737l-4.377-1.557c-0.218-0.716-0.504-1.401-0.851-2.05l1.993-4.192c-0.725-0.91-1.549-1.734-2.458-2.459l-4.193,1.994c-0.647-0.347-1.334-0.632-2.049-0.849l-1.558-4.378C17.165,0.708,16.588,0.667,16,0.667s-1.166,0.041-1.737,0.105L12.707,5.15c-0.716,0.217-1.401,0.502-2.05,0.849L6.464,4.005C5.554,4.73,4.73,5.554,4.005,6.464l1.994,4.192c-0.347,0.648-0.632,1.334-0.849,2.05l-4.378,1.557C0.708,14.834,0.667,15.412,0.667,16s0.041,1.165,0.105,1.736l4.378,1.558c0.217,0.715,0.502,1.401,0.849,2.049l-1.994,4.193c0.725,0.909,1.549,1.733,2.459,2.458l4.192-1.993c0.648,0.347,1.334,0.633,2.05,0.851l1.557,4.377c0.571,0.064,1.148,0.104,1.737,0.104c0.588,0,1.165-0.04,1.736-0.104l1.558-4.377c0.715-0.218,1.399-0.504,2.049-0.851l4.193,1.993c0.909-0.725,1.733-1.549,2.458-2.458l-1.993-4.193c0.347-0.647,0.633-1.334,0.851-2.049L31.229,17.736zM16,20.871c-2.69,0-4.872-2.182-4.872-4.871c0-2.69,2.182-4.872,4.872-4.872c2.689,0,4.871,2.182,4.871,4.872C20.871,18.689,18.689,20.871,16,20.871z"></path><title>Link options.</title></g></g></g></g><g id="j_119"   ><path  stroke="#444444" id="v-2256" stroke-width="2" stroke-dasharray="30 30" fill="none" d="M 1304 1835 1304 2109" style="opacity: 1;"></path><path  fill="black" stroke="black" transform="translate(1304,1835) scale(1,1) rotate(-270)"></path><path  fill="#444444" stroke="#444444" id="v-2258" d="M 20 0 L 0 10 L 20 20 z" transform="translate(1294,2129) scale(1,1) rotate(-90)" style="opacity: 1;"></path><path  id="v-2257" fill="none" d="M 1304 1835 1304 2109" style=""></path><title ></title><g ><g  id="v-2244" label-idx="0" cursor="move" transform="translate(1304, 1972)" style="opacity: 1;"><rect id="v-2246" fill="#ffffff" rx="3" ry="3" stroke="#ffffff" stroke-width="20px" pointer-events="none" width="314.051025390625" height="44.36431121826172" transform="matrix(1,0,0,1,-156.4,-22.2)"></rect><text id="v-2245" font-size="32px" y="0.8em" xml:space="preserve" text-anchor="middle" pointer-events="none" fill="#444444" font-family="Open Sans" font-weight="normal" transform="matrix(1,0,0,1,0,-13.7)"><tspan id="v-2247"  dy="0em" x="0">Delivers messages to</tspan></text></g><g  id="v-2248" label-idx="1" cursor="move" transform="translate(1304, 2013.6)" style="opacity: 1;"><rect id="v-2250" fill="#ffffff" rx="3" ry="3" pointer-events="none" width="224.43435668945312" height="34.12639236450195" transform="matrix(1,0,0,1,-112.2,-17.1)"></rect><text id="v-2249" font-size="27px" y="0.8em" xml:space="preserve" text-anchor="middle" pointer-events="none" fill="#444444" font-family="Open Sans" font-weight="normal" transform="matrix(1,0,0,1,0,-11.4)"><tspan id="v-2251"  dy="0em" x="0">[SMS / WhatsApp]</tspan></text></g><g  id="v-2252" label-idx="2" cursor="move" transform="translate(1304, 2045.6)" style="opacity: 1;"><rect id="v-2254" fill="#ffffff" rx="3" ry="3" pointer-events="none"  display="none" width="0" height="0" transform="matrix(1,0,0,1,0,0)"></rect><text id="v-2253" font-size="27px" y="0.8em" display="none" xml:space="preserve" text-anchor="middle" pointer-events="none" fill="#444444" font-family="Open Sans" font-weight="normal"  transform="matrix(1,0,0,1,0,0)"><tspan id="v-2255"  dy="0em" x="0" style="fill-opacity: 0; stroke-opacity: 0;">-</tspan></text></g></g><g  display="none"></g><g  id="v-2260" display="none"><g  id="v-2241"><path  end="source" d="M 26 0 L 0 13 L 26 26 z"></path></g><g  id="v-2242"><path  end="target" d="M 26 0 L 0 13 L 26 26 z"></path></g></g><g  id="v-2259" display="none"><g  id="v-2240" transform="translate(1304, 1875) "><g  event="remove"><circle r="11"></circle><path transform="scale(.8) translate(-16, -16)" d="M24.778,21.419 19.276,15.917 24.777,10.415 21.949,7.585 16.447,13.087 10.945,7.585 8.117,10.415 13.618,15.917 8.116,21.419 10.946,24.248 16.447,18.746 21.948,24.248z"></path><title>Remove link.</title></g><g  event="link:options"><circle r="11" transform="translate(25)"></circle><path fill="white" transform="scale(.55) translate(29, -16)" d="M31.229,17.736c0.064-0.571,0.104-1.148,0.104-1.736s-0.04-1.166-0.104-1.737l-4.377-1.557c-0.218-0.716-0.504-1.401-0.851-2.05l1.993-4.192c-0.725-0.91-1.549-1.734-2.458-2.459l-4.193,1.994c-0.647-0.347-1.334-0.632-2.049-0.849l-1.558-4.378C17.165,0.708,16.588,0.667,16,0.667s-1.166,0.041-1.737,0.105L12.707,5.15c-0.716,0.217-1.401,0.502-2.05,0.849L6.464,4.005C5.554,4.73,4.73,5.554,4.005,6.464l1.994,4.192c-0.347,0.648-0.632,1.334-0.849,2.05l-4.378,1.557C0.708,14.834,0.667,15.412,0.667,16s0.041,1.165,0.105,1.736l4.378,1.558c0.217,0.715,0.502,1.401,0.849,2.049l-1.994,4.193c0.725,0.909,1.549,1.733,2.459,2.458l4.192-1.993c0.648,0.347,1.334,0.633,2.05,0.851l1.557,4.377c0.571,0.064,1.148,0.104,1.737,0.104c0.588,0,1.165-0.04,1.736-0.104l1.558-4.377c0.715-0.218,1.399-0.504,2.049-0.851l4.193,1.993c0.909-0.725,1.733-1.549,2.458-2.458l-1.993-4.193c0.347-0.647,0.633-1.334,0.851-2.049L31.229,17.736zM16,20.871c-2.69,0-4.872-2.182-4.872-4.871c0-2.69,2.182-4.872,4.872-4.872c2.689,0,4.871,2.182,4.871,4.872C20.871,18.689,18.689,20.871,16,20.871z"></path><title>Link options.</title></g></g></g></g><g id="j_120"   ><path  stroke="#444444" id="v-2280" stroke-width="2" stroke-dasharray="30 30" fill="none" d="M 1357 1235 1324 1509" style="opacity: 1;"></path><path  fill="black" stroke="black" transform="translate(1357,1235) scale(1,1) rotate(-263.2110290527344)"></path><path  fill="#444444" stroke="#444444" id="v-2282" d="M 20 0 L 0 10 L 20 20 z" transform="translate(1312.0701178202357,1527.8178229069315) scale(1,1) rotate(-83.21102905273438)" style="opacity: 1;"></path><path  id="v-2281" fill="none" d="M 1357 1235 1324 1509" style=""></path><title ></title><g ><g  id="v-2268" label-idx="0" cursor="move" transform="translate(1340.5, 1372)" style="opacity: 1;"><rect id="v-2270" fill="#ffffff" rx="3" ry="3" stroke="#ffffff" stroke-width="20px" pointer-events="none" width="332.41241455078125" height="44.36431121826172" transform="matrix(1,0,0,1,-166.2,-22.2)"></rect><text id="v-2269" font-size="32px" y="0.8em" xml:space="preserve" text-anchor="middle" pointer-events="none" fill="#444444" font-family="Open Sans" font-weight="normal" transform="matrix(1,0,0,1,0,-13.7)"><tspan id="v-2271"  dy="0em" x="0">Sends messages using</tspan></text></g><g  id="v-2272" label-idx="1" cursor="move" transform="translate(1340.5, 1413.6)" style="opacity: 1;"><rect id="v-2274" fill="#ffffff" rx="3" ry="3" pointer-events="none" width="116.40299987792969" height="34.12639236450195" transform="matrix(1,0,0,1,-58.2,-17.1)"></rect><text id="v-2273" font-size="27px" y="0.8em" xml:space="preserve" text-anchor="middle" pointer-events="none" fill="#444444" font-family="Open Sans" font-weight="normal" transform="matrix(1,0,0,1,0,-11.4)"><tspan id="v-2275"  dy="0em" x="0">[SDK API]</tspan></text></g><g  id="v-2276" label-idx="2" cursor="move" transform="translate(1340.5, 1445.6)" style="opacity: 1;"><rect id="v-2278" fill="#ffffff" rx="3" ry="3" pointer-events="none"  display="none" width="0" height="0" transform="matrix(1,0,0,1,0,0)"></rect><text id="v-2277" font-size="27px" y="0.8em" display="none" xml:space="preserve" text-anchor="middle" pointer-events="none" fill="#444444" font-family="Open Sans" font-weight="normal"  transform="matrix(1,0,0,1,0,0)"><tspan id="v-2279"  dy="0em" x="0" style="fill-opacity: 0; stroke-opacity: 0;">-</tspan></text></g></g><g  display="none"></g><g  id="v-2284" display="none"><g  id="v-2265"><path  end="source" d="M 26 0 L 0 13 L 26 26 z"></path></g><g  id="v-2266"><path  end="target" d="M 26 0 L 0 13 L 26 26 z"></path></g></g><g  id="v-2283" display="none"><g  id="v-2264" transform="translate(1352.217041015625, 1274.7130126953125) "><g  event="remove"><circle r="11"></circle><path transform="scale(.8) translate(-16, -16)" d="M24.778,21.419 19.276,15.917 24.777,10.415 21.949,7.585 16.447,13.087 10.945,7.585 8.117,10.415 13.618,15.917 8.116,21.419 10.946,24.248 16.447,18.746 21.948,24.248z"></path><title>Remove link.</title></g><g  event="link:options"><circle r="11" transform="translate(25)"></circle><path fill="white" transform="scale(.55) translate(29, -16)" d="M31.229,17.736c0.064-0.571,0.104-1.148,0.104-1.736s-0.04-1.166-0.104-1.737l-4.377-1.557c-0.218-0.716-0.504-1.401-0.851-2.05l1.993-4.192c-0.725-0.91-1.549-1.734-2.458-2.459l-4.193,1.994c-0.647-0.347-1.334-0.632-2.049-0.849l-1.558-4.378C17.165,0.708,16.588,0.667,16,0.667s-1.166,0.041-1.737,0.105L12.707,5.15c-0.716,0.217-1.401,0.502-2.05,0.849L6.464,4.005C5.554,4.73,4.73,5.554,4.005,6.464l1.994,4.192c-0.347,0.648-0.632,1.334-0.849,2.05l-4.378,1.557C0.708,14.834,0.667,15.412,0.667,16s0.041,1.165,0.105,1.736l4.378,1.558c0.217,0.715,0.502,1.401,0.849,2.049l-1.994,4.193c0.725,0.909,1.549,1.733,2.459,2.458l4.192-1.993c0.648,0.347,1.334,0.633,2.05,0.851l1.557,4.377c0.571,0.064,1.148,0.104,1.737,0.104c0.588,0,1.165-0.04,1.736-0.104l1.558-4.377c0.715-0.218,1.399-0.504,2.049-0.851l4.193,1.993c0.909-0.725,1.733-1.549,2.458-2.458l-1.993-4.193c0.347-0.647,0.633-1.334,0.851-2.049L31.229,17.736zM16,20.871c-2.69,0-4.872-2.182-4.872-4.871c0-2.69,2.182-4.872,4.872-4.872c2.689,0,4.871,2.182,4.871,4.872C20.871,18.689,18.689,20.871,16,20.871z"></path><title>Link options.</title></g></g></g></g><g id="j_121"   ><path  stroke="#444444" id="v-2304" stroke-width="2" stroke-dasharray="30 30" fill="none" d="M 731 1835 1089 2144" style="opacity: 1;"></path><path  fill="black" stroke="black" transform="translate(731,1835) scale(1,1) rotate(40.803070068359375)"></path><path  fill="#444444" stroke="#444444" id="v-2306" d="M 20 0 L 0 10 L 20 20 z" transform="translate(1097.465404940608,2164.5695443811474) scale(1,1) rotate(-139.19691467285156)" style="opacity: 1;"></path><path  id="v-2305" fill="none" d="M 731 1835 1089 2144" style=""></path><title ></title><g ><g  id="v-2292" label-idx="0" cursor="move" transform="translate(910, 1989.5)" style="opacity: 1;"><rect id="v-2294" fill="#ffffff" rx="3" ry="3" stroke="#ffffff" stroke-width="20px" pointer-events="none" width="270.8408508300781" height="44.36431121826172" transform="matrix(1,0,0,1,-134,-22.2)"></rect><text id="v-2293" font-size="32px" y="0.8em" xml:space="preserve" text-anchor="middle" pointer-events="none" fill="#444444" font-family="Open Sans" font-weight="normal" transform="matrix(1,0,0,1,0,-13.7)"><tspan id="v-2295"  dy="0em" x="0">Verifies identify of</tspan></text></g><g  id="v-2296" label-idx="1" cursor="move" transform="translate(910, 2031.1)" style="opacity: 1;"><rect id="v-2298" fill="#ffffff" rx="3" ry="3" pointer-events="none" width="198.78623962402344" height="34.12639236450195" transform="matrix(1,0,0,1,-99.4,-17.1)"></rect><text id="v-2297" font-size="27px" y="0.8em" xml:space="preserve" text-anchor="middle" pointer-events="none" fill="#444444" font-family="Open Sans" font-weight="normal" transform="matrix(1,0,0,1,0,-11.4)"><tspan id="v-2299"  dy="0em" x="0">[device camera]</tspan></text></g><g  id="v-2300" label-idx="2" cursor="move" transform="translate(910, 2063.1)" style="opacity: 1;"><rect id="v-2302" fill="#ffffff" rx="3" ry="3" pointer-events="none"  display="none" width="0" height="0" transform="matrix(1,0,0,1,0,0)"></rect><text id="v-2301" font-size="27px" y="0.8em" display="none" xml:space="preserve" text-anchor="middle" pointer-events="none" fill="#444444" font-family="Open Sans" font-weight="normal"  transform="matrix(1,0,0,1,0,0)"><tspan id="v-2303"  dy="0em" x="0" style="fill-opacity: 0; stroke-opacity: 0;">-</tspan></text></g></g><g  display="none"></g><g  id="v-2308" display="none"><g  id="v-2289"><path  end="source" d="M 26 0 L 0 13 L 26 26 z"></path></g><g  id="v-2290"><path  end="target" d="M 26 0 L 0 13 L 26 26 z"></path></g></g><g  id="v-2307" display="none"><g  id="v-2288" transform="translate(761.280517578125, 1861.135986328125) "><g  event="remove"><circle r="11"></circle><path transform="scale(.8) translate(-16, -16)" d="M24.778,21.419 19.276,15.917 24.777,10.415 21.949,7.585 16.447,13.087 10.945,7.585 8.117,10.415 13.618,15.917 8.116,21.419 10.946,24.248 16.447,18.746 21.948,24.248z"></path><title>Remove link.</title></g><g  event="link:options"><circle r="11" transform="translate(25)"></circle><path fill="white" transform="scale(.55) translate(29, -16)" d="M31.229,17.736c0.064-0.571,0.104-1.148,0.104-1.736s-0.04-1.166-0.104-1.737l-4.377-1.557c-0.218-0.716-0.504-1.401-0.851-2.05l1.993-4.192c-0.725-0.91-1.549-1.734-2.458-2.459l-4.193,1.994c-0.647-0.347-1.334-0.632-2.049-0.849l-1.558-4.378C17.165,0.708,16.588,0.667,16,0.667s-1.166,0.041-1.737,0.105L12.707,5.15c-0.716,0.217-1.401,0.502-2.05,0.849L6.464,4.005C5.554,4.73,4.73,5.554,4.005,6.464l1.994,4.192c-0.347,0.648-0.632,1.334-0.849,2.05l-4.378,1.557C0.708,14.834,0.667,15.412,0.667,16s0.041,1.165,0.105,1.736l4.378,1.558c0.217,0.715,0.502,1.401,0.849,2.049l-1.994,4.193c0.725,0.909,1.549,1.733,2.459,2.458l4.192-1.993c0.648,0.347,1.334,0.633,2.05,0.851l1.557,4.377c0.571,0.064,1.148,0.104,1.737,0.104c0.588,0,1.165-0.04,1.736-0.104l1.558-4.377c0.715-0.218,1.399-0.504,2.049-0.851l4.193,1.993c0.909-0.725,1.733-1.549,2.458-2.458l-1.993-4.193c0.347-0.647,0.633-1.334,0.851-2.049L31.229,17.736zM16,20.871c-2.69,0-4.872-2.182-4.872-4.871c0-2.69,2.182-4.872,4.872-4.872c2.689,0,4.871,2.182,4.871,4.872C20.871,18.689,18.689,20.871,16,20.871z"></path><title>Link options.</title></g></g></g></g></g><defs id="v-4"></defs></svg>