<svg xmlns="http://www.w3.org/2000/svg" xmlns:xlink="http://www.w3.org/1999/xlink" version="1.1" viewBox="0 0 2362 2720" style="background: #ffffff"><g id="v-3"  transform="matrix(1,0,0,1,0,0)"><g id="j_162"    transform="translate(20,2675)"><g id="v-3057"><text  id="v-3058" font-size="22px" y="0.8em" xml:space="preserve" font-weight="normal" text-anchor="start" fill="#aaaaaa" pointer-events="none" font-family="Open Sans" transform="matrix(1,0,0,1,0,0)"><tspan id="v-3059"  dy="0em" x="0">Tuesday, 22 February 2022, 15:51 South Africa Standard Time</tspan></text></g></g><g id="j_161"    transform="translate(20,2629)"><g id="v-3053"><text  id="v-3054" font-size="36px" y="0.8em" xml:space="preserve" font-weight="normal" text-anchor="start" fill="#000000" pointer-events="none" font-family="Open Sans" transform="matrix(1,0,0,1,0,0)"><tspan id="v-3055"  dy="0em" x="0">[Container] Wallet App</tspan></text></g></g><g id="j_148"    transform="translate(309,888)" style=""><g id="v-2781"><rect  id="v-2782" width="490" height="1629" rx="0" ry="0" fill="#ffffff" stroke="#444444" stroke-width="2" stroke-dasharray="20,20" pointer-events="none"></rect><text  id="v-2783" font-size="32px" y="1582" xml:space="preserve" font-weight="normal" fill="#444444" x="10" text-anchor="start" pointer-events="visible" font-family="Open Sans" transform="matrix(1,0,0,1,15,0)"><tspan id="v-2785"  dy="0em" x="0">Wallet App</tspan></text><text  id="v-2784" font-size="27px" y="1614" xml:space="preserve" font-weight="normal" fill="#444444" x="10" text-anchor="start" pointer-events="visible" font-family="Open Sans" transform="matrix(1,0,0,1,15,0)"><tspan id="v-2786"  dy="0em" x="0">[Software System]</tspan></text></g></g><g id="j_149"    transform="translate(354,208)" style=""><g  id="v-2792" style="opacity: 1;"><rect  x="0" y="160" width="400" height="240" rx="70" id="v-2794" stroke="#002f48" stroke-width="2" pointer-events="visiblePainted" fill="#003450"></rect><circle  cx="200" cy="88.88888888888889" r="88.88888888888889" id="v-2793" stroke="#002f48" stroke-width="2" pointer-events="visiblePainted" fill="#003450"></circle><line  x1="80" y1="266.6666666666667" x2="80" y2="400" style="stroke-width:2px" id="v-2800" stroke="#002f48"></line><line  x1="320" y1="266.6666666666667" x2="320" y2="400" style="stroke-width:2px" id="v-2801" stroke="#002f48"></line><text  id="v-2795" font-size="40px" y="0.8em" xml:space="preserve" font-weight="bold" text-anchor="middle" pointer-events="visible" font-family="Open Sans" fill="#ffffff" transform="matrix(1,0,0,1,200,186.3)"><tspan id="v-2802"  dy="0em" x="0">Account Owner</tspan></text><text  id="v-2796" font-size="25px" y="0.8em" xml:space="preserve" text-anchor="middle" font-family="Open Sans" fill="#ffffff" transform="matrix(1,0,0,1,200,236.3)"><tspan id="v-2803"  dy="0em" x="0">[Person]</tspan></text><text  id="v-2797" font-size="30px" y="0.8em" xml:space="preserve" text-anchor="middle" font-family="Open Sans" fill="#ffffff" transform="matrix(1,0,0,1,200,298.8)"><tspan id="v-2804"  dy="0em" x="0">Owns wallet, with ledger</tspan><tspan id="v-2805"  dy="1.2em" x="0">and CBDC accounts.</tspan></text><text  id="v-2798" font-weight="bold" text-anchor="middle" font-family="Open Sans" fill="#ffffff" font-size="30" transform="matrix(1,0,0,1,200,371.2)" display="none"></text><image  id="v-2799"></image></g></g><g id="j_150"    transform="translate(1383,2108)" style="" ><g  id="v-2809" style="opacity: 1;"><ellipse  id="bottom" cx="225" cy="270" rx="225" ry="30" stroke="#6b6b6b" stroke-width="2" pointer-events="visiblePainted" fill="#777777"></ellipse><rect  id="face" x="0" y="30" width="450" height="240" stroke="#6b6b6b" stroke-width="2" pointer-events="visiblePainted" fill="#777777"></rect><clipPath id="cylinderStructurizrClipPath3" clipPathUnits="userSpaceOnUse"><use xmlns:xlink="http://www.w3.org/1999/xlink" xlink:href="#bottom"></use><use xmlns:xlink="http://www.w3.org/1999/xlink" xlink:href="#face"></use></clipPath><rect  x="0" y="30" width="450" height="270" clip-path="url(#cylinderStructurizrClipPath3)" id="v-2810" stroke="none" stroke-width="2" pointer-events="visiblePainted" fill="#777777"></rect><ellipse cx="225" cy="30" rx="225" ry="30" id="lid"  stroke="#6b6b6b" stroke-width="2" pointer-events="visiblePainted" fill="#777777"></ellipse><text  id="v-2811" font-size="42px" y="0.8em" xml:space="preserve" font-weight="bold" text-anchor="middle" pointer-events="visible" font-family="Open Sans" fill="#ffffff" transform="matrix(1,0,0,1,225,65)"><tspan id="v-2816"  dy="0em" x="0">Ledger</tspan></text><text  id="v-2812" font-size="27px" y="0.8em" xml:space="preserve" text-anchor="middle" font-family="Open Sans" fill="#ffffff" transform="matrix(1,0,0,1,225,117.5)"><tspan id="v-2817"  dy="0em" x="0">[Software System]</tspan></text><text  id="v-2813" font-size="32px" y="0.8em" xml:space="preserve" text-anchor="middle" font-family="Open Sans" fill="#ffffff" transform="matrix(1,0,0,1,225,185)"><tspan id="v-2818"  dy="0em" x="0">Blockchain network</tspan><tspan id="v-2819"  dy="1.2em" x="0">providing a governed asset.</tspan></text><text  id="v-2814" font-weight="bold" text-anchor="middle" font-family="Open Sans" fill="#ffffff" font-size="32" transform="matrix(1,0,0,1,225,273)" y="0.8em" display="none" xml:space="preserve"><tspan id="v-2820"  dy="0em" x="0" style="fill-opacity: 0; stroke-opacity: 0;">-</tspan></text><image  id="v-2815"></image></g></g><g id="j_151"    transform="translate(329,908)" style="" ><g  id="v-2828" style="opacity: 1;"><rect  id="v-2829" rx="20" ry="20" stroke="#1d8c86" stroke-width="2" pointer-events="visiblePainted" fill="#1d8c86" width="300" height="450"></rect><rect  id="v-2830" rx="5" ry="5" stroke="#1d8c86" stroke-width="0" pointer-events="visiblePainted" fill="#209c95" width="280" height="370" x="10" y="40"></rect><ellipse  id="v-2836" fill="#209c95" cx="150" cy="430" rx="10" ry="10"></ellipse><line  style="stroke-width:2px" id="v-2837" stroke="#209c95" x1="125" y1="20" x2="175" y2="20"></line><text  id="v-2831" font-size="42" y="0.8em" xml:space="preserve" font-weight="bold" text-anchor="middle" pointer-events="visible" font-family="Open Sans" fill="#ffffff" transform="matrix(1,0,0,1,150,81.9)"><tspan id="v-2838"  dy="0em" x="0">Connector</tspan><tspan id="v-2839"  dy="1.2em" x="0">App</tspan></text><text  id="v-2832" font-size="27" y="0.8em" xml:space="preserve" text-anchor="middle" font-family="Open Sans" fill="#ffffff" transform="matrix(1,0,0,1,150,186.9)"><tspan id="v-2840"  dy="0em" x="0">[Container: Ionic</tspan><tspan id="v-2841"  dy="1.2em" x="0">Angular]</tspan></text><text  id="v-2833" font-size="32" y="0.8em" xml:space="preserve" text-anchor="middle" font-family="Open Sans" fill="#ffffff" transform="matrix(1,0,0,1,150,288.1)"><tspan id="v-2842"  dy="0em" x="0">Connects owner</tspan><tspan id="v-2843"  dy="1.2em" x="0">to wallet enclave.</tspan></text><text  id="v-2834" font-weight="bold" text-anchor="middle" font-family="Open Sans" fill="#ffffff" font-size="32" transform="matrix(1,0,0,1,150,405)" y="0.8em" display="none" xml:space="preserve"><tspan id="v-2844"  dy="0em" x="0" style="fill-opacity: 0; stroke-opacity: 0;">-</tspan></text><image  id="v-2835"></image></g></g><g id="j_152"    transform="translate(329,1508)" style="" ><g  id="v-2852" style="opacity: 1;"><rect  id="v-2853" rx="20" ry="20" stroke="#1d8c86" stroke-width="2" pointer-events="visiblePainted" fill="#209c95" width="450" height="300"></rect><text  id="v-2854" font-size="42" y="0.8em" xml:space="preserve" font-weight="bold" text-anchor="middle" pointer-events="visible" font-family="Open Sans" fill="#ffffff" transform="matrix(1,0,0,1,225,30)"><tspan id="v-2859"  dy="0em" x="0">Enclave Server</tspan></text><text  id="v-2855" font-size="27" y="0.8em" xml:space="preserve" text-anchor="middle" font-family="Open Sans" fill="#ffffff" transform="matrix(1,0,0,1,225,82.5)"><tspan id="v-2860"  dy="0em" x="0">[Container: Rust, SGX]</tspan></text><text  id="v-2856" font-size="32" y="0.8em" xml:space="preserve" text-anchor="middle" font-family="Open Sans" fill="#ffffff" transform="matrix(1,0,0,1,225,150)"><tspan id="v-2861"  dy="0em" x="0">Hosts wallet enclaves, and</tspan><tspan id="v-2862"  dy="1.2em" x="0">processes authorised wallet</tspan><tspan id="v-2863"  dy="1.2em" x="0">operations.</tspan></text><text  id="v-2857" font-weight="bold" text-anchor="middle" font-family="Open Sans" fill="#ffffff" font-size="32" transform="matrix(1,0,0,1,225,270)" y="0.8em" display="none" xml:space="preserve"><tspan id="v-2864"  dy="0em" x="0" style="fill-opacity: 0; stroke-opacity: 0;">-</tspan></text><image  id="v-2858"></image></g></g><g id="j_153"    transform="translate(329,2108)" style="" ><g  id="v-2872" style="opacity: 1;"><ellipse  id="bottom" cx="225" cy="270" rx="225" ry="30" stroke="#1d8c86" stroke-width="2" pointer-events="visiblePainted" fill="#209c95"></ellipse><rect  id="face" x="0" y="30" width="450" height="240" stroke="#1d8c86" stroke-width="2" pointer-events="visiblePainted" fill="#209c95"></rect><clipPath id="cylinderStructurizrClipPath3" clipPathUnits="userSpaceOnUse"><use xmlns:xlink="http://www.w3.org/1999/xlink" xlink:href="#bottom"></use><use xmlns:xlink="http://www.w3.org/1999/xlink" xlink:href="#face"></use></clipPath><rect  x="0" y="30" width="450" height="270" clip-path="url(#cylinderStructurizrClipPath3)" id="v-2873" stroke="none" stroke-width="2" pointer-events="visiblePainted" fill="#209c95"></rect><ellipse cx="225" cy="30" rx="225" ry="30" id="lid"  stroke="#1d8c86" stroke-width="2" pointer-events="visiblePainted" fill="#209c95"></ellipse><text  id="v-2874" font-size="42px" y="0.8em" xml:space="preserve" font-weight="bold" text-anchor="middle" pointer-events="visible" font-family="Open Sans" fill="#ffffff" transform="matrix(1,0,0,1,225,65)"><tspan id="v-2879"  dy="0em" x="0">Sealed Storage</tspan></text><text  id="v-2875" font-size="27px" y="0.8em" xml:space="preserve" text-anchor="middle" font-family="Open Sans" fill="#ffffff" transform="matrix(1,0,0,1,225,117.5)"><tspan id="v-2880"  dy="0em" x="0">[Container: Key–value database]</tspan></text><text  id="v-2876" font-size="32px" y="0.8em" xml:space="preserve" text-anchor="middle" font-family="Open Sans" fill="#ffffff" transform="matrix(1,0,0,1,225,185)"><tspan id="v-2881"  dy="0em" x="0">Stores enclave-sealed</tspan><tspan id="v-2882"  dy="1.2em" x="0">wallet data</tspan></text><text  id="v-2877" font-weight="bold" text-anchor="middle" font-family="Open Sans" fill="#ffffff" font-size="32" transform="matrix(1,0,0,1,225,273)" y="0.8em" display="none" xml:space="preserve"><tspan id="v-2883"  dy="0em" x="0" style="fill-opacity: 0; stroke-opacity: 0;">-</tspan></text><image  id="v-2878"></image></g></g><g id="j_154"    transform="translate(1687,1508)" style="" ><g  id="v-2887" style="opacity: 1;"><rect  id="v-2888" rx="20" ry="20" stroke="#002f48" stroke-width="2" pointer-events="visiblePainted" fill="#003450" width="450" height="300"></rect><text  id="v-2889" font-size="42" y="0.8em" xml:space="preserve" font-weight="bold" text-anchor="middle" pointer-events="visible" font-family="Open Sans" fill="#ffffff" transform="matrix(1,0,0,1,225,50)"><tspan id="v-2894"  dy="0em" x="0">CBDC Services</tspan></text><text  id="v-2890" font-size="27" y="0.8em" xml:space="preserve" text-anchor="middle" font-family="Open Sans" fill="#ffffff" transform="matrix(1,0,0,1,225,102.5)"><tspan id="v-2895"  dy="0em" x="0">[Software System]</tspan></text><text  id="v-2891" font-size="32" y="0.8em" xml:space="preserve" text-anchor="middle" font-family="Open Sans" fill="#ffffff" transform="matrix(1,0,0,1,225,170)"><tspan id="v-2896"  dy="0em" x="0">Provides CBDC-related</tspan><tspan id="v-2897"  dy="1.2em" x="0">operations.</tspan></text><text  id="v-2892" font-weight="bold" text-anchor="middle" font-family="Open Sans" fill="#ffffff" font-size="32" transform="matrix(1,0,0,1,225,270)" y="0.8em" xml:space="preserve" display="none"><tspan id="v-2898"  dy="0em" x="0">+</tspan></text><image  id="v-2893"></image></g></g><g id="j_155"   ><path  stroke="#444444" id="v-2919" stroke-width="2" stroke-dasharray="30 30" fill="none" d="M 629 1188 1668 1571" style="opacity: 1;"></path><path  fill="black" stroke="black" transform="translate(629,1188) scale(1,1) rotate(20.23489379882814)"></path><path  fill="#444444" stroke="#444444" id="v-2921" d="M 20 0 L 0 10 L 20 20 z" transform="translate(1683.5413161995657,1587.3827822279732) scale(1,1) rotate(-159.76510620117188)" style="opacity: 1;"></path><path  id="v-2920" fill="none" d="M 629 1188 1668 1571" style=""></path><title ></title><g ><g  id="v-2906" label-idx="0" cursor="move" transform="translate(1148.5, 1379.5)" style="opacity: 1;"><rect id="v-2908" fill="#ffffff" rx="3" ry="3" stroke="#ffffff" stroke-width="20px" pointer-events="none" width="298.8692321777344" height="82.21660232543945" transform="matrix(1,0,0,1,-149.4,-41.1)"></rect><text id="v-2907" font-size="32px" y="0.8em" xml:space="preserve" text-anchor="middle" pointer-events="none" fill="#444444" font-family="Open Sans" font-weight="normal" transform="matrix(1,0,0,1,0,-33)"><tspan id="v-2909"  dy="0em" x="0">Creates &amp; recovers</tspan><tspan id="v-2910"  dy="1.2em" x="0">CBDC account using</tspan></text></g><g  id="v-2911" label-idx="1" cursor="move" transform="translate(1148.5, 1437.1)" style="opacity: 1;"><rect id="v-2913" fill="#ffffff" rx="3" ry="3" pointer-events="none" width="122.02291107177734" height="37.075584411621094" transform="matrix(1,0,0,1,-61,-18.5)"></rect><text id="v-2912" font-size="27px" y="0.8em" xml:space="preserve" text-anchor="middle" pointer-events="none" fill="#444444" font-family="Open Sans" font-weight="normal" transform="matrix(1,0,0,1,0,-9.8)"><tspan id="v-2914"  dy="0em" x="0">[Web API]</tspan></text></g><g  id="v-2915" label-idx="2" cursor="move" transform="translate(1148.5, 1469.1)" style="opacity: 1;"><rect id="v-2917" fill="#ffffff" rx="3" ry="3" pointer-events="none"  display="none" width="0" height="0" transform="matrix(1,0,0,1,0,0)"></rect><text id="v-2916" font-size="27px" y="0.8em" display="none" xml:space="preserve" text-anchor="middle" pointer-events="none" fill="#444444" font-family="Open Sans" font-weight="normal"  transform="matrix(1,0,0,1,0,0)"><tspan id="v-2918"  dy="0em" x="0" style="fill-opacity: 0; stroke-opacity: 0;">-</tspan></text></g></g><g  display="none"></g><g  id="v-2923" display="none"><g  id="v-2903"><path  end="source" d="M 26 0 L 0 13 L 26 26 z"></path></g><g  id="v-2904"><path  end="target" d="M 26 0 L 0 13 L 26 26 z"></path></g></g><g  id="v-2922" display="none"><g  id="v-2902" transform="translate(666.5313110351562, 1201.8349609375) "><g  event="remove"><circle r="11"></circle><path transform="scale(.8) translate(-16, -16)" d="M24.778,21.419 19.276,15.917 24.777,10.415 21.949,7.585 16.447,13.087 10.945,7.585 8.117,10.415 13.618,15.917 8.116,21.419 10.946,24.248 16.447,18.746 21.948,24.248z"></path><title>Remove link.</title></g><g  event="link:options"><circle r="11" transform="translate(25)"></circle><path fill="white" transform="scale(.55) translate(29, -16)" d="M31.229,17.736c0.064-0.571,0.104-1.148,0.104-1.736s-0.04-1.166-0.104-1.737l-4.377-1.557c-0.218-0.716-0.504-1.401-0.851-2.05l1.993-4.192c-0.725-0.91-1.549-1.734-2.458-2.459l-4.193,1.994c-0.647-0.347-1.334-0.632-2.049-0.849l-1.558-4.378C17.165,0.708,16.588,0.667,16,0.667s-1.166,0.041-1.737,0.105L12.707,5.15c-0.716,0.217-1.401,0.502-2.05,0.849L6.464,4.005C5.554,4.73,4.73,5.554,4.005,6.464l1.994,4.192c-0.347,0.648-0.632,1.334-0.849,2.05l-4.378,1.557C0.708,14.834,0.667,15.412,0.667,16s0.041,1.165,0.105,1.736l4.378,1.558c0.217,0.715,0.502,1.401,0.849,2.049l-1.994,4.193c0.725,0.909,1.549,1.733,2.459,2.458l4.192-1.993c0.648,0.347,1.334,0.633,2.05,0.851l1.557,4.377c0.571,0.064,1.148,0.104,1.737,0.104c0.588,0,1.165-0.04,1.736-0.104l1.558-4.377c0.715-0.218,1.399-0.504,2.049-0.851l4.193,1.993c0.909-0.725,1.733-1.549,2.458-2.458l-1.993-4.193c0.347-0.647,0.633-1.334,0.851-2.049L31.229,17.736zM16,20.871c-2.69,0-4.872-2.182-4.872-4.871c0-2.69,2.182-4.872,4.872-4.872c2.689,0,4.871,2.182,4.871,4.872C20.871,18.689,18.689,20.871,16,20.871z"></path><title>Link options.</title></g></g></g></g><g id="j_156"   ><path  stroke="#444444" id="v-2944" stroke-width="2" stroke-dasharray="30 30" fill="none" d="M 1835 1814 1695 2090" style="opacity: 1;"></path><path  fill="black" stroke="black" transform="translate(1835,1814) scale(1,1) rotate(-243.1239776611328)"></path><path  fill="#444444" stroke="#444444" id="v-2946" d="M 20 0 L 0 10 L 20 20 z" transform="translate(1677.0801479421434,2103.4793331985957) scale(1,1) rotate(-63.123985290527344)" style="opacity: 1;"></path><path  id="v-2945" fill="none" d="M 1835 1814 1695 2090" style=""></path><title ></title><g ><g  id="v-2931" label-idx="0" cursor="move" transform="translate(1765, 1952)" style="opacity: 1;"><rect id="v-2933" fill="#ffffff" rx="3" ry="3" stroke="#ffffff" stroke-width="20px" pointer-events="none" width="332.4814758300781" height="82.21660232543945" transform="matrix(1,0,0,1,-165.4,-41.1)"></rect><text id="v-2932" font-size="32px" y="0.8em" xml:space="preserve" text-anchor="middle" pointer-events="none" fill="#444444" font-family="Open Sans" font-weight="normal" transform="matrix(1,0,0,1,0,-33)"><tspan id="v-2934"  dy="0em" x="0">Reads state &amp; submits</tspan><tspan id="v-2935"  dy="1.2em" x="0">transactions to</tspan></text></g><g  id="v-2936" label-idx="1" cursor="move" transform="translate(1765, 2009.6)" style="opacity: 1;"><rect id="v-2938" fill="#ffffff" rx="3" ry="3" pointer-events="none" width="0" height="0" transform="matrix(1,0,0,1,0,0)"></rect><text id="v-2937" font-size="27px" y="0.8em" display="none" xml:space="preserve" text-anchor="middle" pointer-events="none" fill="#444444" font-family="Open Sans" font-weight="normal" transform="matrix(1,0,0,1,0,0)"><tspan id="v-2939"  dy="0em" x="0" style="fill-opacity: 0; stroke-opacity: 0;">-</tspan></text></g><g  id="v-2940" label-idx="2" cursor="move" transform="translate(1765, 2041.6)" style="opacity: 1;"><rect id="v-2942" fill="#ffffff" rx="3" ry="3" pointer-events="none"  display="none" width="0" height="0" transform="matrix(1,0,0,1,0,0)"></rect><text id="v-2941" font-size="27px" y="0.8em" display="none" xml:space="preserve" text-anchor="middle" pointer-events="none" fill="#444444" font-family="Open Sans" font-weight="normal"  transform="matrix(1,0,0,1,0,0)"><tspan id="v-2943"  dy="0em" x="0" style="fill-opacity: 0; stroke-opacity: 0;">-</tspan></text></g></g><g  display="none"></g><g  id="v-2948" display="none"><g  id="v-2928"><path  end="source" d="M 26 0 L 0 13 L 26 26 z"></path></g><g  id="v-2929"><path  end="target" d="M 26 0 L 0 13 L 26 26 z"></path></g></g><g  id="v-2947" display="none"><g  id="v-2927" transform="translate(1816.9049072265625, 1849.673095703125) "><g  event="remove"><circle r="11"></circle><path transform="scale(.8) translate(-16, -16)" d="M24.778,21.419 19.276,15.917 24.777,10.415 21.949,7.585 16.447,13.087 10.945,7.585 8.117,10.415 13.618,15.917 8.116,21.419 10.946,24.248 16.447,18.746 21.948,24.248z"></path><title>Remove link.</title></g><g  event="link:options"><circle r="11" transform="translate(25)"></circle><path fill="white" transform="scale(.55) translate(29, -16)" d="M31.229,17.736c0.064-0.571,0.104-1.148,0.104-1.736s-0.04-1.166-0.104-1.737l-4.377-1.557c-0.218-0.716-0.504-1.401-0.851-2.05l1.993-4.192c-0.725-0.91-1.549-1.734-2.458-2.459l-4.193,1.994c-0.647-0.347-1.334-0.632-2.049-0.849l-1.558-4.378C17.165,0.708,16.588,0.667,16,0.667s-1.166,0.041-1.737,0.105L12.707,5.15c-0.716,0.217-1.401,0.502-2.05,0.849L6.464,4.005C5.554,4.73,4.73,5.554,4.005,6.464l1.994,4.192c-0.347,0.648-0.632,1.334-0.849,2.05l-4.378,1.557C0.708,14.834,0.667,15.412,0.667,16s0.041,1.165,0.105,1.736l4.378,1.558c0.217,0.715,0.502,1.401,0.849,2.049l-1.994,4.193c0.725,0.909,1.549,1.733,2.459,2.458l4.192-1.993c0.648,0.347,1.334,0.633,2.05,0.851l1.557,4.377c0.571,0.064,1.148,0.104,1.737,0.104c0.588,0,1.165-0.04,1.736-0.104l1.558-4.377c0.715-0.218,1.399-0.504,2.049-0.851l4.193,1.993c0.909-0.725,1.733-1.549,2.458-2.458l-1.993-4.193c0.347-0.647,0.633-1.334,0.851-2.049L31.229,17.736zM16,20.871c-2.69,0-4.872-2.182-4.872-4.871c0-2.69,2.182-4.872,4.872-4.872c2.689,0,4.871,2.182,4.871,4.872C20.871,18.689,18.689,20.871,16,20.871z"></path><title>Link options.</title></g></g></g></g><g id="j_157"   ><path  stroke="#444444" id="v-2969" stroke-width="2" stroke-dasharray="30 30" fill="none" d="M 629 1283 1440 2094" style="opacity: 1;"></path><path  fill="black" stroke="black" transform="translate(629,1283) scale(1,1) rotate(45.00000000000003)"></path><path  fill="#444444" stroke="#444444" id="v-2971" d="M 20 0 L 0 10 L 20 20 z" transform="translate(1446.9289550781252,2115.071090701856) scale(1,1) rotate(-135)" style="opacity: 1;"></path><path  id="v-2970" fill="none" d="M 629 1283 1440 2094" style=""></path><title ></title><g ><g  id="v-2956" label-idx="0" cursor="move" transform="translate(1034.5, 1688.5)" style="opacity: 1;"><rect id="v-2958" fill="#ffffff" rx="3" ry="3" stroke="#ffffff" stroke-width="20px" pointer-events="none" width="332.4814758300781" height="82.21660232543945" transform="matrix(1,0,0,1,-165.4,-41.1)"></rect><text id="v-2957" font-size="32px" y="0.8em" xml:space="preserve" text-anchor="middle" pointer-events="none" fill="#444444" font-family="Open Sans" font-weight="normal" transform="matrix(1,0,0,1,0,-33)"><tspan id="v-2959"  dy="0em" x="0">Reads state &amp; submits</tspan><tspan id="v-2960"  dy="1.2em" x="0">transactions to</tspan></text></g><g  id="v-2961" label-idx="1" cursor="move" transform="translate(1034.5, 1746.1)" style="opacity: 1;"><rect id="v-2963" fill="#ffffff" rx="3" ry="3" pointer-events="none" width="350.5328063964844" height="37.075584411621094" transform="matrix(1,0,0,1,-175.3,-18.5)"></rect><text id="v-2962" font-size="27px" y="0.8em" xml:space="preserve" text-anchor="middle" pointer-events="none" fill="#444444" font-family="Open Sans" font-weight="normal" transform="matrix(1,0,0,1,0,-9.8)"><tspan id="v-2964"  dy="0em" x="0">[owner-signed transactions]</tspan></text></g><g  id="v-2965" label-idx="2" cursor="move" transform="translate(1034.5, 1778.1)" style="opacity: 1;"><rect id="v-2967" fill="#ffffff" rx="3" ry="3" pointer-events="none"  display="none" width="0" height="0" transform="matrix(1,0,0,1,0,0)"></rect><text id="v-2966" font-size="27px" y="0.8em" display="none" xml:space="preserve" text-anchor="middle" pointer-events="none" fill="#444444" font-family="Open Sans" font-weight="normal"  transform="matrix(1,0,0,1,0,0)"><tspan id="v-2968"  dy="0em" x="0" style="fill-opacity: 0; stroke-opacity: 0;">-</tspan></text></g></g><g  display="none"></g><g  id="v-2973" display="none"><g  id="v-2953"><path  end="source" d="M 26 0 L 0 13 L 26 26 z"></path></g><g  id="v-2954"><path  end="target" d="M 26 0 L 0 13 L 26 26 z"></path></g></g><g  id="v-2972" display="none"><g  id="v-2952" transform="translate(657.2842407226562, 1311.2841796875) "><g  event="remove"><circle r="11"></circle><path transform="scale(.8) translate(-16, -16)" d="M24.778,21.419 19.276,15.917 24.777,10.415 21.949,7.585 16.447,13.087 10.945,7.585 8.117,10.415 13.618,15.917 8.116,21.419 10.946,24.248 16.447,18.746 21.948,24.248z"></path><title>Remove link.</title></g><g  event="link:options"><circle r="11" transform="translate(25)"></circle><path fill="white" transform="scale(.55) translate(29, -16)" d="M31.229,17.736c0.064-0.571,0.104-1.148,0.104-1.736s-0.04-1.166-0.104-1.737l-4.377-1.557c-0.218-0.716-0.504-1.401-0.851-2.05l1.993-4.192c-0.725-0.91-1.549-1.734-2.458-2.459l-4.193,1.994c-0.647-0.347-1.334-0.632-2.049-0.849l-1.558-4.378C17.165,0.708,16.588,0.667,16,0.667s-1.166,0.041-1.737,0.105L12.707,5.15c-0.716,0.217-1.401,0.502-2.05,0.849L6.464,4.005C5.554,4.73,4.73,5.554,4.005,6.464l1.994,4.192c-0.347,0.648-0.632,1.334-0.849,2.05l-4.378,1.557C0.708,14.834,0.667,15.412,0.667,16s0.041,1.165,0.105,1.736l4.378,1.558c0.217,0.715,0.502,1.401,0.849,2.049l-1.994,4.193c0.725,0.909,1.549,1.733,2.459,2.458l4.192-1.993c0.648,0.347,1.334,0.633,2.05,0.851l1.557,4.377c0.571,0.064,1.148,0.104,1.737,0.104c0.588,0,1.165-0.04,1.736-0.104l1.558-4.377c0.715-0.218,1.399-0.504,2.049-0.851l4.193,1.993c0.909-0.725,1.733-1.549,2.458-2.458l-1.993-4.193c0.347-0.647,0.633-1.334,0.851-2.049L31.229,17.736zM16,20.871c-2.69,0-4.872-2.182-4.872-4.871c0-2.69,2.182-4.872,4.872-4.872c2.689,0,4.871,2.182,4.871,4.872C20.871,18.689,18.689,20.871,16,20.871z"></path><title>Link options.</title></g></g></g></g><g id="j_158"   ><path  stroke="#444444" id="v-2994" stroke-width="2" stroke-dasharray="30 30" fill="none" d="M 511 1358 529 1488" style="opacity: 1;"></path><path  fill="black" stroke="black" transform="translate(511,1358) scale(1,1) rotate(82.03039550781253)"></path><path  fill="#444444" stroke="#444444" id="v-2996" d="M 20 0 L 0 10 L 20 20 z" transform="translate(522.0965867095754,1509.3864537860302) scale(1,1) rotate(-97.96961212158203)" style="opacity: 1;"></path><path  id="v-2995" fill="none" d="M 511 1358 529 1488" style=""></path><title ></title><g ><g  id="v-2981" label-idx="0" cursor="move" transform="translate(520, 1423)" style="opacity: 1;"><rect id="v-2983" fill="#ffffff" rx="3" ry="3" stroke="#ffffff" stroke-width="20px" pointer-events="none" width="330.1860656738281" height="82.21660232543945" transform="matrix(1,0,0,1,-164.8,-41.1)"></rect><text id="v-2982" font-size="32px" y="0.8em" xml:space="preserve" text-anchor="middle" pointer-events="none" fill="#444444" font-family="Open Sans" font-weight="normal" transform="matrix(1,0,0,1,0,-33)"><tspan id="v-2984"  dy="0em" x="0">Exchanges sealed</tspan><tspan id="v-2985"  dy="1.2em" x="0">wallet operations with</tspan></text></g><g  id="v-2986" label-idx="1" cursor="move" transform="translate(520, 1480.6)" style="opacity: 1;"><rect id="v-2988" fill="#ffffff" rx="3" ry="3" pointer-events="none" width="339.2099914550781" height="37.075584411621094" transform="matrix(1,0,0,1,-169.6,-18.5)"></rect><text id="v-2987" font-size="27px" y="0.8em" xml:space="preserve" text-anchor="middle" pointer-events="none" fill="#444444" font-family="Open Sans" font-weight="normal" transform="matrix(1,0,0,1,0,-9.8)"><tspan id="v-2989"  dy="0em" x="0">[API (HTTP / MessagePack)]</tspan></text></g><g  id="v-2990" label-idx="2" cursor="move" transform="translate(520, 1512.6)" style="opacity: 1;"><rect id="v-2992" fill="#ffffff" rx="3" ry="3" pointer-events="none"  display="none" width="0" height="0" transform="matrix(1,0,0,1,0,0)"></rect><text id="v-2991" font-size="27px" y="0.8em" display="none" xml:space="preserve" text-anchor="middle" pointer-events="none" fill="#444444" font-family="Open Sans" font-weight="normal"  transform="matrix(1,0,0,1,0,0)"><tspan id="v-2993"  dy="0em" x="0" style="fill-opacity: 0; stroke-opacity: 0;">-</tspan></text></g></g><g  display="none"></g><g  id="v-2998" display="none"><g  id="v-2978"><path  end="source" d="M 26 0 L 0 13 L 26 26 z"></path></g><g  id="v-2979"><path  end="target" d="M 26 0 L 0 13 L 26 26 z"></path></g></g><g  id="v-2997" display="none"><g  id="v-2977" transform="translate(516.4861450195312, 1397.6219482421875) "><g  event="remove"><circle r="11"></circle><path transform="scale(.8) translate(-16, -16)" d="M24.778,21.419 19.276,15.917 24.777,10.415 21.949,7.585 16.447,13.087 10.945,7.585 8.117,10.415 13.618,15.917 8.116,21.419 10.946,24.248 16.447,18.746 21.948,24.248z"></path><title>Remove link.</title></g><g  event="link:options"><circle r="11" transform="translate(25)"></circle><path fill="white" transform="scale(.55) translate(29, -16)" d="M31.229,17.736c0.064-0.571,0.104-1.148,0.104-1.736s-0.04-1.166-0.104-1.737l-4.377-1.557c-0.218-0.716-0.504-1.401-0.851-2.05l1.993-4.192c-0.725-0.91-1.549-1.734-2.458-2.459l-4.193,1.994c-0.647-0.347-1.334-0.632-2.049-0.849l-1.558-4.378C17.165,0.708,16.588,0.667,16,0.667s-1.166,0.041-1.737,0.105L12.707,5.15c-0.716,0.217-1.401,0.502-2.05,0.849L6.464,4.005C5.554,4.73,4.73,5.554,4.005,6.464l1.994,4.192c-0.347,0.648-0.632,1.334-0.849,2.05l-4.378,1.557C0.708,14.834,0.667,15.412,0.667,16s0.041,1.165,0.105,1.736l4.378,1.558c0.217,0.715,0.502,1.401,0.849,2.049l-1.994,4.193c0.725,0.909,1.549,1.733,2.459,2.458l4.192-1.993c0.648,0.347,1.334,0.633,2.05,0.851l1.557,4.377c0.571,0.064,1.148,0.104,1.737,0.104c0.588,0,1.165-0.04,1.736-0.104l1.558-4.377c0.715-0.218,1.399-0.504,2.049-0.851l4.193,1.993c0.909-0.725,1.733-1.549,2.458-2.458l-1.993-4.193c0.347-0.647,0.633-1.334,0.851-2.049L31.229,17.736zM16,20.871c-2.69,0-4.872-2.182-4.872-4.871c0-2.69,2.182-4.872,4.872-4.872c2.689,0,4.871,2.182,4.871,4.872C20.871,18.689,18.689,20.871,16,20.871z"></path><title>Link options.</title></g></g></g></g><g id="j_159"   ><path  stroke="#444444" id="v-3018" stroke-width="2" stroke-dasharray="30 30" fill="none" d="M 533 608 504 888" style="opacity: 1;"></path><path  fill="black" stroke="black" transform="translate(533,608) scale(1,1) rotate(-264.1003723144531)"></path><path  fill="#444444" stroke="#444444" id="v-3020" d="M 20 0 L 0 10 L 20 20 z" transform="translate(492.052966967354,906.9721526352254) scale(1,1) rotate(-84.10037231445312)" style="opacity: 1;"></path><path  id="v-3019" fill="none" d="M 533 608 504 888" style=""></path><title ></title><g ><g  id="v-3006" label-idx="0" cursor="move" transform="translate(518.5, 748)" style="opacity: 1;"><rect id="v-3008" fill="#ffffff" rx="3" ry="3" stroke="#ffffff" stroke-width="20px" pointer-events="none" width="231.19577026367188" height="43.81660270690918" transform="matrix(1,0,0,1,-115.6,-21.9)"></rect><text id="v-3007" font-size="32px" y="0.8em" xml:space="preserve" text-anchor="middle" pointer-events="none" fill="#444444" font-family="Open Sans" font-weight="normal" transform="matrix(1,0,0,1,0,-13.8)"><tspan id="v-3009"  dy="0em" x="0">Transacts using</tspan></text></g><g  id="v-3010" label-idx="1" cursor="move" transform="translate(518.5, 789.6)" style="opacity: 1;"><rect id="v-3012" fill="#ffffff" rx="3" ry="3" pointer-events="none" width="180.53282165527344" height="37.075584411621094" transform="matrix(1,0,0,1,-90.3,-18.5)"></rect><text id="v-3011" font-size="27px" y="0.8em" xml:space="preserve" text-anchor="middle" pointer-events="none" fill="#444444" font-family="Open Sans" font-weight="normal" transform="matrix(1,0,0,1,0,-9.8)"><tspan id="v-3013"  dy="0em" x="0">[web / mobile]</tspan></text></g><g  id="v-3014" label-idx="2" cursor="move" transform="translate(518.5, 821.6)" style="opacity: 1;"><rect id="v-3016" fill="#ffffff" rx="3" ry="3" pointer-events="none"  display="none" width="0" height="0" transform="matrix(1,0,0,1,0,0)"></rect><text id="v-3015" font-size="27px" y="0.8em" display="none" xml:space="preserve" text-anchor="middle" pointer-events="none" fill="#444444" font-family="Open Sans" font-weight="normal"  transform="matrix(1,0,0,1,0,0)"><tspan id="v-3017"  dy="0em" x="0" style="fill-opacity: 0; stroke-opacity: 0;">-</tspan></text></g></g><g  display="none"></g><g  id="v-3022" display="none"><g  id="v-3003"><path  end="source" d="M 26 0 L 0 13 L 26 26 z"></path></g><g  id="v-3004"><path  end="target" d="M 26 0 L 0 13 L 26 26 z"></path></g></g><g  id="v-3021" display="none"><g  id="v-3002" transform="translate(528.8792114257812, 647.7871704101562) "><g  event="remove"><circle r="11"></circle><path transform="scale(.8) translate(-16, -16)" d="M24.778,21.419 19.276,15.917 24.777,10.415 21.949,7.585 16.447,13.087 10.945,7.585 8.117,10.415 13.618,15.917 8.116,21.419 10.946,24.248 16.447,18.746 21.948,24.248z"></path><title>Remove link.</title></g><g  event="link:options"><circle r="11" transform="translate(25)"></circle><path fill="white" transform="scale(.55) translate(29, -16)" d="M31.229,17.736c0.064-0.571,0.104-1.148,0.104-1.736s-0.04-1.166-0.104-1.737l-4.377-1.557c-0.218-0.716-0.504-1.401-0.851-2.05l1.993-4.192c-0.725-0.91-1.549-1.734-2.458-2.459l-4.193,1.994c-0.647-0.347-1.334-0.632-2.049-0.849l-1.558-4.378C17.165,0.708,16.588,0.667,16,0.667s-1.166,0.041-1.737,0.105L12.707,5.15c-0.716,0.217-1.401,0.502-2.05,0.849L6.464,4.005C5.554,4.73,4.73,5.554,4.005,6.464l1.994,4.192c-0.347,0.648-0.632,1.334-0.849,2.05l-4.378,1.557C0.708,14.834,0.667,15.412,0.667,16s0.041,1.165,0.105,1.736l4.378,1.558c0.217,0.715,0.502,1.401,0.849,2.049l-1.994,4.193c0.725,0.909,1.549,1.733,2.459,2.458l4.192-1.993c0.648,0.347,1.334,0.633,2.05,0.851l1.557,4.377c0.571,0.064,1.148,0.104,1.737,0.104c0.588,0,1.165-0.04,1.736-0.104l1.558-4.377c0.715-0.218,1.399-0.504,2.049-0.851l4.193,1.993c0.909-0.725,1.733-1.549,2.458-2.458l-1.993-4.193c0.347-0.647,0.633-1.334,0.851-2.049L31.229,17.736zM16,20.871c-2.69,0-4.872-2.182-4.872-4.871c0-2.69,2.182-4.872,4.872-4.872c2.689,0,4.871,2.182,4.871,4.872C20.871,18.689,18.689,20.871,16,20.871z"></path><title>Link options.</title></g></g></g></g><g id="j_160"   ><path  stroke="#444444" id="v-3043" stroke-width="2" stroke-dasharray="30 30" fill="none" d="M 554 1814 554 2088" style="opacity: 1;"></path><path  fill="black" stroke="black" transform="translate(554,1814) scale(1,1) rotate(-270)"></path><path  fill="#444444" stroke="#444444" id="v-3045" d="M 20 0 L 0 10 L 20 20 z" transform="translate(544,2108.0000000000005) scale(1,1) rotate(-90)" style="opacity: 1;"></path><path  id="v-3044" fill="none" d="M 554 1814 554 2088" style=""></path><title ></title><g ><g  id="v-3030" label-idx="0" cursor="move" transform="translate(554, 1951)" style="opacity: 1;"><rect id="v-3032" fill="#ffffff" rx="3" ry="3" stroke="#ffffff" stroke-width="20px" pointer-events="none" width="333.5273742675781" height="82.21660232543945" transform="matrix(1,0,0,1,-166,-41.1)"></rect><text id="v-3031" font-size="32px" y="0.8em" xml:space="preserve" text-anchor="middle" pointer-events="none" fill="#444444" font-family="Open Sans" font-weight="normal" transform="matrix(1,0,0,1,0,-33)"><tspan id="v-3033"  dy="0em" x="0">Retrieves and updates</tspan><tspan id="v-3034"  dy="1.2em" x="0">wallet data using</tspan></text></g><g  id="v-3035" label-idx="1" cursor="move" transform="translate(554, 2008.6)" style="opacity: 1;"><rect id="v-3037" fill="#ffffff" rx="3" ry="3" pointer-events="none" width="191.06565856933594" height="37.075584411621094" transform="matrix(1,0,0,1,-95.5,-18.5)"></rect><text id="v-3036" font-size="27px" y="0.8em" xml:space="preserve" text-anchor="middle" pointer-events="none" fill="#444444" font-family="Open Sans" font-weight="normal" transform="matrix(1,0,0,1,0,-9.8)"><tspan id="v-3038"  dy="0em" x="0">[Key–value API]</tspan></text></g><g  id="v-3039" label-idx="2" cursor="move" transform="translate(554, 2040.6)" style="opacity: 1;"><rect id="v-3041" fill="#ffffff" rx="3" ry="3" pointer-events="none"  display="none" width="0" height="0" transform="matrix(1,0,0,1,0,0)"></rect><text id="v-3040" font-size="27px" y="0.8em" display="none" xml:space="preserve" text-anchor="middle" pointer-events="none" fill="#444444" font-family="Open Sans" font-weight="normal"  transform="matrix(1,0,0,1,0,0)"><tspan id="v-3042"  dy="0em" x="0" style="fill-opacity: 0; stroke-opacity: 0;">-</tspan></text></g></g><g  display="none"></g><g  id="v-3047" display="none"><g  id="v-3027"><path  end="source" d="M 26 0 L 0 13 L 26 26 z"></path></g><g  id="v-3028"><path  end="target" d="M 26 0 L 0 13 L 26 26 z"></path></g></g><g  id="v-3046" display="none"><g  id="v-3026" transform="translate(554, 1854) "><g  event="remove"><circle r="11"></circle><path transform="scale(.8) translate(-16, -16)" d="M24.778,21.419 19.276,15.917 24.777,10.415 21.949,7.585 16.447,13.087 10.945,7.585 8.117,10.415 13.618,15.917 8.116,21.419 10.946,24.248 16.447,18.746 21.948,24.248z"></path><title>Remove link.</title></g><g  event="link:options"><circle r="11" transform="translate(25)"></circle><path fill="white" transform="scale(.55) translate(29, -16)" d="M31.229,17.736c0.064-0.571,0.104-1.148,0.104-1.736s-0.04-1.166-0.104-1.737l-4.377-1.557c-0.218-0.716-0.504-1.401-0.851-2.05l1.993-4.192c-0.725-0.91-1.549-1.734-2.458-2.459l-4.193,1.994c-0.647-0.347-1.334-0.632-2.049-0.849l-1.558-4.378C17.165,0.708,16.588,0.667,16,0.667s-1.166,0.041-1.737,0.105L12.707,5.15c-0.716,0.217-1.401,0.502-2.05,0.849L6.464,4.005C5.554,4.73,4.73,5.554,4.005,6.464l1.994,4.192c-0.347,0.648-0.632,1.334-0.849,2.05l-4.378,1.557C0.708,14.834,0.667,15.412,0.667,16s0.041,1.165,0.105,1.736l4.378,1.558c0.217,0.715,0.502,1.401,0.849,2.049l-1.994,4.193c0.725,0.909,1.549,1.733,2.459,2.458l4.192-1.993c0.648,0.347,1.334,0.633,2.05,0.851l1.557,4.377c0.571,0.064,1.148,0.104,1.737,0.104c0.588,0,1.165-0.04,1.736-0.104l1.558-4.377c0.715-0.218,1.399-0.504,2.049-0.851l4.193,1.993c0.909-0.725,1.733-1.549,2.458-2.458l-1.993-4.193c0.347-0.647,0.633-1.334,0.851-2.049L31.229,17.736zM16,20.871c-2.69,0-4.872-2.182-4.872-4.871c0-2.69,2.182-4.872,4.872-4.872c2.689,0,4.871,2.182,4.871,4.872C20.871,18.689,18.689,20.871,16,20.871z"></path><title>Link options.</title></g></g></g></g></g><defs id="v-4"></defs></svg>