<svg width="239" height="68" viewBox="0 0 239 68" fill="none" xmlns="http://www.w3.org/2000/svg">
<path d="M7.45326 12.8485L23.3738 29.4282C23.7287 29.8338 24.1851 30.138 24.6921 30.2901C25.1484 30.4422 25.6047 30.5436 26.061 30.5436C26.5681 30.5436 27.0751 30.4422 27.5314 30.2394C27.9877 30.0366 28.3934 29.7831 28.7483 29.4282C29.1032 29.0732 29.3567 28.7183 29.5595 28.262C29.7623 27.8057 29.8637 27.2987 29.8637 26.7916V0.37567H22.3091V17.7159L6.38851 1.13621C5.83078 0.57848 5.22235 0.223575 4.46181 0.0714678C3.75198 -0.0806394 2.99144 0.0207623 2.33231 0.274274H2.28161C1.62248 0.578489 1.11545 1.0348 0.659131 1.64323C0.202809 2.25166 0 2.9615 0 3.72203V30.138H7.45326V12.8485Z" fill="white"/>
<path d="M41.8801 23.4958H56.7359V30.1885H64.1892V4.17817C64.1892 3.67115 64.0878 3.16412 63.885 2.7078C63.6821 2.25148 63.4286 1.84586 63.0737 1.49095C62.7188 1.13603 62.3132 0.882516 61.8569 0.679706C61.4005 0.476896 60.8935 0.375488 60.3865 0.375488H49.2319C47.1024 0.375488 45.1251 0.730411 43.2998 1.49095C41.4745 2.20078 39.9027 3.26554 38.5844 4.5838C37.2662 5.90206 36.2014 7.47383 35.4409 9.29912C34.6804 11.1244 34.3254 13.1018 34.3254 15.282V30.1885H41.7787V23.4958H41.8801ZM48.4714 7.93016C49.0798 7.87946 49.2827 7.87946 49.3334 7.87946H56.7866V16.0425H41.9308V15.282C41.9308 14.0652 42.0829 13.0511 42.4378 12.2399C42.742 11.4286 43.1984 10.7188 43.6547 10.2118C44.1617 9.65404 44.6687 9.24842 45.2772 8.94421C45.8856 8.63999 46.494 8.38647 47.0517 8.23436C47.5588 8.03155 48.0658 7.93016 48.4714 7.93016Z" fill="white"/>
<path d="M71.186 23.8C71.8958 24.9155 72.8085 25.8788 73.7718 26.6901C74.7352 27.5013 75.7999 28.1604 76.8647 28.6674C77.9801 29.1745 79.0956 29.5801 80.2617 29.8336C81.4279 30.0871 82.594 30.1885 83.7095 30.1885H94.864C95.371 30.1885 95.8781 30.0871 96.3344 29.8843C96.7907 29.6815 97.1963 29.428 97.5005 29.1238C97.8555 28.7688 98.109 28.3632 98.3118 27.9069C98.5146 27.4506 98.616 26.9436 98.616 26.4365V0.426194H91.1627V22.7353H83.7095C83.6588 22.7353 83.5067 22.7353 82.8475 22.6846C82.4419 22.6338 81.9349 22.5325 81.3772 22.3803C80.8195 22.2282 80.211 21.9747 79.6026 21.6705C79.0449 21.3663 78.4871 20.9607 77.9801 20.4029C77.4731 19.8959 77.0675 19.1861 76.7633 18.3748C76.459 17.5636 76.2562 16.5496 76.2562 15.282V0.375488H68.803V15.282C68.803 17.0059 69.0058 18.5777 69.4114 19.9973C69.8677 21.417 70.4255 22.6846 71.186 23.8Z" fill="white"/>
<path d="M112.61 30.1885H120.012V7.82875H130.913V0.375488H101.658V7.82875H112.61V30.1885Z" fill="white"/>
<path d="M141.51 0.375488H134.057V30.1378H141.51V0.375488Z" fill="white"/>
<path d="M147.798 29.0731C148.153 29.4281 148.558 29.6816 149.015 29.8844C149.471 30.0872 149.978 30.1886 150.485 30.1886H174.264V22.7353H154.186V0.42627H146.733V26.4366C146.733 26.9436 146.834 27.4507 147.037 27.907C147.189 28.3633 147.443 28.7689 147.798 29.0731Z" fill="white"/>
<path d="M204.838 27.9069C205.041 27.4506 205.142 26.9436 205.142 26.4365V0.426194H197.689V22.7353H190.236C190.185 22.7353 190.033 22.7353 189.374 22.6846C188.968 22.6338 188.461 22.5325 187.903 22.3803C187.346 22.2282 186.737 21.9747 186.129 21.6705C185.571 21.3663 185.013 20.9607 184.506 20.4029C183.999 19.8959 183.594 19.1861 183.289 18.3748C182.985 17.5636 182.782 16.5496 182.782 15.282V0.375488H175.329V15.282C175.329 17.0059 175.532 18.5777 175.938 19.9973C176.343 21.417 176.952 22.6846 177.661 23.8C178.371 24.9155 179.284 25.8788 180.247 26.6901C181.211 27.5013 182.275 28.1604 183.34 28.6674C184.405 29.1745 185.571 29.5801 186.737 29.8336C187.903 30.0871 189.069 30.1885 190.185 30.1885H201.339C201.846 30.1885 202.353 30.0871 202.81 29.8843C203.266 29.6815 203.672 29.428 203.976 29.1238C204.331 28.7688 204.635 28.3632 204.838 27.9069Z" fill="white"/>
<path d="M238.555 17.9186C238.301 17.006 237.896 16.2454 237.389 15.5356C236.932 14.8258 236.324 14.2173 235.715 13.761C235.107 13.254 234.448 12.8484 233.789 12.5441C233.13 12.2399 232.42 11.9864 231.761 11.8343C231.102 11.6822 230.442 11.5808 229.834 11.5808H218.375C217.513 11.5808 217.209 11.2259 217.108 11.1245C216.803 10.8203 216.651 10.3639 216.651 9.75551C216.651 9.14708 216.803 8.69077 217.108 8.33585C217.31 8.13304 217.615 7.87953 218.375 7.87953H236.476V0.42627H218.375C217.463 0.42627 216.449 0.578377 215.434 0.933294C214.37 1.28821 213.356 1.79524 212.443 2.55578C211.53 3.31631 210.719 4.27965 210.161 5.44581C209.553 6.66266 209.249 8.08233 209.249 9.75551C209.249 11.4287 209.553 12.8991 210.161 14.1159C210.77 15.2821 211.53 16.2961 212.494 17.006C213.406 17.7158 214.42 18.2735 215.485 18.6284C216.55 18.9326 217.513 19.1355 218.426 19.1355H229.783C230.087 19.1355 230.341 19.1862 230.544 19.2876C230.747 19.389 230.899 19.4904 231.051 19.6425C231.203 19.7946 231.304 19.9974 231.406 20.2002C231.507 20.4537 231.558 20.7072 231.558 21.0115C231.558 21.6199 231.406 22.0762 231.102 22.3804C231 22.4818 230.696 22.8367 229.783 22.8367H209.452V30.29H229.783C230.392 30.29 231.051 30.2393 231.761 30.0872C232.47 29.9351 233.13 29.7323 233.789 29.4281C234.448 29.1238 235.107 28.7182 235.715 28.2619C236.375 27.7549 236.932 27.1465 237.439 26.4366C237.896 25.7268 238.301 24.9155 238.555 24.0536C238.859 23.141 238.96 22.1269 238.96 21.0622C239.011 19.7946 238.859 18.7805 238.555 17.9186Z" fill="white"/>
<path fill-rule="evenodd" clip-rule="evenodd" d="M9.58698 66.6737H29.6644V58.9247H9.58698C9.17921 58.9247 9.00341 58.8268 8.9197 58.754C8.84693 58.6703 8.74895 58.4945 8.74895 58.0867V44.0094C8.74895 43.5042 8.8757 43.3448 8.91913 43.3014C8.97103 43.2495 9.12485 43.1312 9.58698 43.1312H29.6644V35.3823H9.58698C8.58575 35.3823 7.64959 35.5091 6.79345 35.7837C5.9761 36.0459 5.2299 36.4075 4.56617 36.8765C3.93405 37.3194 3.38141 37.8387 2.91428 38.4347C2.46556 39.0072 2.09624 39.6178 1.81114 40.2659C1.53571 40.8789 1.32764 41.5105 1.18856 42.1596L1.18612 42.171L1.18389 42.1824C1.06375 42.7981 1 43.3948 1 43.9692V58.0867C1 59.0885 1.12699 60.0285 1.39939 60.8938L1.40147 60.9003C1.66162 61.7113 2.01308 62.4526 2.46411 63.113L2.47416 63.1277L2.48463 63.1422C2.93802 63.7675 3.46033 64.3154 4.05244 64.7794L4.0609 64.7861L4.06947 64.7926C4.63562 65.221 5.23193 65.5783 5.8583 65.8602L5.8636 65.8626L5.86892 65.8649C6.48849 66.1369 7.11609 66.3444 7.75106 66.4838L7.7683 66.4876L7.78565 66.4909C8.41124 66.61 9.01296 66.6737 9.58698 66.6737Z" fill="#FF642E"/>
<path fill-rule="evenodd" clip-rule="evenodd" d="M58.3776 66.1003L58.3831 66.098C60.0015 65.436 61.4151 64.509 62.6096 63.3145C63.8041 62.12 64.7311 60.7064 65.3931 59.088C66.0631 57.4502 66.3899 55.6743 66.3899 53.7753V48.2807C66.3899 46.3945 66.0629 44.6262 65.394 42.9902C64.7325 41.3591 63.8051 39.9428 62.6068 38.7588C61.4135 37.5662 60.0016 36.6404 58.3854 35.9789C56.7613 35.3087 55.0048 34.9812 53.1305 34.9812H46.0718C44.1968 34.9812 42.4346 35.3089 40.7991 35.978C39.182 36.6395 37.7693 37.5656 36.5754 38.7588C35.3789 39.9411 34.4459 41.3547 33.7712 42.9826L33.7691 42.988C33.0995 44.6246 32.7723 46.3937 32.7723 48.2807V53.7753C32.7723 55.6743 33.0991 57.4502 33.7691 59.088L33.7709 59.0926L33.7728 59.0971C34.448 60.7116 35.3802 62.1221 36.5727 63.3145C37.7671 64.509 39.1808 65.436 40.7991 66.098L40.8037 66.0999L40.8083 66.1017C42.4414 66.755 44.2003 67.0747 46.0718 67.0747H53.1305C55.0018 67.0747 56.7556 66.755 58.3776 66.1003ZM58.2226 45.9445L58.227 45.956L58.2316 45.9673C58.4965 46.6244 58.6409 47.3893 58.6409 48.2807V53.7753C58.6409 54.6662 58.4967 55.4406 58.229 56.1152L58.227 56.1201L58.2251 56.1251C57.9659 56.7946 57.601 57.3568 57.1322 57.8271C56.6618 58.2856 56.0887 58.656 55.3953 58.9318C54.7329 59.1875 53.97 59.3258 53.0904 59.3258H46.0718C45.1954 59.3258 44.4252 59.1885 43.747 58.9319C43.0696 58.6572 42.5022 58.2875 42.03 57.8271C41.56 57.3558 41.1875 56.7916 40.9152 56.1201C40.6592 55.4436 40.5212 54.6671 40.5212 53.7753V48.2807C40.5212 47.3857 40.6602 46.6166 40.9151 45.9559C41.1887 45.2682 41.5609 44.7075 42.0249 44.2539L42.03 44.2489L42.035 44.2439C42.5063 43.7726 43.0701 43.4061 43.742 43.146L43.7469 43.1441L43.7519 43.1421C44.4284 42.8737 45.1965 42.7302 46.0718 42.7302H53.1305C53.9905 42.7302 54.7428 42.873 55.4038 43.1395L55.4151 43.1441L55.4265 43.1484C56.1097 43.4087 56.6662 43.7726 57.1172 44.2338L57.1271 44.244L57.1373 44.2539C57.5985 44.7049 57.9624 45.2614 58.2226 45.9445Z" fill="#FF642E"/>
<path fill-rule="evenodd" clip-rule="evenodd" d="M73.4575 35.2746C74.1783 34.9824 74.9353 34.9108 75.6972 35.0641C76.4791 35.2077 77.1609 35.5784 77.7132 36.1504L77.7163 36.1537L94.5843 53.7496V35.3823H102.333V63.1802C102.333 63.7181 102.228 64.2401 102.007 64.7306C101.811 65.1928 101.535 65.6064 101.18 65.9615C100.826 66.3151 100.41 66.5846 99.9489 66.7767C99.4677 66.9772 98.9605 67.0747 98.4387 67.0747C97.9567 67.0747 97.484 66.9839 97.0268 66.8193L97.0189 66.8165L97.011 66.8136C96.4977 66.621 96.0518 66.3146 95.6762 65.9197L95.6748 65.9182L78.8108 48.3086V66.6737H71.0619V38.8757C71.0619 38.0928 71.2821 37.3595 71.7261 36.7138L71.7284 36.7104L71.7307 36.7071C72.1617 36.0888 72.7231 35.609 73.4067 35.2965L73.4318 35.285L73.4575 35.2746Z" fill="#FF642E"/>
<path d="M110.323 35.2746C111.044 34.9824 111.801 34.9108 112.563 35.0641C113.345 35.2077 114.027 35.5784 114.579 36.1504L131.45 53.7496V35.3823H139.199V63.1802C139.199 63.7183 139.094 64.2405 138.872 64.7312C138.677 65.1932 138.401 65.6065 138.046 65.9615C137.692 66.3151 137.276 66.5846 136.815 66.7767C136.333 66.9772 135.826 67.0747 135.305 67.0747C134.822 67.0747 134.35 66.9839 133.893 66.8193L133.885 66.8165L133.877 66.8136C133.363 66.621 132.918 66.3146 132.542 65.9197L132.541 65.9182L115.677 48.3086V66.6737H107.928V38.8757C107.928 38.0928 108.148 37.3595 108.592 36.7138L108.594 36.7104L108.597 36.7071C109.027 36.0888 109.589 35.609 110.272 35.2965L110.298 35.285L110.323 35.2746Z" fill="#FF642E"/>
<path fill-rule="evenodd" clip-rule="evenodd" d="M152.422 54.9225H170.971V47.1334H152.422V43.1312H173.318V35.3823H148.568C148.039 35.3823 147.524 35.4774 147.037 35.6803C146.567 35.8763 146.147 36.1553 145.786 36.5155L145.774 36.5283L145.761 36.5415C145.423 36.8992 145.161 37.3113 144.971 37.7666C144.771 38.2478 144.673 38.7551 144.673 39.2768V58.0867C144.673 59.5832 144.94 60.9368 145.535 62.0955L145.54 62.1052L145.546 62.1148C146.11 63.1665 146.82 64.0582 147.687 64.7645L147.697 64.7725L147.707 64.7804C148.561 65.4486 149.498 65.939 150.513 66.2402C151.459 66.5212 152.371 66.6737 153.24 66.6737H173.318V58.9247H153.28C152.796 58.9247 152.64 58.8021 152.592 58.7545C152.54 58.7026 152.422 58.5488 152.422 58.0867V54.9225Z" fill="#FF642E"/>
<path d="M185.895 66.6737H205.972V58.9247H185.895C185.487 58.9247 185.311 58.8267 185.227 58.754C185.155 58.6703 185.057 58.4945 185.057 58.0867V44.0094C185.057 43.5042 185.183 43.3448 185.227 43.3014C185.279 43.2495 185.433 43.1312 185.895 43.1312H205.972V35.3823H185.895C184.893 35.3823 183.957 35.5091 183.101 35.7837C182.284 36.0459 181.537 36.4076 180.874 36.8767C180.242 37.3195 179.689 37.8388 179.222 38.4347C178.773 39.0072 178.404 39.6178 178.119 40.266C177.843 40.879 177.635 41.5105 177.496 42.1596L177.494 42.171L177.492 42.1824C177.372 42.7981 177.308 43.3948 177.308 43.9692V58.0867C177.308 59.0885 177.435 60.0285 177.707 60.8938L177.709 60.9003C177.969 61.7113 178.321 62.4526 178.772 63.113L178.782 63.1277L178.792 63.1422C179.246 63.7675 179.768 64.3154 180.36 64.7794L180.369 64.7861L180.377 64.7926C180.943 65.221 181.54 65.5783 182.166 65.8602L182.171 65.8626L182.177 65.8649C182.796 66.1369 183.424 66.3444 184.059 66.4838L184.076 66.4876L184.093 66.4909C184.719 66.61 185.321 66.6737 185.895 66.6737Z" fill="#FF642E"/>
<path d="M227.457 43.1312H238.948V35.3823H208.198V43.1312H219.708V66.6737H227.457V43.1312Z" fill="#FF642E"/>
</svg>
