<svg width="120" height="117" viewBox="0 0 120 117" fill="none" xmlns="http://www.w3.org/2000/svg">
<path d="M61.5 117C93.8087 117 120 90.8087 120 58.5C120 26.1913 93.8087 0 61.5 0C29.1913 0 3 26.1913 3 58.5C3 90.8087 29.1913 117 61.5 117Z" fill="white"/>
<path d="M116.5 58.5C116.5 90.5325 90.5325 116.5 58.5 116.5C26.4675 116.5 0.5 90.5325 0.5 58.5C0.5 26.4675 26.4675 0.5 58.5 0.5C90.5325 0.5 116.5 26.4675 116.5 58.5Z" fill="#003450" stroke="white"/>
<path d="M42.5904 79.7441L29.8225 78.3222C30.3216 76.9003 30.693 75.5974 31.2531 74.3845C31.4156 74.0363 32.1236 73.7577 32.5878 73.7548C37.6166 73.7113 42.6454 73.7316 47.6771 73.7258C51.5742 73.7258 53.3037 71.9847 53.3095 68.047C53.3095 64.9159 53.3095 61.7849 53.3095 58.709C54.5979 58.2883 55.3408 58.7409 56.0837 59.6173C58.3122 62.2782 60.6163 64.8753 62.9696 67.5856L69.5508 62.9137C70.3372 62.3537 71.2165 61.8836 71.8926 61.2104C73.4334 59.6753 75.1164 59.745 77.0635 60.2702C85.9082 62.6467 91.1227 68.2095 92.0513 77.3327C92.7216 83.8965 92.6693 90.5358 92.945 97.2593H77.0839C76.7066 93.1764 76.3352 89.1343 75.958 85.0195H72.885C72.5948 89.082 72.3046 93.1097 72.0144 97.2535H42.5904V79.7441Z" fill="white"/>
<path d="M48.0777 37.7552C48.098 27.8543 56.2172 19.7293 66.0862 19.7351C68.4737 19.7351 70.8377 20.2071 73.0421 21.1241C75.2465 22.0411 77.2479 23.385 78.931 25.0783C80.6142 26.7717 81.9458 28.7812 82.8494 30.9911C83.753 33.2011 84.2107 35.5679 84.1962 37.9554C84.1033 47.9027 75.9261 55.8885 65.8859 55.8362C56.1243 55.7869 48.0574 47.5893 48.0777 37.7552Z" fill="white"/>
<path d="M10.189 70.9429C10.3283 69.019 10.3834 67.0864 10.6213 65.177C10.9521 62.5248 12.4495 60.7634 15.0495 60.0351C18.3952 59.1007 21.4508 59.5853 24.0711 62.0141C26.4327 64.1384 27.8916 67.0862 28.1482 70.2522C28.6734 76.1255 24.5296 80.8786 18.4736 81.4154C12.7048 81.929 10.4965 79.9645 10.3195 74.1348C10.2876 73.0757 10.3195 72.0107 10.3195 70.9429H10.189Z" fill="white"/>
<path d="M31.6216 70.9603C31.523 70.0317 31.4446 69.2802 31.346 68.3487H47.9993V52.5746C47.5698 52.5427 47.1143 52.4846 46.6558 52.4846C38.8761 52.4846 31.0935 52.505 23.3138 52.4498C22.1066 52.4498 21.7991 52.8677 21.8919 53.9588C21.9674 54.8583 21.9065 55.7666 21.9065 56.759L19.2687 56.1786C19.2687 54.6726 19.2049 53.2246 19.2861 51.7882C19.3616 50.4824 20.2437 49.8353 21.8339 49.8295C27.1035 49.8121 32.3703 49.8295 37.637 49.8295C41.1656 49.8295 44.6942 49.8121 48.2227 49.8295C49.9638 49.844 50.7182 50.5869 50.7298 52.3076C50.7647 57.6701 50.7753 63.0336 50.7618 68.398C50.7618 69.9534 49.9725 70.9197 48.5622 70.9313C42.9647 70.9864 37.3643 70.9603 31.6216 70.9603Z" fill="white"/>
<path d="M44.282 58.0735C44.2902 58.4846 44.2156 58.8931 44.0625 59.2747C43.9094 59.6563 43.681 60.0031 43.391 60.2945C43.1009 60.5859 42.7551 60.8159 42.3743 60.9708C41.9934 61.1256 41.5853 61.2022 41.1742 61.1959C40.3464 61.2031 39.5486 60.8857 38.952 60.3119C38.3553 59.738 38.0072 58.9532 37.9822 58.1258C37.9358 56.434 39.5085 54.8613 41.2177 54.8903C42.0456 54.9078 42.8328 55.2526 43.4071 55.8492C43.9814 56.4458 44.296 57.2456 44.282 58.0735Z" fill="white"/>
<path d="M46.1537 65.8095H36.2876C36.3456 63.755 37.8546 62.5015 40.4255 62.2983C43.6465 62.0459 45.6139 63.1892 46.1537 65.8095Z" fill="white"/>
<path d="M24.2627 57.1593C24.3004 56.4193 24.3266 55.955 24.3527 55.4182H34.9413C35.3998 56.6979 35.098 57.226 33.6906 57.1941C30.6234 57.1071 27.5417 57.1593 24.2627 57.1593Z" fill="white"/>
<path d="M26.8598 59.5214C29.306 59.5214 31.7522 59.504 34.1984 59.5214C35.6783 59.5359 35.0196 60.5428 35.0689 61.4192C32.8607 61.4192 30.7424 61.5411 28.6502 61.3524C27.9451 61.2857 27.3154 60.4268 26.6479 59.9335L26.8598 59.5214Z" fill="white"/>
</svg>
