<svg width="240" height="72" viewBox="0 0 240 72" fill="none" xmlns="http://www.w3.org/2000/svg">
<path d="M7.46188 13.5738L23.4009 30.1727C23.7562 30.5788 24.213 30.8833 24.7207 31.0356C25.1775 31.1879 25.6344 31.2894 26.0912 31.2894C26.5988 31.2894 27.1064 31.1879 27.5633 30.9849C28.0201 30.7818 28.4262 30.528 28.7815 30.1727C29.1369 29.8173 29.3907 29.462 29.5937 29.0052C29.7968 28.5483 29.8983 28.0407 29.8983 27.5331V1.08655H22.3349V18.4469L6.3959 1.84797C5.83753 1.2896 5.22839 0.934283 4.46698 0.782C3.75632 0.629716 2.99491 0.731236 2.33501 0.985041H2.28425C1.62436 1.28961 1.11674 1.74645 0.659894 2.35558C0.203044 2.96471 0 3.67537 0 4.43679V30.8833H7.46188V13.5738Z" fill="white"/>
<path d="M41.9286 24.2337H56.8016V30.9342H64.2635V4.89375C64.2635 4.38614 64.162 3.87853 63.959 3.42168C63.7559 2.96483 63.5021 2.55875 63.1468 2.20342C62.7914 1.84809 62.3854 1.59428 61.9285 1.39124C61.4717 1.1882 60.964 1.08667 60.4564 1.08667H49.289C47.157 1.08667 45.1773 1.442 43.3499 2.20342C41.5225 2.91408 39.949 3.98006 38.6292 5.29985C37.3094 6.61964 36.2434 8.19323 35.482 10.0206C34.7206 11.848 34.3652 13.8277 34.3652 16.0104V30.9342H41.8271V24.2337H41.9286ZM48.5276 8.65009C49.1367 8.59932 49.3398 8.59932 49.3905 8.59932H56.8524V16.7719H41.9794V16.0104C41.9794 14.7922 42.1317 13.777 42.487 12.9648C42.7916 12.1526 43.2484 11.4419 43.7053 10.9343C44.2129 10.376 44.7205 9.96987 45.3296 9.66531C45.9388 9.36074 46.5479 9.10692 47.1063 8.95464C47.6139 8.7516 48.1215 8.65009 48.5276 8.65009Z" fill="white"/>
<path d="M71.2686 24.5383C71.9792 25.655 72.8929 26.6195 73.8574 27.4317C74.8219 28.2439 75.8878 28.9038 76.9538 29.4114C78.0706 29.919 79.1873 30.3251 80.3548 30.5789C81.5223 30.8327 82.6898 30.9342 83.8066 30.9342H94.974C95.4816 30.9342 95.9892 30.8327 96.4461 30.6296C96.9029 30.4266 97.309 30.1728 97.6136 29.8682C97.9689 29.5129 98.2227 29.1068 98.4258 28.65C98.6288 28.1931 98.7303 27.6855 98.7303 27.1779V1.13743H91.2685V23.4723H83.8066C83.7558 23.4723 83.6035 23.4723 82.9436 23.4216C82.5375 23.3708 82.0299 23.2693 81.4716 23.117C80.9132 22.9647 80.3041 22.7109 79.6949 22.4063C79.1366 22.1018 78.5782 21.6957 78.0706 21.1373C77.563 20.6297 77.1569 19.919 76.8523 19.1069C76.5477 18.2947 76.3447 17.2795 76.3447 16.0104V1.08667H68.8828V16.0104C68.8828 17.7363 69.0859 19.3099 69.4919 20.7312C69.9488 22.1525 70.5072 23.4216 71.2686 24.5383Z" fill="white"/>
<path d="M112.741 30.9342H120.152V8.54856H131.065V1.08667H101.776V8.54856H112.741V30.9342Z" fill="white"/>
<path d="M141.674 1.08667H134.212V30.8834H141.674V1.08667Z" fill="white"/>
<path d="M147.969 29.8175C148.324 30.1728 148.73 30.4266 149.187 30.6297C149.644 30.8327 150.151 30.9342 150.659 30.9342H174.466V23.4723H154.364V1.13745H146.903V27.1779C146.903 27.6855 147.004 28.1931 147.207 28.65C147.359 29.1068 147.613 29.5129 147.969 29.8175Z" fill="white"/>
<path d="M205.075 28.65C205.278 28.1931 205.379 27.6855 205.379 27.1779V1.13743H197.917V23.4723H190.455C190.405 23.4723 190.252 23.4723 189.593 23.4216C189.186 23.3708 188.679 23.2693 188.12 23.117C187.562 22.9647 186.953 22.7109 186.344 22.4063C185.785 22.1018 185.227 21.6957 184.719 21.1373C184.212 20.6297 183.806 19.919 183.501 19.1069C183.197 18.2947 182.994 17.2795 182.994 16.0104V1.08667H175.532V16.0104C175.532 17.7363 175.735 19.3099 176.141 20.7312C176.547 22.1525 177.156 23.4216 177.867 24.5383C178.577 25.655 179.491 26.6195 180.456 27.4317C181.42 28.2439 182.486 28.9038 183.552 29.4114C184.618 29.919 185.785 30.3251 186.953 30.5789C188.12 30.8327 189.288 30.9342 190.405 30.9342H201.572C202.08 30.9342 202.587 30.8327 203.044 30.6296C203.501 30.4266 203.907 30.1728 204.212 29.8682C204.567 29.5129 204.872 29.1068 205.075 28.65Z" fill="white"/>
<path d="M238.831 18.65C238.577 17.7363 238.171 16.9749 237.664 16.2643C237.207 15.5536 236.598 14.9445 235.989 14.4876C235.379 13.98 234.719 13.5739 234.06 13.2694C233.4 12.9648 232.689 12.711 232.029 12.5587C231.369 12.4064 230.709 12.3049 230.1 12.3049H218.628C217.765 12.3049 217.461 11.9496 217.359 11.848C217.055 11.5435 216.902 11.0866 216.902 10.4775C216.902 9.86836 217.055 9.41151 217.359 9.05619C217.562 8.85314 217.867 8.59934 218.628 8.59934H236.75V1.13745H218.628C217.715 1.13745 216.699 1.28973 215.684 1.64506C214.618 2.00039 213.603 2.50801 212.689 3.26942C211.775 4.03084 210.963 4.99529 210.405 6.1628C209.796 7.38106 209.491 8.80237 209.491 10.4775C209.491 12.1526 209.796 13.6247 210.405 14.8429C211.014 16.0105 211.775 17.0257 212.74 17.7363C213.654 18.447 214.669 19.0054 215.735 19.3607C216.801 19.6652 217.765 19.8683 218.679 19.8683H230.049C230.354 19.8683 230.608 19.9191 230.811 20.0206C231.014 20.1221 231.166 20.2236 231.318 20.3759C231.471 20.5282 231.572 20.7312 231.674 20.9343C231.775 21.1881 231.826 21.4419 231.826 21.7465C231.826 22.3556 231.674 22.8124 231.369 23.117C231.268 23.2185 230.963 23.5739 230.049 23.5739H209.694V31.0357H230.049C230.659 31.0357 231.318 30.985 232.029 30.8327C232.74 30.6804 233.4 30.4774 234.06 30.1728C234.719 29.8682 235.379 29.4621 235.989 29.0053C236.648 28.4977 237.207 27.8886 237.714 27.1779C238.171 26.4672 238.577 25.6551 238.831 24.7921C239.136 23.8784 239.237 22.8632 239.237 21.7972C239.288 20.5282 239.136 19.513 238.831 18.65Z" fill="white"/>
<path d="M35.2284 55.7056L27.5127 43.3706C27.1066 42.7615 26.599 42.2539 25.9391 41.8985C24.6701 41.1879 23.0965 41.1879 21.8274 41.8985C21.1675 42.2539 20.6599 42.7615 20.3046 43.3706L12.5889 55.7056L9.03564 36.0103H0.40625L6.24378 68.4466C6.39606 69.4618 6.90367 70.3248 7.71585 70.9846C8.47727 71.6445 9.39097 71.9491 10.4569 71.9491C11.1676 71.9491 11.8783 71.7968 12.5382 71.4415C13.198 71.0862 13.7057 70.5786 14.061 69.9694L23.9594 53.7259L33.8578 70.0202C34.3147 70.7816 34.9746 71.2892 35.736 71.6445C36.2943 71.8983 36.8527 71.9999 37.4619 71.9999C37.7157 71.9999 38.0202 71.9999 38.274 71.9491C39.137 71.7968 39.8984 71.3907 40.5075 70.7308C41.1166 70.1217 41.472 69.3603 41.675 68.4974L47.4618 36.061H38.8324L35.2284 55.7056Z" fill="#FF642E"/>
<path d="M85.4817 37.2793C85.0756 36.8732 84.6188 36.5686 84.1112 36.3656C83.6036 36.1625 83.0452 36.061 82.4361 36.061H68.9336C66.3956 36.061 64.0098 36.5179 61.8778 37.3808C59.6951 38.2438 57.8169 39.5128 56.2433 41.0864C54.6698 42.66 53.4007 44.5381 52.487 46.7209C51.6241 48.9036 51.1672 51.2894 51.1672 53.8782V71.6446H59.6951V63.5228H78.2737V71.6446H86.8015V40.3757C86.8015 39.8174 86.7 39.259 86.497 38.7006C86.1924 38.1422 85.8878 37.6854 85.4817 37.2793ZM67.9184 44.5889C68.6798 44.5381 68.8829 44.5381 68.9844 44.5381H78.2737V54.9949H59.6951V53.8274C59.6951 52.3046 59.8981 51.0356 60.3042 50.0203C60.7103 49.0051 61.2179 48.1422 61.8271 47.4823C62.4362 46.8224 63.1469 46.264 63.8575 45.9087C64.6189 45.5026 65.3803 45.198 66.091 44.995C66.7509 44.7919 67.4108 44.6397 67.9184 44.5889Z" fill="#FF642E"/>
<path d="M102.03 36.0103H93.502V67.2791C93.502 67.8882 93.6035 68.4466 93.8065 68.9542C94.0096 69.4618 94.3141 69.9187 94.7202 70.3248C95.1263 70.7308 95.5832 71.0354 96.0908 71.2385C96.5984 71.4415 97.1567 71.543 97.7659 71.543H126.344V63.0151H101.979V36.0103H102.03Z" fill="#FF642E"/>
<path d="M139.136 36.0103H130.608V67.2791C130.608 67.8882 130.71 68.4466 130.913 68.9542C131.116 69.4618 131.421 69.9187 131.827 70.3248C132.233 70.7308 132.69 71.0354 133.197 71.2385C133.705 71.4415 134.263 71.543 134.872 71.543H163.451V63.0151H139.085V36.0103H139.136Z" fill="#FF642E"/>
<path d="M170.101 36.3656C169.593 36.5686 169.136 36.8732 168.73 37.2793C168.375 37.6854 168.07 38.1422 167.816 38.6498C167.613 39.1574 167.512 39.7158 167.512 40.3249V61.9492C167.512 63.6751 167.867 65.1979 168.476 66.4669C169.136 67.6852 169.948 68.7004 170.913 69.4618C171.877 70.2232 172.943 70.7816 174.06 71.1369C175.177 71.4415 176.192 71.6445 177.156 71.6445H200.05V63.1167H177.207C176.903 63.1167 176.496 63.0659 176.293 62.8629C176.141 62.7106 176.04 62.406 176.04 61.9492V58.0913H197.359V49.5635H176.04V44.5381H200.05V36.0103H171.826C171.167 36.0103 170.608 36.1625 170.101 36.3656Z" fill="#FF642E"/>
<path d="M203.095 44.5381H216.344V71.5938H224.821V44.5381H238.019V36.0103H203.095V44.5381Z" fill="#FF642E"/>
</svg>
