<svg width="112" height="15" viewBox="0 0 112 15" fill="none" xmlns="http://www.w3.org/2000/svg">
<path d="M13.8944 13.1165C13.8944 13.2898 13.8604 13.451 13.7926 13.5998C13.7309 13.7485 13.6445 13.8786 13.5334 13.9901C13.4285 14.0956 13.302 14.1792 13.154 14.2412C13.0059 14.3031 12.8485 14.334 12.682 14.334C12.5339 14.334 12.3827 14.3063 12.2285 14.2504C12.0804 14.1947 11.9477 14.1048 11.8305 13.9809L3.03816 4.7598V14.1483H0.631836V1.8503C0.631836 1.6025 0.699707 1.37929 0.835447 1.18099C0.977359 0.9765 1.15629 0.824679 1.37224 0.725527C1.60053 0.632563 1.835 0.610987 2.07562 0.660483C2.31627 0.703792 2.52296 0.815478 2.69572 0.995061L11.488 10.207V0.818491H13.8944V13.1165Z" fill="white"/>
<path d="M30.0364 14.1483H27.6301V10.8763H19.1709V14.1483H16.7646V7.48337C16.7646 6.51042 16.9311 5.61504 17.2644 4.79692C17.5975 3.97896 18.0603 3.27554 18.6527 2.68682C19.245 2.09825 19.9452 1.63962 20.7536 1.31123C21.5619 0.982679 22.4442 0.818481 23.4004 0.818481H28.8239C28.9906 0.818481 29.1479 0.849417 29.296 0.911446C29.444 0.973475 29.5736 1.06025 29.6848 1.17178C29.7958 1.2833 29.8822 1.41339 29.9438 1.5622C30.0056 1.71084 30.0364 1.86885 30.0364 2.03622V14.1483ZM19.1709 8.45934H27.6301V3.2354H23.4004C23.3265 3.2354 23.1692 3.24777 22.9285 3.27252C22.6941 3.29108 22.4195 3.34375 22.1047 3.43053C21.7963 3.51731 21.4693 3.65057 21.1237 3.83031C20.7782 4.0099 20.4604 4.25785 20.1704 4.57387C19.8804 4.88988 19.6399 5.28649 19.4486 5.76369C19.2635 6.2347 19.1709 6.80787 19.1709 7.48337V8.45934Z" fill="white"/>
<path d="M46.1599 12.9305C46.1599 13.1041 46.1291 13.2651 46.0673 13.4139C46.0057 13.5626 45.9193 13.6926 45.8083 13.8043C45.6973 13.9097 45.5676 13.9933 45.4196 14.0553C45.2714 14.1172 45.1141 14.1483 44.9475 14.1483H39.5241C39.0119 14.1483 38.4936 14.0924 37.9692 13.9809C37.4447 13.8694 36.9357 13.699 36.4421 13.4696C35.9547 13.2342 35.495 12.9367 35.063 12.5772C34.6312 12.2179 34.2518 11.7934 33.9247 11.3038C33.6039 10.808 33.351 10.2441 33.1659 9.61204C32.9807 8.97366 32.8882 8.26421 32.8882 7.48337V0.818481H35.2944V7.48337C35.2944 8.16506 35.387 8.74141 35.5721 9.21226C35.7634 9.68327 36.004 10.0769 36.294 10.3929C36.584 10.7089 36.9018 10.9567 37.2472 11.1364C37.5928 11.3162 37.9198 11.4494 38.2283 11.5362C38.5431 11.623 38.8176 11.6787 39.052 11.7034C39.2927 11.7221 39.45 11.7313 39.5241 11.7313H43.7536V0.818481H46.1599V12.9305Z" fill="white"/>
<path d="M61.2749 3.2354H55.9716V14.1483H53.5654V3.2354H48.2529V0.818481H61.2749V3.2354Z" fill="white"/>
<path d="M65.7925 14.1483H63.3862V0.818481H65.7925V14.1483Z" fill="white"/>
<path d="M81.1111 14.1483H70.1346C69.9618 14.1483 69.8013 14.1172 69.6533 14.0553C69.5051 13.9933 69.3756 13.9097 69.2646 13.8043C69.1597 13.6926 69.0763 13.5626 69.0147 13.4139C68.9529 13.2651 68.9221 13.1041 68.9221 12.9305V0.818481H71.3284V11.7313H81.1111V14.1483Z" fill="white"/>
<path d="M95.4946 12.9305C95.4946 13.1041 95.4638 13.2651 95.4021 13.4139C95.3405 13.5626 95.2541 13.6926 95.143 13.8043C95.032 13.9097 94.9023 13.9933 94.7543 14.0553C94.6061 14.1172 94.4488 14.1483 94.2822 14.1483H88.8587C88.3466 14.1483 87.8283 14.0924 87.3039 13.9809C86.7794 13.8694 86.2705 13.699 85.7769 13.4696C85.2894 13.2342 84.8298 12.9367 84.3978 12.5772C83.9659 12.2179 83.5865 11.7934 83.2594 11.3038C82.9386 10.808 82.6855 10.2441 82.5006 9.61204C82.3155 8.97366 82.2229 8.26421 82.2229 7.48337V0.818481H84.6292V7.48337C84.6292 8.16506 84.7217 8.74141 84.9068 9.21226C85.0981 9.68327 85.3387 10.0769 85.6287 10.3929C85.9187 10.7089 86.2365 10.9567 86.5819 11.1364C86.9275 11.3162 87.2545 11.4494 87.563 11.5362C87.8778 11.623 88.1523 11.6787 88.3867 11.7034C88.6274 11.7221 88.7848 11.7313 88.8587 11.7313H93.0884V0.818481H95.4946V12.9305Z" fill="white"/>
<path d="M111.368 10.2255C111.368 10.7027 111.307 11.1334 111.183 11.5177C111.066 11.8955 110.909 12.2303 110.711 12.5215C110.514 12.8128 110.282 13.0606 110.017 13.2651C109.752 13.4696 109.477 13.637 109.193 13.767C108.91 13.8973 108.62 13.9933 108.323 14.0553C108.033 14.1172 107.759 14.1483 107.5 14.1483H98.2169V11.7313H107.5C107.962 11.7313 108.32 11.5951 108.573 11.3224C108.832 11.0497 108.962 10.6841 108.962 10.2255C108.962 10.0025 108.928 9.79797 108.86 9.61204C108.792 9.42611 108.694 9.26493 108.564 9.12865C108.441 8.99238 108.286 8.88704 108.101 8.81264C107.922 8.73823 107.722 8.70111 107.5 8.70111H101.965C101.576 8.70111 101.157 8.6329 100.706 8.49662C100.256 8.354 99.8364 8.12778 99.4478 7.81795C99.0653 7.50812 98.7443 7.10231 98.4853 6.60021C98.2322 6.09826 98.1057 5.48479 98.1057 4.7598C98.1057 4.0348 98.2322 3.42434 98.4853 2.92858C98.7443 2.42664 99.0653 2.02067 99.4478 1.71085C99.8364 1.39483 100.256 1.1686 100.706 1.03233C101.157 0.889711 101.576 0.818481 101.965 0.818481H110.156V3.2354H101.965C101.509 3.2354 101.151 3.37469 100.892 3.65358C100.639 3.93248 100.512 4.30116 100.512 4.7598C100.512 5.22462 100.639 5.59331 100.892 5.86601C101.151 6.13237 101.509 6.26563 101.965 6.26563H107.518C107.777 6.27182 108.052 6.3091 108.342 6.37716C108.632 6.43919 108.919 6.53834 109.203 6.67461C109.493 6.81104 109.767 6.98444 110.026 7.19512C110.285 7.39977 110.514 7.64757 110.711 7.93883C110.915 8.2301 111.075 8.56468 111.192 8.94272C111.31 9.32077 111.368 9.74831 111.368 10.2255Z" fill="white"/>
<path fill-rule="evenodd" clip-rule="evenodd" d="M2.6957 0.995007L11.488 10.2069V0.818437H13.8943V13.1164C13.8943 13.2898 13.8604 13.451 13.7925 13.5998C13.7308 13.7484 13.6445 13.8785 13.5334 13.9901C13.4285 14.0955 13.302 14.1792 13.1539 14.2412C13.0058 14.3031 12.8485 14.334 12.6819 14.334C12.5339 14.334 12.3827 14.3062 12.2284 14.2504C12.0804 14.1947 11.9477 14.1047 11.8305 13.9808L3.03814 4.75975V14.1482H0.631813V1.85025C0.631813 1.60245 0.699684 1.37924 0.835425 1.18094C0.977336 0.976445 1.15627 0.824624 1.37222 0.725473C1.60051 0.632508 1.83498 0.610932 2.0756 0.660429C2.31624 0.703738 2.52294 0.815424 2.6957 0.995007ZM2.19494 0.0372794C1.83442 -0.0355376 1.47587 -0.00142751 1.13484 0.137385L1.12207 0.142618L1.10954 0.148331C0.786077 0.29682 0.520556 0.524951 0.317087 0.818122L0.31593 0.819865L0.314784 0.821453C0.104353 1.1289 0 1.47807 0 1.85025V14.7828H3.66995V6.33983L11.3724 14.4179C11.3727 14.4182 11.373 14.4185 11.3733 14.4189C11.5511 14.6065 11.7626 14.7526 12.0066 14.8445L12.0105 14.8461L12.0144 14.8475C12.23 14.9254 12.4535 14.9686 12.6819 14.9686C12.9287 14.9686 13.1689 14.9222 13.3969 14.8269C13.6149 14.7357 13.8123 14.6075 13.9802 14.4389C14.1483 14.2701 14.279 14.0733 14.3715 13.8539C14.4764 13.6203 14.5261 13.3718 14.5261 13.1164V0.183867H10.8562V8.62793L3.15101 0.55509L3.15022 0.554296C2.88876 0.282382 2.56545 0.105654 2.19494 0.0372794ZM30.6682 14.7828H26.9983V11.5108H19.8028V14.7828H16.1329V7.48333C16.1329 6.43628 16.3125 5.45825 16.6797 4.55669C17.0432 3.66417 17.5521 2.88793 18.2082 2.23575C18.8628 1.58531 19.6346 1.08131 20.5166 0.722936C21.4073 0.361072 22.3709 0.183867 23.4005 0.183867H28.824C29.0707 0.183867 29.3109 0.230192 29.539 0.325695C29.7616 0.418818 29.9608 0.551602 30.1315 0.722936C30.3022 0.894428 30.4343 1.09448 30.5272 1.318C30.6221 1.54708 30.6682 1.78838 30.6682 2.03618V14.7828ZM19.171 10.8762H27.6301V14.1482H30.0364V2.03618C30.0364 1.86881 30.0056 1.7108 29.9439 1.56215C29.8822 1.41334 29.7959 1.28326 29.6848 1.17173C29.5736 1.06021 29.4441 0.97343 29.2961 0.911401C29.1479 0.849372 28.9906 0.818437 28.824 0.818437H23.4005C22.4442 0.818437 21.5619 0.982635 20.7537 1.31118C19.9452 1.63957 19.245 2.09821 18.6527 2.68677C18.0604 3.27549 17.5976 3.97891 17.2645 4.79687C16.9312 5.61499 16.7647 6.51037 16.7647 7.48333V14.1482H19.171V10.8762ZM22.9857 3.90451L22.9783 3.90498C22.7958 3.91958 22.5627 3.96242 22.2735 4.04205C22.0148 4.11487 21.7287 4.2302 21.4144 4.39361C21.1403 4.53623 20.8802 4.73675 20.6352 5.0039C20.4065 5.25313 20.2037 5.57978 20.0356 5.99843C19.8881 6.37473 19.8028 6.86351 19.8028 7.48333V7.82473H26.9983V3.86993H23.4005C23.3649 3.86993 23.2411 3.87817 22.993 3.90372L22.9857 3.90451ZM23.4005 3.23536C23.3266 3.23536 23.1692 3.24773 22.9285 3.27248C22.6941 3.29104 22.4196 3.34371 22.1048 3.43049C21.7963 3.51726 21.4693 3.65053 21.1237 3.83027C20.7783 4.00985 20.4605 4.25781 20.1705 4.57382C19.8805 4.88984 19.6399 5.28644 19.4486 5.76364C19.2635 6.23465 19.171 6.80783 19.171 7.48333V8.4593H27.6301V3.23536H23.4005ZM46.2487 14.2593L46.2421 14.2656C46.0728 14.4263 45.8777 14.551 45.6626 14.641C45.4347 14.7365 45.1944 14.7828 44.9475 14.7828H39.5242C38.966 14.7828 38.4038 14.7219 37.8384 14.6016C37.2669 14.4801 36.7129 14.2945 36.177 14.0456L36.1726 14.0435L36.1683 14.0415C35.6329 13.7827 35.1301 13.457 34.66 13.0658C34.1792 12.6657 33.7594 12.1952 33.4002 11.6572L33.3975 11.6534L33.3951 11.6496C33.0372 11.0967 32.7602 10.4755 32.5597 9.79094L32.5592 9.78935C32.3549 9.08451 32.2564 8.31398 32.2564 7.48333V0.183867H35.9263V7.48333C35.9263 8.10933 36.0116 8.60048 36.1585 8.97599C36.3263 9.38767 36.5289 9.71225 36.7587 9.96275C37.0039 10.2299 37.2639 10.4304 37.5379 10.5729C37.8524 10.7365 38.1385 10.8518 38.3974 10.9246C38.6855 11.0041 38.9214 11.0509 39.1099 11.0715C39.3501 11.0899 39.4795 11.0967 39.5242 11.0967H43.1219V0.183867H46.7918V12.9305C46.7918 13.1813 46.7469 13.4261 46.6507 13.6579C46.5579 13.8814 46.4258 14.0814 46.2551 14.2529L46.2487 14.2593ZM43.7537 11.7313H39.5242C39.4501 11.7313 39.2928 11.7221 39.0521 11.7034C38.8177 11.6786 38.5431 11.6229 38.2283 11.5362C37.9199 11.4494 37.5929 11.3161 37.2473 11.1364C36.9019 10.9566 36.5841 10.7088 36.294 10.3928C36.004 10.0768 35.7635 9.68322 35.5722 9.21221C35.3871 8.74136 35.2945 8.16501 35.2945 7.48333V0.818437H32.8883V7.48333C32.8883 8.26416 32.9808 8.97361 33.1659 9.61199C33.3511 10.244 33.6039 10.808 33.9247 11.3038C34.2519 11.7933 34.6313 12.2179 35.0631 12.5772C35.4951 12.9367 35.9548 13.2341 36.4422 13.4695C36.9358 13.6989 37.4447 13.8693 37.9693 13.9808C38.4937 14.0924 39.012 14.1482 39.5242 14.1482H44.9475C45.1142 14.1482 45.2715 14.1171 45.4196 14.0553C45.5676 13.9932 45.6973 13.9096 45.8084 13.8043C45.9194 13.6926 46.0058 13.5625 46.0674 13.4139C46.1292 13.2651 46.16 13.104 46.16 12.9305V0.818437H43.7537V11.7313ZM61.9067 3.86993H56.6034V14.7828H52.9335V3.86993H47.621V0.183867H61.9067V3.86993ZM53.5653 3.23536V14.1482H55.9716V3.23536H61.2748V0.818437H48.2529V3.23536H53.5653ZM66.4243 14.7828H62.7544V0.183867H66.4243V14.7828ZM81.7428 14.7828H70.1345C69.8847 14.7828 69.641 14.7376 69.4101 14.641C69.1951 14.551 69 14.4263 68.8306 14.2656L68.8174 14.2531L68.8051 14.2399C68.6451 14.0698 68.521 13.8739 68.4312 13.6579C68.3351 13.4261 68.2902 13.1813 68.2902 12.9305V0.183867H71.9601V11.0967H81.7428V14.7828ZM71.3283 11.7313V0.818437H68.922V12.9305C68.922 13.104 68.9528 13.2651 69.0146 13.4139C69.0762 13.5625 69.1596 13.6926 69.2644 13.8043C69.3755 13.9096 69.505 13.9932 69.6532 14.0553C69.8012 14.1171 69.9617 14.1482 70.1345 14.1482H81.111V11.7313H71.3283ZM95.5833 14.2593L95.5766 14.2656C95.4073 14.4263 95.2122 14.551 94.9971 14.641C94.769 14.7365 94.5289 14.7828 94.2821 14.7828H88.8586C88.3005 14.7828 87.7384 14.7219 87.1729 14.6016C86.6014 14.4801 86.0475 14.2945 85.5115 14.0456L85.5071 14.0435L85.5028 14.0415C84.9674 13.7827 84.4646 13.457 83.9945 13.0658C83.5137 12.6657 83.0939 12.1952 82.7347 11.6572L82.732 11.6534L82.7297 11.6496C82.3717 11.0967 82.0947 10.4755 81.8942 9.79094L81.8938 9.78935C81.6894 9.08451 81.591 8.31398 81.591 7.48333V0.183867H85.2609V7.48333C85.2609 8.10949 85.3462 8.60065 85.4932 8.97631C85.6608 9.38783 85.8634 9.71241 86.0933 9.96275C86.3384 10.2299 86.5984 10.4304 86.8725 10.5729C87.1869 10.7365 87.473 10.8518 87.7319 10.9246C88.02 11.0041 88.256 11.0509 88.4444 11.0715C88.6847 11.0899 88.814 11.0967 88.8586 11.0967H92.4564V0.183867H96.1263V12.9305C96.1263 13.1813 96.0815 13.4261 95.9853 13.6579C95.8924 13.8814 95.7603 14.0814 95.5896 14.2529L95.5833 14.2593ZM93.0882 11.7313H88.8586C88.7846 11.7313 88.6273 11.7221 88.3866 11.7034C88.1522 11.6786 87.8777 11.6229 87.5629 11.5362C87.2544 11.4494 86.9274 11.3161 86.5818 11.1364C86.2364 10.9566 85.9186 10.7088 85.6286 10.3928C85.3386 10.0768 85.098 9.68322 84.9067 9.21221C84.7216 8.74136 84.629 8.16501 84.629 7.48333V0.818437H82.2228V7.48333C82.2228 8.26416 82.3153 8.97361 82.5005 9.61199C82.6854 10.244 82.9385 10.808 83.2593 11.3038C83.5864 11.7933 83.9658 12.2179 84.3976 12.5772C84.8296 12.9367 85.2893 13.2341 85.7767 13.4695C86.2703 13.6989 86.7793 13.8693 87.3038 13.9808C87.8282 14.0924 88.3465 14.1482 88.8586 14.1482H94.2821C94.4487 14.1482 94.606 14.1171 94.7542 14.0553C94.9022 13.9932 95.0319 13.9096 95.1429 13.8043C95.2539 13.6926 95.3403 13.5625 95.4019 13.4139C95.4637 13.2651 95.4945 13.104 95.4945 12.9305V0.818437H93.0882V11.7313ZM97.585 14.7828V11.0967H107.5C107.833 11.0967 108.006 11.0031 108.111 10.8897L108.114 10.887L108.116 10.8841C108.24 10.7541 108.33 10.5583 108.33 10.2255C108.33 10.0676 108.306 9.938 108.267 9.83044C108.227 9.72209 108.174 9.6369 108.107 9.56678L108.102 9.56123L108.096 9.55552C108.043 9.49634 107.971 9.44351 107.867 9.40179L107.863 9.40036L107.86 9.39894C107.768 9.3607 107.651 9.33563 107.5 9.33563H101.965C101.503 9.33563 101.022 9.25473 100.524 9.10402L100.52 9.10291L100.516 9.1018C99.9887 8.93474 99.501 8.67061 99.0549 8.31493L99.053 8.3135L99.0511 8.31192C98.5912 7.93943 98.2178 7.46096 97.9243 6.89239L97.9229 6.88953L97.9215 6.88683C97.6127 6.27416 97.4738 5.55645 97.4738 4.75975C97.4738 3.96337 97.6125 3.24725 97.9229 2.63918L97.9235 2.63775L97.9243 2.63648C98.2176 2.06822 98.5907 1.58991 99.0502 1.21758C99.4974 0.853971 99.988 0.587611 100.52 0.425796C101.018 0.268581 101.501 0.183867 101.965 0.183867H110.788V3.86993H101.965C101.648 3.86993 101.472 3.96051 101.356 4.08362C101.232 4.22164 101.144 4.42565 101.144 4.75975C101.144 5.10051 101.232 5.29961 101.349 5.42779C101.463 5.54233 101.642 5.63102 101.965 5.63102H107.526L107.533 5.63118C107.84 5.63847 108.156 5.6821 108.48 5.75777C108.818 5.83075 109.15 5.94592 109.473 6.10108C109.809 6.25924 110.125 6.45913 110.42 6.69884C110.731 6.94458 111 7.23902 111.231 7.57756C111.475 7.92753 111.661 8.32159 111.796 8.75405C111.935 9.20412 112 9.69702 112 10.2255C112 10.7558 111.932 11.2527 111.785 11.7091C111.652 12.1385 111.469 12.5304 111.233 12.8786C111 13.2229 110.723 13.5209 110.402 13.7684C110.101 14 109.786 14.193 109.456 14.3443C109.131 14.4931 108.797 14.6042 108.454 14.676C108.127 14.7458 107.809 14.7828 107.5 14.7828H97.585ZM108.323 14.0553C108.619 13.9932 108.909 13.8972 109.193 13.767C109.477 13.6369 109.752 13.4695 110.017 13.2651C110.282 13.0606 110.514 12.8128 110.711 12.5215C110.909 12.2302 111.066 11.8955 111.183 11.5176C111.307 11.1334 111.368 10.7027 111.368 10.2255C111.368 9.74827 111.31 9.32072 111.192 8.94268C111.075 8.56463 110.915 8.23006 110.711 7.93879C110.514 7.64752 110.285 7.39972 110.026 7.19507C109.767 6.9844 109.492 6.811 109.202 6.67457C108.919 6.53829 108.632 6.43914 108.342 6.37711C108.052 6.30905 107.777 6.27177 107.518 6.26559H101.965C101.508 6.26559 101.151 6.13233 100.891 5.86597C100.639 5.59326 100.512 5.22457 100.512 4.75975C100.512 4.30112 100.639 3.93243 100.891 3.65354C101.151 3.37464 101.508 3.23536 101.965 3.23536H110.156V0.818437H101.965C101.576 0.818437 101.157 0.889666 100.706 1.03229C100.256 1.16856 99.8363 1.39479 99.4478 1.7108C99.0652 2.02063 98.7442 2.4266 98.4852 2.92854C98.2321 3.4243 98.1056 4.03475 98.1056 4.75975C98.1056 5.48475 98.2321 6.09822 98.4852 6.60016C98.7442 7.10227 99.0652 7.50807 99.4478 7.8179C99.8363 8.12773 100.256 8.35396 100.706 8.49658C101.157 8.63285 101.576 8.70106 101.965 8.70106H107.5C107.722 8.70106 107.922 8.73819 108.101 8.81259C108.286 8.88699 108.441 8.99233 108.564 9.12861C108.694 9.26488 108.792 9.42606 108.86 9.61199C108.928 9.79792 108.962 10.0024 108.962 10.2255C108.962 10.6841 108.832 11.0496 108.573 11.3223C108.32 11.595 107.962 11.7313 107.5 11.7313H98.2168V14.1482H107.5C107.759 14.1482 108.033 14.1171 108.323 14.0553ZM65.7925 14.1482V0.818437H63.3862V14.1482H65.7925Z" fill="white"/>
</svg>
