<svg width="270" height="270" viewBox="0 0 270 270" fill="none" xmlns="http://www.w3.org/2000/svg">
<path d="M243.517 160.33C257.719 100.186 220.475 39.9165 160.33 25.7147C100.186 11.5129 39.9164 48.7568 25.7146 108.901C11.5128 169.046 48.7567 229.315 108.901 243.517C169.045 257.719 229.315 220.475 243.517 160.33Z" fill="#003450"/>
<path d="M134.594 23.6516C195.894 23.6516 245.494 73.3516 245.494 134.552C245.494 195.752 195.794 245.452 134.594 245.452C73.3936 245.452 23.6936 195.852 23.6936 134.552C23.6936 73.2516 73.3936 23.6516 134.594 23.6516ZM134.594 21.6516C104.394 21.6516 76.0936 33.3516 54.7936 54.7516C33.4936 76.0516 21.6936 104.452 21.6936 134.552C21.6936 164.652 33.3936 193.052 54.7936 214.352C76.0936 235.652 104.494 247.452 134.594 247.452C164.694 247.452 193.094 235.752 214.394 214.352C235.694 193.052 247.494 164.652 247.494 134.552C247.494 104.452 235.794 76.0516 214.394 54.7516C193.194 33.3516 164.794 21.6516 134.594 21.6516Z" fill="white"/>
<path d="M137.594 155.352C131.194 155.352 125.894 150.552 124.994 144.352H42.6936C42.6936 144.852 42.7936 145.252 42.8936 145.752L46.3936 145.852V156.552H54.6936L56.9936 148.952C73.5936 153.252 91.4936 155.652 110.094 157.052H219.294C226.694 157.052 232.294 150.952 232.494 144.452H150.194C149.294 150.552 143.994 155.352 137.594 155.352Z" fill="white"/>
<path d="M137.594 129.952C144.594 129.952 150.294 135.652 150.294 142.652H232.494C231.794 136.052 225.194 129.052 209.294 129.052H157.594V126.152H116.994V129.052H115.694C90.8936 130.652 67.1936 133.852 45.8936 140.652L42.2936 140.752C42.2936 140.952 42.1936 141.652 42.1936 142.052L124.994 142.652C124.894 135.652 130.594 129.952 137.594 129.952Z" fill="white"/>
<path d="M157.594 121.352C157.594 120.452 157.194 119.552 156.594 118.852C155.994 118.152 155.094 117.852 154.194 117.852H149.494C149.494 116.752 148.994 115.752 148.294 115.052C147.494 114.352 146.494 113.852 145.494 113.852H143.194V106.052H139.394V113.852H134.394V101.152H135.794V99.6516H133.094C132.894 99.6516 132.794 99.7516 132.694 99.8516C132.594 99.9516 132.494 100.152 132.494 100.252V113.952H127.494V106.152H123.694V113.952H121.394C120.294 113.952 119.294 114.352 118.594 115.152C117.794 115.952 117.394 116.952 117.394 118.052V124.452H157.394L157.594 121.352Z" fill="white"/>
<path d="M147.494 144.352C147.194 147.052 145.994 149.552 144.094 151.452C142.094 153.252 139.594 154.252 136.894 154.252C134.294 154.252 131.694 153.252 129.694 151.452C127.694 149.652 126.494 147.052 126.294 144.352H41.9936C41.9936 144.852 42.0936 145.252 42.1936 145.752L45.6936 145.852V156.552H53.9936L56.2936 148.952C72.8936 153.252 90.7936 155.652 109.394 157.052H218.594C225.994 157.052 231.594 150.952 231.794 144.452H147.494V144.352Z" fill="#209C95"/>
<path d="M136.894 132.452C139.594 132.452 142.194 133.552 144.194 135.452C146.194 137.352 147.394 139.952 147.494 142.752H231.694C230.994 136.152 224.394 129.752 208.594 129.752H156.994V126.852H116.994V129.752H115.694C90.8936 131.352 67.0936 134.552 45.7936 141.352L42.1936 141.452C42.0936 141.852 42.0936 142.352 42.0936 142.752H126.394C126.594 139.952 127.794 137.352 129.694 135.452C131.594 133.452 134.194 132.452 136.894 132.452Z" fill="#209C95"/>
<path d="M156.894 121.352C156.894 120.452 156.494 119.552 155.894 118.852C155.294 118.152 154.394 117.852 153.494 117.852H148.794C148.794 116.752 148.294 115.752 147.594 115.052C146.894 114.352 145.794 113.852 144.794 113.852H142.494V106.052H138.694V113.852H133.694V101.152H135.094V99.6516H132.394C132.194 99.6516 132.094 99.7516 131.994 99.8516C131.894 99.9516 131.794 100.152 131.794 100.252V113.952H126.794V106.152H122.994V113.952H120.994C119.894 113.952 118.894 114.352 118.194 115.152C117.394 115.952 116.994 116.952 116.994 118.052V124.452H156.994L156.894 121.352Z" fill="#209C95"/>
<path d="M136.894 152.652C138.694 152.652 140.394 152.152 141.894 151.052C143.394 150.052 144.494 148.552 145.194 146.852C145.894 145.152 146.094 143.252 145.694 141.452C145.394 139.652 144.494 137.952 143.194 136.652C141.894 135.352 140.294 134.452 138.594 134.152C136.894 133.852 134.994 133.952 133.394 134.652C131.794 135.352 130.294 136.552 129.394 138.052C128.394 139.552 127.894 141.352 127.894 143.252C127.894 145.752 128.794 148.052 130.494 149.852C132.194 151.652 134.494 152.652 136.894 152.652Z" fill="#FF642E"/>
<path d="M131.994 139.452C131.994 139.252 132.094 138.952 132.194 138.752C132.294 138.552 132.494 138.452 132.694 138.352C132.894 138.252 133.094 138.252 133.394 138.252C133.594 138.252 133.794 138.452 133.994 138.552L139.394 144.352V138.252H141.694V147.252C141.694 147.452 141.694 147.552 141.594 147.752C141.494 147.852 141.494 148.052 141.394 148.152C141.294 148.252 141.194 148.352 140.994 148.452C140.894 148.552 140.694 148.552 140.494 148.552C140.394 148.552 140.194 148.552 140.094 148.452C139.894 148.352 139.794 148.252 139.694 148.152L134.294 142.352V148.452H131.994V139.452Z" fill="white"/>
<path d="M180.194 206.051C184.894 208.351 189.394 211.051 193.194 214.751C194.694 216.251 196.094 217.851 197.394 219.551C198.894 221.551 200.194 223.551 201.394 225.651C202.894 223.651 204.294 221.551 205.694 219.451C204.894 216.651 204.294 213.851 204.194 210.851C204.094 206.751 204.394 202.551 204.594 198.451C204.994 187.851 203.294 183.151 200.194 178.751C197.494 174.851 193.894 172.151 189.094 171.551C185.794 171.151 182.894 172.251 180.694 174.851C176.994 179.151 176.994 185.951 180.594 190.451C182.194 192.351 183.994 193.951 186.494 194.351C188.294 194.651 189.794 194.151 190.894 192.651C192.094 191.051 192.494 189.351 191.694 187.451C191.494 186.851 191.094 186.451 190.294 186.851C190.394 187.251 190.494 187.551 190.494 187.951C190.894 190.151 188.994 192.051 186.794 191.451C186.094 191.251 185.394 190.851 184.794 190.451C181.594 188.251 180.394 184.351 181.694 180.151C183.094 175.451 187.094 173.651 191.594 175.751C195.694 177.651 198.094 181.051 199.394 185.351C200.394 188.551 200.694 196.651 200.494 200.051C200.194 205.151 199.494 210.151 200.594 215.151C200.694 215.551 200.694 215.851 200.794 216.351C200.594 216.251 200.494 216.151 200.394 216.151C200.094 215.851 199.794 215.551 199.494 215.251C192.894 207.651 183.594 202.451 173.994 199.651C171.494 198.951 168.894 198.151 166.294 198.251C165.894 198.251 164.194 198.751 163.994 198.651C166.794 200.451 170.094 201.451 173.194 202.751C175.394 203.951 177.794 204.951 180.194 206.051Z" fill="white"/>
<path d="M189.794 185.052C189.794 184.152 189.694 183.252 189.694 182.352C188.994 173.352 185.794 164.952 181.294 157.252C177.094 150.252 172.294 143.752 166.294 138.352C165.494 137.652 164.694 137.152 163.894 136.552C163.794 136.652 163.694 136.752 163.594 136.852C163.894 137.352 164.094 137.752 164.394 138.252C166.994 142.052 169.594 145.752 172.094 149.652C175.694 155.352 178.894 161.552 181.294 167.952C183.794 174.952 184.394 181.852 184.394 189.252C184.394 196.352 184.294 203.752 185.394 210.752C185.694 212.552 189.594 232.152 189.794 232.052C191.394 231.552 193.094 231.052 194.694 230.452C194.894 230.352 190.794 210.252 190.494 208.252C189.294 200.452 189.894 192.852 189.794 185.052Z" fill="white"/>
<path d="M175.094 229.451C170.494 224.351 167.594 218.351 165.694 211.851C165.794 211.751 165.894 211.651 165.994 211.551C167.594 212.951 169.194 214.351 170.594 215.851C175.894 221.551 180.794 227.551 185.394 233.751C186.594 233.151 187.694 232.451 188.894 231.751C186.994 229.051 185.094 226.451 183.094 223.751C179.594 219.051 176.094 214.351 171.494 210.651C169.294 208.851 167.094 206.951 164.894 205.151C164.094 204.451 163.594 203.651 163.394 202.551C162.994 200.351 162.494 198.251 161.994 196.051C161.894 195.551 161.594 195.051 161.394 194.551C161.294 194.551 161.194 194.651 161.094 194.651C160.194 196.651 160.694 198.851 160.394 201.051C159.994 200.651 159.894 200.551 159.694 200.351C156.194 196.351 153.694 191.751 151.494 186.951C149.194 181.751 147.694 176.251 146.294 170.751C145.694 168.551 145.094 166.451 144.494 164.251C144.394 164.251 144.294 164.251 144.194 164.251C144.094 164.651 143.994 165.051 143.994 165.451C144.094 167.351 144.094 169.351 144.294 171.251C145.094 179.451 147.394 187.151 150.894 194.451C152.894 198.651 155.294 202.551 158.894 205.551C160.594 206.951 161.494 208.751 161.994 210.851C163.594 218.451 166.594 225.351 171.594 231.351C172.094 231.951 172.594 232.651 173.094 233.251C172.394 233.251 171.894 233.151 171.394 232.951C169.594 232.451 167.794 231.651 165.994 231.451C162.694 231.051 159.294 230.851 155.994 230.651C153.094 230.551 150.194 230.351 147.494 228.951C143.094 226.751 139.994 223.451 139.094 218.451C138.594 215.351 139.794 212.751 142.694 211.551C145.994 210.051 149.294 210.351 152.294 212.351C153.994 213.451 155.094 215.051 155.494 217.051C155.794 218.251 155.594 219.351 154.594 220.251C153.594 221.151 152.394 221.251 151.194 220.651C150.994 220.551 150.694 220.451 150.394 220.351C150.294 221.651 150.794 222.351 152.094 222.651C153.994 223.051 155.694 222.751 157.094 221.251C158.594 219.651 158.794 217.751 158.094 215.751C156.194 209.451 149.094 205.851 142.494 207.851C138.694 209.051 136.194 211.451 135.594 215.451C134.894 219.951 136.394 223.951 139.294 227.251C142.994 231.551 147.894 233.751 153.494 234.351C157.394 234.751 161.294 234.951 165.194 235.651C168.594 236.251 171.794 237.351 174.894 238.751C177.294 237.751 179.694 236.651 181.994 235.551C179.394 233.751 177.094 231.751 175.094 229.451Z" fill="white"/>
</svg>
