<svg width="472" height="141" viewBox="0 0 472 141" fill="none" xmlns="http://www.w3.org/2000/svg">
<path d="M14.7 25.3409L46.1 58.041C46.8 58.841 47.7 59.4409 48.7 59.7409C49.6 60.0409 50.5 60.2409 51.4 60.2409C52.4 60.2409 53.4 60.041 54.3 59.641C55.2 59.241 56 58.741 56.7 58.041C57.4 57.341 57.9 56.6409 58.3 55.7409C58.7 54.8409 58.9 53.8409 58.9 52.8409V0.740931H44V34.9409L12.6 2.24093C11.5 1.14093 10.3 0.440955 8.8 0.140955C7.4 -0.159045 5.9 0.0409494 4.6 0.540949H4.5C3.2 1.14095 2.2 2.04093 1.3 3.24093C0.399999 4.44093 0 5.84094 0 7.34094V59.4409H14.7V25.3409Z" fill="white"/>
<path d="M82.6 46.341H111.9V59.541H126.6V8.24097C126.6 7.24097 126.4 6.24097 126 5.34097C125.6 4.44097 125.1 3.64098 124.4 2.94098C123.7 2.24098 122.9 1.74097 122 1.34097C121.1 0.940973 120.1 0.740967 119.1 0.740967H97.0999C92.8999 0.740967 88.9999 1.44098 85.3999 2.94098C81.7999 4.34098 78.7 6.44099 76.1 9.04099C73.5 11.641 71.3999 14.741 69.8999 18.341C68.3999 21.941 67.7 25.841 67.7 30.141V59.541H82.3999V46.341H82.6ZM95.5999 15.641C96.7999 15.541 97.2 15.541 97.3 15.541H112V31.641H82.7V30.141C82.7 27.741 83 25.741 83.7 24.141C84.3 22.541 85.1999 21.141 86.0999 20.141C87.0999 19.041 88.1 18.241 89.3 17.641C90.5 17.041 91.7 16.541 92.8 16.241C93.8 15.841 94.7999 15.641 95.5999 15.641Z" fill="white"/>
<path d="M140.4 46.941C141.8 49.141 143.6 51.041 145.5 52.641C147.4 54.241 149.5 55.541 151.6 56.541C153.8 57.541 156 58.341 158.3 58.841C160.6 59.341 162.9 59.541 165.1 59.541H187.1C188.1 59.541 189.1 59.341 190 58.941C190.9 58.541 191.7 58.041 192.3 57.441C193 56.741 193.5 55.941 193.9 55.041C194.3 54.141 194.5 53.141 194.5 52.141V0.840973H179.8V44.841H165.1C165 44.841 164.7 44.841 163.4 44.741C162.6 44.641 161.6 44.441 160.5 44.141C159.4 43.841 158.2 43.341 157 42.741C155.9 42.141 154.8 41.341 153.8 40.241C152.8 39.241 152 37.841 151.4 36.241C150.8 34.641 150.4 32.641 150.4 30.141V0.740967H135.7V30.141C135.7 33.541 136.1 36.641 136.9 39.441C137.8 42.241 138.9 44.741 140.4 46.941Z" fill="white"/>
<path d="M222.1 59.541H236.7V15.441H258.2V0.740967H200.5V15.441H222.1V59.541Z" fill="white"/>
<path d="M279.1 0.740967H264.4V59.441H279.1V0.740967Z" fill="white"/>
<path d="M291.5 57.3409C292.2 58.0409 293 58.5409 293.9 58.9409C294.8 59.341 295.8 59.541 296.8 59.541H343.7V44.8409H304.1V0.840942H289.4V52.141C289.4 53.141 289.6 54.141 290 55.041C290.3 55.941 290.8 56.7409 291.5 57.3409Z" fill="white"/>
<path d="M404 55.041C404.4 54.141 404.6 53.141 404.6 52.141V0.840973H389.9V44.841H375.2C375.1 44.841 374.8 44.841 373.5 44.741C372.7 44.641 371.7 44.441 370.6 44.141C369.5 43.841 368.3 43.341 367.1 42.741C366 42.141 364.9 41.341 363.9 40.241C362.9 39.241 362.1 37.841 361.5 36.241C360.9 34.641 360.5 32.641 360.5 30.141V0.740967H345.8V30.141C345.8 33.541 346.2 36.641 347 39.441C347.8 42.241 349 44.741 350.4 46.941C351.8 49.141 353.6 51.041 355.5 52.641C357.4 54.241 359.5 55.541 361.6 56.541C363.7 57.541 366 58.341 368.3 58.841C370.6 59.341 372.9 59.541 375.1 59.541H397.1C398.1 59.541 399.1 59.341 400 58.941C400.9 58.541 401.7 58.041 402.3 57.441C403 56.741 403.6 55.941 404 55.041Z" fill="white"/>
<path d="M470.5 35.3409C470 33.5409 469.2 32.041 468.2 30.641C467.3 29.241 466.1 28.041 464.9 27.141C463.7 26.141 462.4 25.3409 461.1 24.7409C459.8 24.1409 458.4 23.6409 457.1 23.3409C455.8 23.0409 454.5 22.8409 453.3 22.8409H430.7C429 22.8409 428.4 22.1409 428.2 21.9409C427.6 21.3409 427.3 20.4409 427.3 19.2409C427.3 18.0409 427.6 17.1409 428.2 16.4409C428.6 16.0409 429.2 15.541 430.7 15.541H466.4V0.840942H430.7C428.9 0.840942 426.9 1.14094 424.9 1.84094C422.8 2.54094 420.8 3.54095 419 5.04095C417.2 6.54095 415.6 8.44094 414.5 10.7409C413.3 13.1409 412.7 15.9409 412.7 19.2409C412.7 22.5409 413.3 25.4409 414.5 27.8409C415.7 30.1409 417.2 32.141 419.1 33.541C420.9 34.941 422.9 36.0409 425 36.7409C427.1 37.3409 429 37.7409 430.8 37.7409H453.2C453.8 37.7409 454.3 37.841 454.7 38.041C455.1 38.241 455.4 38.4409 455.7 38.7409C456 39.0409 456.2 39.4409 456.4 39.8409C456.6 40.3409 456.7 40.841 456.7 41.4409C456.7 42.6409 456.4 43.541 455.8 44.141C455.6 44.341 455 45.041 453.2 45.041H413.1V59.7409H453.2C454.4 59.7409 455.7 59.6409 457.1 59.3409C458.5 59.0409 459.8 58.641 461.1 58.041C462.4 57.441 463.7 56.6409 464.9 55.7409C466.2 54.7409 467.3 53.541 468.3 52.141C469.2 50.741 470 49.1409 470.5 47.4409C471.1 45.6409 471.3 43.641 471.3 41.541C471.4 39.041 471.1 37.0409 470.5 35.3409Z" fill="white"/>
<path d="M69.4 108.341L54.2001 84.041C53.4001 82.841 52.4001 81.841 51.1001 81.141C48.6001 79.741 45.5001 79.741 43.0001 81.141C41.7001 81.841 40.7001 82.841 40.0001 84.041L24.8 108.341L17.8 69.541H0.800049L12.3 133.441C12.6 135.441 13.6 137.141 15.2001 138.441C16.7001 139.741 18.5001 140.341 20.6001 140.341C22.0001 140.341 23.4001 140.041 24.7001 139.341C26 138.641 27 137.641 27.7001 136.441L47.2001 104.441L66.7001 136.541C67.6001 138.041 68.9 139.041 70.4 139.741C71.5 140.241 72.6001 140.441 73.8 140.441C74.3 140.441 74.9 140.441 75.4 140.341C77.1 140.041 78.6001 139.241 79.8 137.941C81 136.741 81.7001 135.241 82.1001 133.541L93.5001 69.641H76.5001L69.4 108.341Z" fill="#FF642E"/>
<path d="M168.4 72.0411C167.6 71.2411 166.7 70.6411 165.7 70.2411C164.7 69.8411 163.6 69.6411 162.4 69.6411H135.8C130.8 69.6411 126.1 70.5411 121.9 72.2411C117.6 73.9411 113.9 76.4411 110.8 79.5411C107.7 82.6411 105.2 86.3411 103.4 90.6411C101.7 94.9411 100.8 99.6411 100.8 104.741V139.741H117.6V123.741H154.2V139.741H171V78.1411C171 77.0411 170.8 75.9411 170.4 74.8411C169.8 73.7411 169.2 72.8411 168.4 72.0411ZM133.8 86.4411C135.3 86.3411 135.7 86.3411 135.9 86.3411H154.2V106.941H117.6V104.641C117.6 101.641 118 99.1411 118.8 97.1411C119.6 95.1411 120.6 93.4411 121.8 92.1411C123 90.8411 124.4 89.7411 125.8 89.0411C127.3 88.2411 128.8 87.6411 130.2 87.2411C131.5 86.8411 132.8 86.5411 133.8 86.4411Z" fill="#FF642E"/>
<path d="M201 69.541H184.2V131.141C184.2 132.341 184.4 133.441 184.8 134.441C185.2 135.441 185.8 136.341 186.6 137.141C187.4 137.941 188.3 138.541 189.3 138.941C190.3 139.341 191.4 139.541 192.6 139.541H248.9V122.741H200.9V69.541H201Z" fill="#FF642E"/>
<path d="M274.1 69.541H257.3V131.141C257.3 132.341 257.5 133.441 257.9 134.441C258.3 135.441 258.9 136.341 259.7 137.141C260.5 137.941 261.4 138.541 262.4 138.941C263.4 139.341 264.5 139.541 265.7 139.541H322V122.741H274V69.541H274.1Z" fill="#FF642E"/>
<path d="M335.1 70.241C334.1 70.641 333.2 71.241 332.4 72.041C331.7 72.841 331.1 73.741 330.6 74.741C330.2 75.741 330 76.841 330 78.041V120.641C330 124.041 330.7 127.041 331.9 129.541C333.2 131.941 334.8 133.941 336.7 135.441C338.6 136.941 340.7 138.041 342.9 138.741C345.1 139.341 347.1 139.741 349 139.741H394.1V122.941H349.1C348.5 122.941 347.7 122.841 347.3 122.441C347 122.141 346.8 121.541 346.8 120.641V113.041H388.8V96.241H346.8V86.341H394.1V69.541H338.5C337.2 69.541 336.1 69.841 335.1 70.241Z" fill="#FF642E"/>
<path d="M400.1 86.341H426.2V139.641H442.9V86.341H468.9V69.541H400.1V86.341Z" fill="#FF642E"/>
</svg>
