<svg width="270" height="270" viewBox="0 0 270 270" fill="none" xmlns="http://www.w3.org/2000/svg">
<path d="M243.621 160.33C257.823 100.186 220.579 39.9165 160.435 25.7147C100.29 11.5129 40.0207 48.7568 25.8189 108.901C11.6171 169.046 48.8609 229.315 109.005 243.517C169.15 257.719 229.419 220.475 243.621 160.33Z" fill="#003450"/>
<path d="M134.7 23.7249C196 23.7249 245.6 73.4248 245.6 134.625C245.6 195.825 195.9 245.525 134.7 245.525C73.5 245.525 23.8 195.825 23.8 134.625C23.8 73.4248 73.4 23.7249 134.7 23.7249ZM134.7 21.7249C104.5 21.7249 76.2 33.4249 54.9 54.8249C33.6 76.1249 21.8 104.525 21.8 134.625C21.8 164.825 33.5 193.125 54.9 214.425C76.2 235.725 104.6 247.525 134.7 247.525C164.8 247.525 193.2 235.825 214.5 214.425C235.8 193.125 247.6 164.725 247.6 134.625C247.6 104.525 235.9 76.1249 214.5 54.7249C193.1 33.3249 164.8 21.7249 134.7 21.7249Z" fill="white"/>
<path d="M110.8 151.325C107.4 147.125 103 143.725 97.9 141.925C96.8 141.525 95.6 141.225 94.4 141.025C94.1 140.925 93.7 140.825 93.5 140.825C93 140.825 93 140.825 92.7 141.325C92.3 141.925 92 142.425 91.6 143.025C90 145.625 88.6 148.425 87.6 151.225C95.1 148.425 103.1 147.625 110.8 151.325ZM111.1 153.325C107.6 152.625 104 152.325 100.4 152.925C97.6 153.325 94.9 154.125 92.4 155.425C91.2 156.025 90 156.725 88.8 157.425C87.7 158.125 86.3 158.925 85.5 159.925C85 160.525 85 161.825 84.9 162.725C84.8 163.625 84.7 164.625 84.7 165.525C84.6 167.425 84.6 169.325 84.8 171.125C85.1 174.725 85.8 178.325 86.8 181.825C87.8 178.825 88.9 175.925 90.2 173.125C94.5 164.025 98 156.425 111.1 153.325ZM95.2 197.325C101.3 204.825 109.7 210.325 119.1 212.825C117.3 208.325 115.4 203.925 113.6 199.425C108.1 185.525 102.3 168.025 112.5 154.825C109.1 156.625 105.9 158.925 103.3 161.825C94.8 171.425 94.8 180.525 95.2 197.325ZM164 201.025C159.4 198.225 154.6 195.625 149.9 193.025C141.6 188.425 133 183.825 126 177.325C119.6 171.425 114.9 163.925 114.7 155.025C111.9 161.325 111.1 168.325 112.8 175.025C115.7 186.325 124.3 195.325 131.6 204.125C133.5 206.425 135.4 208.725 137.2 211.125C137.7 211.725 138.1 212.325 138.5 212.925C138.7 213.225 138.9 213.625 139.2 213.725C139.5 213.825 140.1 213.525 140.4 213.525C142.2 213.125 144 212.725 145.7 212.125C152.6 209.825 157.3 207.525 164 201.025ZM196.1 153.125C188.8 153.525 181.7 155.225 174.7 157.025C164.3 159.525 153.8 162.525 143 163.025C133.2 163.425 123.4 161.225 116.4 153.925C118.8 160.925 123.1 166.925 129.4 170.925C140 177.625 153.4 178.225 165.5 179.925C168.6 180.325 171.7 180.825 174.8 181.525C176.9 182.025 179 182.525 181 183.225C181.4 183.325 181.8 183.625 182.1 183.425C182.3 183.325 182.5 182.925 182.6 182.725C182.9 182.325 183.2 181.825 183.5 181.425C184.1 180.525 184.7 179.625 185.3 178.725C190.3 170.725 193.4 164.225 196.1 153.125ZM189 92.725C186.1 94.725 183.1 96.925 180.4 99.325C177.7 101.725 175.3 104.425 172.9 107.125C164.1 117.425 156.9 129.125 147.3 138.725C143.2 142.825 138.7 146.525 133.5 149.025C128.4 151.425 122.7 152.425 117.1 151.625C122.6 155.125 128.9 157.225 135.5 157.125C146.4 156.825 156.3 150.925 165.4 145.425C170.7 142.225 176 138.825 181.5 136.025C186.8 133.425 192.6 131.325 198.7 131.525C198.7 131.125 198.7 130.725 198.7 130.225C198.3 117.225 195 104.325 189 92.725ZM177.4 75.725C169.8 67.0251 160.5 59.825 150.1 54.725C147.9 53.625 145.6 52.625 143.2 51.725C141.9 51.225 140.6 50.825 139.4 50.325C138.8 50.125 138.2 49.925 137.6 49.725C137.1 49.525 137.2 49.425 136.9 49.825C136.7 50.025 136.6 50.525 136.5 50.825C134.8 55.425 133.5 60.425 132.7 65.225C130.9 75.3251 131.7 85.925 132.1 96.125C132.8 114.225 134.1 138.525 116.4 149.425C123.3 148.625 129.8 146.025 134.9 141.325C144.6 132.525 148.3 118.825 152.5 106.925C155 99.725 157.6 92.025 162.2 85.825C165.9 80.825 170.5 77.3251 177.4 75.725Z" fill="#209C95"/>
<path d="M105.6 80.4249C105.6 84.6249 102.2 88.025 97.9999 88.025C93.7999 88.025 90.3999 84.6249 90.3999 80.4249C90.3999 76.2249 93.7999 72.825 97.9999 72.825C102.2 72.825 105.6 76.2249 105.6 80.4249Z" fill="#FF642E"/>
<path d="M109.3 114.025C112.337 114.025 114.8 111.562 114.8 108.525C114.8 105.487 112.337 103.025 109.3 103.025C106.262 103.025 103.8 105.487 103.8 108.525C103.8 111.562 106.262 114.025 109.3 114.025Z" fill="#FF642E"/>
<path d="M119.3 95.825C121.012 95.825 122.4 94.4371 122.4 92.725C122.4 91.0129 121.012 89.625 119.3 89.625C117.588 89.625 116.2 91.0129 116.2 92.725C116.2 94.4371 117.588 95.825 119.3 95.825Z" fill="#FF642E"/>
<path d="M96.8999 136.025C97.9999 134.825 99.0999 133.725 100.3 132.725C100.8 132.325 101.3 131.825 101.9 131.425C102.5 130.925 103.1 130.325 103.8 130.025C104.2 129.825 104.1 129.825 104.4 130.225C104.6 130.425 104.8 130.625 105 130.925C105.4 131.325 105.7 131.825 106.1 132.225C106.8 133.125 107.5 134.125 108.1 135.125C110.7 139.525 111.9 144.725 111.8 149.825C108.8 142.925 103.4 138.625 96.8999 136.025Z" fill="#209C95"/>
</svg>
