<svg width="472" height="424" viewBox="0 0 472 424" fill="none" xmlns="http://www.w3.org/2000/svg">
<path d="M14.7 308.341L46.1 341.041C46.8 341.841 47.7 342.441 48.7 342.741C49.6 343.041 50.5 343.241 51.4 343.241C52.4 343.241 53.4 343.041 54.3 342.641C55.2 342.241 56 341.741 56.7 341.041C57.4 340.341 57.9 339.641 58.3 338.741C58.7 337.841 58.9 336.841 58.9 335.841V283.741H44V317.941L12.6 285.241C11.5 284.141 10.3 283.441 8.8 283.141C7.4 282.841 5.9 283.041 4.6 283.541H4.5C3.2 284.141 2.2 285.041 1.3 286.241C0.399999 287.441 0 288.841 0 290.341V342.441H14.7V308.341Z" fill="white"/>
<path d="M82.6 329.341H111.9V342.541H126.6V291.241C126.6 290.241 126.4 289.241 126 288.341C125.6 287.441 125.1 286.641 124.4 285.941C123.7 285.241 122.9 284.741 122 284.341C121.1 283.941 120.1 283.741 119.1 283.741H97.0999C92.8999 283.741 88.9999 284.441 85.3999 285.941C81.7999 287.341 78.7 289.441 76.1 292.041C73.5 294.641 71.3999 297.741 69.8999 301.341C68.3999 304.941 67.7 308.841 67.7 313.141V342.541H82.3999V329.341H82.6ZM95.5999 298.641C96.7999 298.541 97.2 298.541 97.3 298.541H112V314.641H82.7V313.141C82.7 310.741 83 308.741 83.7 307.141C84.3 305.541 85.1999 304.141 86.0999 303.141C87.0999 302.041 88.1 301.241 89.3 300.641C90.5 300.041 91.7 299.541 92.8 299.241C93.8 298.841 94.7999 298.641 95.5999 298.641Z" fill="white"/>
<path d="M140.4 329.941C141.8 332.141 143.6 334.041 145.5 335.641C147.4 337.241 149.5 338.541 151.6 339.541C153.8 340.541 156 341.341 158.3 341.841C160.6 342.341 162.9 342.541 165.1 342.541H187.1C188.1 342.541 189.1 342.341 190 341.941C190.9 341.541 191.7 341.041 192.3 340.441C193 339.741 193.5 338.941 193.9 338.041C194.3 337.141 194.5 336.141 194.5 335.141V283.841H179.8V327.841H165.1C165 327.841 164.7 327.841 163.4 327.741C162.6 327.641 161.6 327.441 160.5 327.141C159.4 326.841 158.2 326.341 157 325.741C155.9 325.141 154.8 324.341 153.8 323.241C152.8 322.241 152 320.841 151.4 319.241C150.8 317.641 150.4 315.641 150.4 313.141V283.741H135.7V313.141C135.7 316.541 136.1 319.641 136.9 322.441C137.8 325.241 138.9 327.741 140.4 329.941Z" fill="white"/>
<path d="M222.1 342.541H236.7V298.441H258.2V283.741H200.5V298.441H222.1V342.541Z" fill="white"/>
<path d="M279.1 283.741H264.4V342.441H279.1V283.741Z" fill="white"/>
<path d="M291.5 340.341C292.2 341.041 293 341.541 293.9 341.941C294.8 342.341 295.8 342.541 296.8 342.541H343.7V327.841H304.1V283.841H289.4V335.141C289.4 336.141 289.6 337.141 290 338.041C290.3 338.941 290.8 339.741 291.5 340.341Z" fill="white"/>
<path d="M404 338.041C404.4 337.141 404.6 336.141 404.6 335.141V283.841H389.9V327.841H375.2C375.1 327.841 374.8 327.841 373.5 327.741C372.7 327.641 371.7 327.441 370.6 327.141C369.5 326.841 368.3 326.341 367.1 325.741C366 325.141 364.9 324.341 363.9 323.241C362.9 322.241 362.1 320.841 361.5 319.241C360.9 317.641 360.5 315.641 360.5 313.141V283.741H345.8V313.141C345.8 316.541 346.2 319.641 347 322.441C347.8 325.241 349 327.741 350.4 329.941C351.8 332.141 353.6 334.041 355.5 335.641C357.4 337.241 359.5 338.541 361.6 339.541C363.7 340.541 366 341.341 368.3 341.841C370.6 342.341 372.9 342.541 375.1 342.541H397.1C398.1 342.541 399.1 342.341 400 341.941C400.9 341.541 401.7 341.041 402.3 340.441C403 339.741 403.6 338.941 404 338.041Z" fill="white"/>
<path d="M470.5 318.341C470 316.541 469.2 315.041 468.2 313.641C467.3 312.241 466.1 311.041 464.9 310.141C463.7 309.141 462.4 308.341 461.1 307.741C459.8 307.141 458.4 306.641 457.1 306.341C455.8 306.041 454.5 305.841 453.3 305.841H430.7C429 305.841 428.4 305.141 428.2 304.941C427.6 304.341 427.3 303.441 427.3 302.241C427.3 301.041 427.6 300.141 428.2 299.441C428.6 299.041 429.2 298.541 430.7 298.541H466.4V283.841H430.7C428.9 283.841 426.9 284.141 424.9 284.841C422.8 285.541 420.8 286.541 419 288.041C417.2 289.541 415.6 291.441 414.5 293.741C413.3 296.141 412.7 298.941 412.7 302.241C412.7 305.541 413.3 308.441 414.5 310.841C415.7 313.141 417.2 315.141 419.1 316.541C420.9 317.941 422.9 319.041 425 319.741C427.1 320.341 429 320.741 430.8 320.741H453.2C453.8 320.741 454.3 320.841 454.7 321.041C455.1 321.241 455.4 321.441 455.7 321.741C456 322.041 456.2 322.441 456.4 322.841C456.6 323.341 456.7 323.841 456.7 324.441C456.7 325.641 456.4 326.541 455.8 327.141C455.6 327.341 455 328.041 453.2 328.041H413.1V342.741H453.2C454.4 342.741 455.7 342.641 457.1 342.341C458.5 342.041 459.8 341.641 461.1 341.041C462.4 340.441 463.7 339.641 464.9 338.741C466.2 337.741 467.3 336.541 468.3 335.141C469.2 333.741 470 332.141 470.5 330.441C471.1 328.641 471.3 326.641 471.3 324.541C471.4 322.041 471.1 320.041 470.5 318.341Z" fill="white"/>
<path d="M69.4 391.341L54.2001 367.041C53.4001 365.841 52.4001 364.841 51.1001 364.141C48.6001 362.741 45.5001 362.741 43.0001 364.141C41.7001 364.841 40.7001 365.841 40.0001 367.041L24.8 391.341L17.8 352.541H0.800049L12.3 416.441C12.6 418.441 13.6 420.141 15.2001 421.441C16.7001 422.741 18.5001 423.341 20.6001 423.341C22.0001 423.341 23.4001 423.041 24.7001 422.341C26 421.641 27 420.641 27.7001 419.441L47.2001 387.441L66.7001 419.541C67.6001 421.041 68.9 422.041 70.4 422.741C71.5 423.241 72.6001 423.441 73.8 423.441C74.3 423.441 74.9 423.441 75.4 423.341C77.1 423.041 78.6001 422.241 79.8 420.941C81 419.741 81.7001 418.241 82.1001 416.541L93.5001 352.641H76.5001L69.4 391.341Z" fill="#FF642E"/>
<path d="M168.4 355.041C167.6 354.241 166.7 353.641 165.7 353.241C164.7 352.841 163.6 352.641 162.4 352.641H135.8C130.8 352.641 126.1 353.541 121.9 355.241C117.6 356.941 113.9 359.441 110.8 362.541C107.7 365.641 105.2 369.341 103.4 373.641C101.7 377.941 100.8 382.641 100.8 387.741V422.741H117.6V406.741H154.2V422.741H171V361.141C171 360.041 170.8 358.941 170.4 357.841C169.8 356.741 169.2 355.841 168.4 355.041ZM133.8 369.441C135.3 369.341 135.7 369.341 135.9 369.341H154.2V389.941H117.6V387.641C117.6 384.641 118 382.141 118.8 380.141C119.6 378.141 120.6 376.441 121.8 375.141C123 373.841 124.4 372.741 125.8 372.041C127.3 371.241 128.8 370.641 130.2 370.241C131.5 369.841 132.8 369.541 133.8 369.441Z" fill="#FF642E"/>
<path d="M201 352.541H184.2V414.141C184.2 415.341 184.4 416.441 184.8 417.441C185.2 418.441 185.8 419.341 186.6 420.141C187.4 420.941 188.3 421.541 189.3 421.941C190.3 422.341 191.4 422.541 192.6 422.541H248.9V405.741H200.9V352.541H201Z" fill="#FF642E"/>
<path d="M274.1 352.541H257.3V414.141C257.3 415.341 257.5 416.441 257.9 417.441C258.3 418.441 258.9 419.341 259.7 420.141C260.5 420.941 261.4 421.541 262.4 421.941C263.4 422.341 264.5 422.541 265.7 422.541H322V405.741H274V352.541H274.1Z" fill="#FF642E"/>
<path d="M335.1 353.241C334.1 353.641 333.2 354.241 332.4 355.041C331.7 355.841 331.1 356.741 330.6 357.741C330.2 358.741 330 359.841 330 361.041V403.641C330 407.041 330.7 410.041 331.9 412.541C333.2 414.941 334.8 416.941 336.7 418.441C338.6 419.941 340.7 421.041 342.9 421.741C345.1 422.341 347.1 422.741 349 422.741H394.1V405.941H349.1C348.5 405.941 347.7 405.841 347.3 405.441C347 405.141 346.8 404.541 346.8 403.641V396.041H388.8V379.241H346.8V369.341H394.1V352.541H338.5C337.2 352.541 336.1 352.841 335.1 353.241Z" fill="#FF642E"/>
<path d="M400.1 369.341H426.2V422.641H442.9V369.341H468.9V352.541H400.1V369.341Z" fill="#FF642E"/>
<path d="M344.621 160.33C358.823 100.186 321.579 39.9164 261.435 25.7146C201.29 11.5128 141.021 48.7566 126.819 108.901C112.617 169.045 149.861 229.315 210.005 243.517C270.15 257.719 330.419 220.475 344.621 160.33Z" fill="#003450"/>
<path d="M235.7 23.725C297 23.725 346.6 73.425 346.6 134.625C346.6 195.825 296.9 245.525 235.7 245.525C174.5 245.525 124.8 195.825 124.8 134.625C124.8 73.425 174.4 23.725 235.7 23.725ZM235.7 21.725C205.5 21.725 177.2 33.425 155.9 54.825C134.6 76.125 122.8 104.525 122.8 134.625C122.8 164.825 134.5 193.125 155.9 214.425C177.2 235.725 205.6 247.525 235.7 247.525C265.8 247.525 294.2 235.825 315.5 214.425C336.8 193.125 348.6 164.725 348.6 134.625C348.6 104.525 336.9 76.125 315.5 54.725C294.1 33.325 265.8 21.725 235.7 21.725Z" fill="white"/>
<path d="M211.8 151.325C208.4 147.125 204 143.725 198.9 141.925C197.8 141.525 196.6 141.225 195.4 141.025C195.1 140.925 194.7 140.825 194.5 140.825C194 140.825 194 140.825 193.7 141.325C193.3 141.925 193 142.425 192.6 143.025C191 145.625 189.6 148.425 188.6 151.225C196.1 148.425 204.1 147.625 211.8 151.325ZM212.1 153.325C208.6 152.625 205 152.325 201.4 152.925C198.6 153.325 195.9 154.125 193.4 155.425C192.2 156.025 191 156.725 189.8 157.425C188.7 158.125 187.3 158.925 186.5 159.925C186 160.525 186 161.825 185.9 162.725C185.8 163.625 185.7 164.625 185.7 165.525C185.6 167.425 185.6 169.325 185.8 171.125C186.1 174.725 186.8 178.325 187.8 181.825C188.8 178.825 189.9 175.925 191.2 173.125C195.5 164.025 199 156.425 212.1 153.325ZM196.2 197.325C202.3 204.825 210.7 210.325 220.1 212.825C218.3 208.325 216.4 203.925 214.6 199.425C209.1 185.525 203.3 168.025 213.5 154.825C210.1 156.625 206.9 158.925 204.3 161.825C195.8 171.425 195.8 180.525 196.2 197.325ZM265 201.025C260.4 198.225 255.6 195.625 250.9 193.025C242.6 188.425 234 183.825 227 177.325C220.6 171.425 215.9 163.925 215.7 155.025C212.9 161.325 212.1 168.325 213.8 175.025C216.7 186.325 225.3 195.325 232.6 204.125C234.5 206.425 236.4 208.725 238.2 211.125C238.7 211.725 239.1 212.325 239.5 212.925C239.7 213.225 239.9 213.625 240.2 213.725C240.5 213.825 241.1 213.525 241.4 213.525C243.2 213.125 245 212.725 246.7 212.125C253.6 209.825 258.3 207.525 265 201.025ZM297.1 153.125C289.8 153.525 282.7 155.225 275.7 157.025C265.3 159.525 254.8 162.525 244 163.025C234.2 163.425 224.4 161.225 217.4 153.925C219.8 160.925 224.1 166.925 230.4 170.925C241 177.625 254.4 178.225 266.5 179.925C269.6 180.325 272.7 180.825 275.8 181.525C277.9 182.025 280 182.525 282 183.225C282.4 183.325 282.8 183.625 283.1 183.425C283.3 183.325 283.5 182.925 283.6 182.725C283.9 182.325 284.2 181.825 284.5 181.425C285.1 180.525 285.7 179.625 286.3 178.725C291.3 170.725 294.4 164.225 297.1 153.125ZM290 92.7249C287.1 94.7249 284.1 96.9249 281.4 99.3249C278.7 101.725 276.3 104.425 273.9 107.125C265.1 117.425 257.9 129.125 248.3 138.725C244.2 142.825 239.7 146.525 234.5 149.025C229.4 151.425 223.7 152.425 218.1 151.625C223.6 155.125 229.9 157.225 236.5 157.125C247.4 156.825 257.3 150.925 266.4 145.425C271.7 142.225 277 138.825 282.5 136.025C287.8 133.425 293.6 131.325 299.7 131.525C299.7 131.125 299.7 130.725 299.7 130.225C299.3 117.225 296 104.325 290 92.7249ZM278.4 75.7249C270.8 67.0249 261.5 59.8249 251.1 54.7249C248.9 53.6249 246.6 52.6249 244.2 51.7249C242.9 51.2249 241.6 50.8249 240.4 50.3249C239.8 50.1249 239.2 49.9249 238.6 49.7249C238.1 49.5249 238.2 49.4249 237.9 49.8249C237.7 50.0249 237.6 50.5249 237.5 50.8249C235.8 55.4249 234.5 60.4249 233.7 65.2249C231.9 75.3249 232.7 85.9249 233.1 96.1249C233.8 114.225 235.1 138.525 217.4 149.425C224.3 148.625 230.8 146.025 235.9 141.325C245.6 132.525 249.3 118.825 253.5 106.925C256 99.7249 258.6 92.0249 263.2 85.8249C266.9 80.8249 271.5 77.3249 278.4 75.7249Z" fill="#209C95"/>
<path d="M206.6 80.4249C206.6 84.6249 203.2 88.025 199 88.025C194.8 88.025 191.4 84.6249 191.4 80.4249C191.4 76.2249 194.8 72.825 199 72.825C203.2 72.825 206.6 76.2249 206.6 80.4249Z" fill="#FF642E"/>
<path d="M210.3 114.025C213.337 114.025 215.8 111.562 215.8 108.525C215.8 105.487 213.337 103.025 210.3 103.025C207.262 103.025 204.8 105.487 204.8 108.525C204.8 111.562 207.262 114.025 210.3 114.025Z" fill="#FF642E"/>
<path d="M220.3 95.825C222.012 95.825 223.4 94.4371 223.4 92.725C223.4 91.0129 222.012 89.625 220.3 89.625C218.588 89.625 217.2 91.0129 217.2 92.725C217.2 94.4371 218.588 95.825 220.3 95.825Z" fill="#FF642E"/>
<path d="M197.9 136.025C199 134.825 200.1 133.725 201.3 132.725C201.8 132.325 202.3 131.825 202.9 131.425C203.5 130.925 204.1 130.325 204.8 130.025C205.2 129.825 205.1 129.825 205.4 130.225C205.6 130.425 205.8 130.625 206 130.925C206.4 131.325 206.7 131.825 207.1 132.225C207.8 133.125 208.5 134.125 209.1 135.125C211.7 139.525 212.9 144.725 212.8 149.825C209.8 142.925 204.4 138.625 197.9 136.025Z" fill="#209C95"/>
</svg>
